<?xml version="1.0" encoding="iso-8859-1"?>
<!-- Generator: Adobe Illustrator 19.0.0, SVG Export Plug-In . SVG Version: 6.00 Build 0)  -->
<svg version="1.1" id="Layer_1" xmlns="http://www.w3.org/2000/svg" xmlns:xlink="http://www.w3.org/1999/xlink" x="0px" y="0px"
	 viewBox="0 0 478.123 478.123" style="enable-background:new 0 0 478.123 478.123;" xml:space="preserve">
<polygon style="fill:#ECF5E1;" points="43.297,387.77 239.062,478.123 434.826,387.77 434.826,124.241 43.297,124.241 "/>
<polygon style="fill:#00C250;" points="88.473,124.241 88.473,350.123 239.062,417.888 389.65,350.123 389.65,124.241 "/>
<path style="fill:#003B15;" d="M166.177,79.064l72.885-54.408l72.885,54.408h37.512L245.093,1.745
	c-3.682-2.327-8.373-2.327-12.062,0l-104.365,77.32H166.177z"/>
<path style="fill:#00A344;" d="M457.415,101.653c0,12.424-10.165,22.588-22.588,22.588H43.297
	c-12.424,0-22.588-10.165-22.588-22.588s10.165-22.588,22.588-22.588h391.529C447.25,79.064,457.415,89.229,457.415,101.653z"/>
<polygon style="fill:#00E676;" points="88.473,124.241 88.473,350.123 239.062,417.888 239.062,124.241 "/>
<path style="fill:#FFFFFF;" d="M338.623,224.683h-66.372c-4.299,0-8.922-3.351-10.24-7.439l-20.518-63.134
	c-0.994-3.072-2.47-3.84-3.712-2.304c-0.136,0.166-0.248,0.55-0.384,0.783c-0.256,0.452-0.527,0.836-0.745,1.513l-20.51,63.134
	c-0.663,2.033-2.131,3.87-3.968,5.21c-1.867,1.378-4.111,2.229-6.28,2.229h-66.379c-2.153,0-3.396,0.52-3.667,1.355
	s0.437,1.988,2.168,3.253l30.088,21.85l23.62,17.152c0.414,0.309,0.723,0.776,1.092,1.137c2.68,2.778,3.998,7.304,2.824,10.91
	l-20.51,63.134c-1.009,3.072-0.256,4.555,1.641,4.028c0.218-0.045,0.52-0.279,0.768-0.399c0.474-0.203,0.926-0.376,1.506-0.783
	l53.7-39.025c3.486-2.53,9.193-2.53,12.68,0l53.707,39.025c3.471,2.53,5.233,1.25,3.923-2.846l-20.525-63.134
	c-1.34-4.104,0.437-9.525,3.923-12.062l53.707-39.017C343.6,226.754,342.93,224.683,338.623,224.683z"/>
<g>
</g>
<g>
</g>
<g>
</g>
<g>
</g>
<g>
</g>
<g>
</g>
<g>
</g>
<g>
</g>
<g>
</g>
<g>
</g>
<g>
</g>
<g>
</g>
<g>
</g>
<g>
</g>
<g>
</g>
</svg>
