<?xml version="1.0" encoding="iso-8859-1"?>
<!-- Generator: Adobe Illustrator 19.0.0, SVG Export Plug-In . SVG Version: 6.00 Build 0)  -->
<svg version="1.1" id="Layer_1" xmlns="http://www.w3.org/2000/svg" xmlns:xlink="http://www.w3.org/1999/xlink" x="0px" y="0px"
	 viewBox="0 0 481.882 481.882" style="enable-background:new 0 0 481.882 481.882;" xml:space="preserve">
<path style="fill:#ECF5E1;" d="M481.674,118.822c0.429-1.378,0.188-2.869-0.663-4.028c-0.858-1.16-2.199-1.852-3.652-1.852h-0.03
	c-0.836,0-1.672,0.294-2.319,0.821c-6.264,5.09-43.196,32.384-86.295,38.317c-1.446,0.196-2.665,1.212-3.087,2.613
	c-0.437,1.408-0.015,2.929,1.084,3.915c12.205,11.008,19.87,26.963,19.87,44.687c0,33.28-26.955,60.235-60.235,60.235
	s-60.235-26.955-60.235-60.235c0-24.952,15.164-46.336,36.759-55.499c1.333-0.565,2.221-1.845,2.289-3.29
	c0.075-1.446-0.708-2.801-1.973-3.494c-28.928-15.571-56.9-55.74-78.705-115.938c-0.55-1.491-1.958-2.485-3.546-2.485
	c-1.581,0-2.997,0.994-3.546,2.485c-21.805,60.198-49.777,100.367-78.705,115.938c-1.265,0.693-2.04,2.04-1.973,3.494
	c0.068,1.438,0.956,2.718,2.289,3.29c21.602,9.163,36.759,30.547,36.759,55.499c0,33.28-26.955,60.235-60.235,60.235
	s-60.235-26.955-60.235-60.235c0-17.724,7.665-33.679,19.87-44.695c1.092-0.986,1.506-2.507,1.077-3.915
	c-0.429-1.4-1.634-2.409-3.087-2.613c-43.091-5.933-80.03-33.227-86.295-38.317c-0.655-0.52-1.476-0.813-2.312-0.813H4.505
	c-1.431,0-2.793,0.693-3.637,1.852c-0.851,1.16-1.092,2.658-0.655,4.028l52.488,295.296h376.471L481.674,118.822z"/>
<polygon style="fill:#00C250;" points="240.936,105.412 210.819,143.059 240.936,180.706 271.054,143.059 "/>
<path style="fill:#FFFFFF;" d="M240.936,22.588c-1.589,0-2.997,0.994-3.546,2.485c-21.805,60.198-49.777,100.36-78.705,115.938
	c-1.265,0.693-2.04,2.04-1.973,3.494c0.068,1.438,0.956,2.718,2.289,3.29c21.602,9.163,36.759,30.547,36.759,55.499
	c0,33.28-26.955,60.235-60.235,60.235s-60.235-26.955-60.235-60.235c0-17.724,7.665-33.679,19.87-44.695
	c1.092-0.986,1.506-2.507,1.077-3.915c-0.429-1.4-1.634-2.409-3.087-2.62c-43.091-5.926-80.03-33.22-86.295-38.31
	c-0.655-0.52-1.476-0.813-2.312-0.813H4.505c-1.438,0-2.793,0.693-3.637,1.852c-0.851,1.16-1.092,2.665-0.655,4.028l52.488,295.296
	h188.235V22.588z"/>
<polygon style="fill:#00A344;" points="36.641,323.765 52.701,414.118 429.172,414.118 445.232,323.765 "/>
<g>
	<path style="fill:#003B15;" d="M436.701,451.765c0,4.164-3.366,7.529-7.529,7.529H52.701c-4.164,0-7.529-3.366-7.529-7.529v-30.118
		c0-4.156,3.366-7.529,7.529-7.529h376.471c4.164,0,7.529,3.373,7.529,7.529V451.765z"/>
	<path style="fill:#003B15;" d="M459.289,316.235c0,4.164-3.366,7.529-7.529,7.529H30.113c-4.164,0-7.529-3.366-7.529-7.529v-15.059
		c0-4.156,3.366-7.529,7.529-7.529H451.76c4.164,0,7.529,3.373,7.529,7.529V316.235z"/>
</g>
<circle style="fill:#ECF5E1;" cx="346.348" cy="368.941" r="15.059"/>
<polygon style="fill:#00C250;" points="240.936,323.765 36.641,323.765 52.701,414.118 240.936,414.118 "/>
<polygon style="fill:#00E676;" points="210.819,143.059 240.936,180.706 240.936,105.412 "/>
<g>
	<circle style="fill:#ECF5E1;" cx="135.524" cy="368.941" r="15.059"/>
	<circle style="fill:#ECF5E1;" cx="240.936" cy="368.941" r="15.059"/>
</g>
<g>
</g>
<g>
</g>
<g>
</g>
<g>
</g>
<g>
</g>
<g>
</g>
<g>
</g>
<g>
</g>
<g>
</g>
<g>
</g>
<g>
</g>
<g>
</g>
<g>
</g>
<g>
</g>
<g>
</g>
</svg>
