<?xml version="1.0" encoding="iso-8859-1"?>
<!-- Generator: Adobe Illustrator 19.0.0, SVG Export Plug-In . SVG Version: 6.00 Build 0)  -->
<svg version="1.1" id="Layer_1" xmlns="http://www.w3.org/2000/svg" xmlns:xlink="http://www.w3.org/1999/xlink" x="0px" y="0px"
	 viewBox="0 0 481.882 481.882" style="enable-background:new 0 0 481.882 481.882;" xml:space="preserve">
<path style="fill:#006E31;" d="M64,90.353c-8.237,0-15.94-2.244-22.588-6.099v397.628h45.176V84.254
	C79.94,88.109,72.237,90.353,64,90.353z"/>
<path style="fill:#00A344;" d="M384,128c-98.944,0-96.753-74.616-194.485-75.219c-42.737,0.625-77.35,16.083-102.927,40.787v293.594
	c27.339-26.376,63.149-40.23,102.927-40.809c97.732,0.602,95.541,75.219,194.485,75.219c29.086,0,56.222-8.501,79.059-23.115
	V104.885C440.222,119.507,413.086,128,384,128z"/>
<path style="fill:#00C250;" d="M343.017,122.722c-59.836-17.001-71.62-69.436-153.502-69.941
	c-42.737,0.625-77.35,16.083-102.927,40.787v285.583L343.017,122.722z"/>
<g>
	<polygon style="fill:#FFFFFF;" points="266.044,135.198 287.571,201.472 357.263,201.472 300.883,242.432 322.409,308.706 
		266.044,267.753 209.664,308.706 231.191,242.432 174.825,201.472 244.51,201.472 	"/>
	<circle style="fill:#FFFFFF;" cx="64" cy="45.176" r="45.176"/>
</g>
<g>
</g>
<g>
</g>
<g>
</g>
<g>
</g>
<g>
</g>
<g>
</g>
<g>
</g>
<g>
</g>
<g>
</g>
<g>
</g>
<g>
</g>
<g>
</g>
<g>
</g>
<g>
</g>
<g>
</g>
</svg>
