<?xml version="1.0" encoding="iso-8859-1"?>
<!-- Generator: Adobe Illustrator 19.0.0, SVG Export Plug-In . SVG Version: 6.00 Build 0)  -->
<svg version="1.1" id="Layer_1" xmlns="http://www.w3.org/2000/svg" xmlns:xlink="http://www.w3.org/1999/xlink" x="0px" y="0px"
	 viewBox="0 0 481.882 481.882" style="enable-background:new 0 0 481.882 481.882;" xml:space="preserve">
<path style="fill:#00A344;" d="M234.857,481.882c-105.412,0-180.706-60.235-180.706-165.647
	C54.151,158.118,242.387,143.059,204.74,0C280.034,60.235,325.21,105.412,325.21,210.824
	c37.647-22.588,37.647-97.882,22.588-158.118C438.151,158.118,506.872,481.882,234.857,481.882z"/>
<path style="fill:#00C250;" d="M128.933,455.816l280.945-280.937c-13.771-45.553-34.146-86.633-56.29-115.034
	c-1.928-2.424-3.878-4.902-5.79-7.138c15.059,60.235,15.059,135.529-22.588,158.118C325.21,105.412,280.034,60.235,204.74,0
	C242.387,143.059,54.151,158.118,54.151,316.235C54.151,375.266,78.238,426.089,128.933,455.816z"/>
<path style="fill:#ECF5E1;" d="M310.151,344.847c0,42.669-33.453,76.8-75.294,76.8c-41.826,0-75.294-34.379-75.294-76.8
	c0-76.8,67.765-69.271,67.765-171.671C244.066,198.776,310.151,268.047,310.151,344.847z"/>
<path style="fill:#FFFFFF;" d="M227.328,173.176c0,102.4-67.765,94.871-67.765,171.671c0,22.257,9.269,42.24,24.072,56.275
	l114.771-114.778C278.641,234.571,239.653,192.023,227.328,173.176z"/>
<g>
</g>
<g>
</g>
<g>
</g>
<g>
</g>
<g>
</g>
<g>
</g>
<g>
</g>
<g>
</g>
<g>
</g>
<g>
</g>
<g>
</g>
<g>
</g>
<g>
</g>
<g>
</g>
<g>
</g>
</svg>
