<?xml version="1.0" encoding="iso-8859-1"?>
<!-- Generator: Adobe Illustrator 19.0.0, SVG Export Plug-In . SVG Version: 6.00 Build 0)  -->
<svg version="1.1" id="Layer_1" xmlns="http://www.w3.org/2000/svg" xmlns:xlink="http://www.w3.org/1999/xlink" x="0px" y="0px"
	 viewBox="0 0 481.901 481.901" style="enable-background:new 0 0 481.901 481.901;" xml:space="preserve">
<path style="fill:#C5EB98;" d="M361.42,202.767c0,5.037-2.515,9.736-6.709,12.529l-83.644,85.88h-60.235l-83.644-85.88
	c-4.194-2.793-6.709-7.492-6.709-12.529V30.118C120.479,13.485,133.964,0,150.597,0h180.706c16.632,0,30.118,13.485,30.118,30.118
	V202.767z"/>
<polygon style="fill:#00A344;" points="301.185,0 180.715,0 180.715,270.268 210.832,301.176 271.068,301.176 301.185,270.268 "/>
<polygon style="fill:#00C250;" points="240.95,0 180.715,0 180.715,270.268 210.832,301.176 240.95,301.176 "/>
<path style="fill:#ECF5E1;" d="M234.204,203.415c1.265-2.575,3.885-4.201,6.746-4.201c2.861,0,5.489,1.626,6.746,4.201
	l39.974,80.994c1.099,2.221,3.223,3.75,5.677,4.119l89.382,12.988c2.831,0.414,5.18,2.402,6.076,5.135
	c0.881,2.718,0.158,5.722-1.905,7.71l-64.678,63.044c-1.769,1.724-2.583,4.232-2.168,6.664l15.27,89.02
	c0.474,2.824-0.685,5.685-2.989,7.371c-2.327,1.694-5.399,1.912-7.944,0.565l-79.94-42.022c-2.191-1.144-4.811-1.144-7.002,0
	l-79.955,42.022c-2.53,1.348-5.602,1.114-7.928-0.565c-2.319-1.687-3.471-4.548-2.982-7.371l15.262-89.02
	c0.414-2.432-0.399-4.932-2.161-6.664L95,314.361c-2.048-2.01-2.786-4.992-1.905-7.71c0.881-2.718,3.245-4.721,6.076-5.135
	l89.382-12.988c2.455-0.369,4.57-1.897,5.677-4.119L234.204,203.415z"/>
<path style="fill:#FFFFFF;" d="M151.847,442.338l152.267-152.252l-10.767-1.574c-2.455-0.354-4.57-1.897-5.677-4.119l-39.974-80.986
	c-1.265-2.575-3.893-4.201-6.746-4.201c-2.854,0-5.489,1.626-6.746,4.201l-39.974,80.986c-1.099,2.221-3.223,3.765-5.677,4.119
	l-89.374,12.996c-2.839,0.422-5.195,2.402-6.084,5.128c-0.881,2.726-0.151,5.722,1.912,7.718l64.678,63.044
	c1.762,1.724,2.583,4.224,2.161,6.664L151.847,442.338z"/>
<g>
</g>
<g>
</g>
<g>
</g>
<g>
</g>
<g>
</g>
<g>
</g>
<g>
</g>
<g>
</g>
<g>
</g>
<g>
</g>
<g>
</g>
<g>
</g>
<g>
</g>
<g>
</g>
<g>
</g>
</svg>
