<?xml version="1.0" encoding="iso-8859-1"?>
<!-- Generator: Adobe Illustrator 19.0.0, SVG Export Plug-In . SVG Version: 6.00 Build 0)  -->
<svg version="1.1" id="Layer_1" xmlns="http://www.w3.org/2000/svg" xmlns:xlink="http://www.w3.org/1999/xlink" x="0px" y="0px"
	 viewBox="0 0 478.249 478.249" style="enable-background:new 0 0 478.249 478.249;" xml:space="preserve">
<g>
	<path style="fill:#003B15;" d="M456.408,397.658l-64.346-95.88c-2.59,1.129-4.676,2.552-5.911,4.397
		c-7.032,10.496,8.621,39.695-0.279,48.602c-8.9,8.892-38.106-6.754-48.602,0.264c-10.406,6.972-7.07,39.966-18.786,44.815
		c-7.966,3.298-20.45-7.936-31.526-14.359l58.225,86.792c2.876,4.269,7.951,6.52,13.026,5.798c5.105-0.738,9.314-4.314,10.857-9.239
		l14.178-45.003c1.882-5.971,7.657-9.856,13.899-9.321l46.999,3.938c5.143,0.437,10.067-2.116,12.672-6.558
		C459.45,407.469,459.276,401.935,456.408,397.658z"/>
	<path style="fill:#003B15;" d="M159.372,399.857c-11.708-4.864-8.38-37.843-18.793-44.83c-10.488-7.025-39.695,8.629-48.595-0.264
		c-8.892-8.9,6.754-38.114-0.271-48.602c-1.19-1.769-3.177-3.132-5.617-4.239L21.84,397.666c-2.869,4.277-3.034,9.818-0.422,14.261
		c2.605,4.442,7.529,6.995,12.664,6.558l47.006-3.938c6.242-0.512,12.017,3.351,13.892,9.321l14.178,45.003
		c1.544,4.909,5.768,8.501,10.857,9.239c5.097,0.738,10.165-1.513,13.018-5.798l58.473-87.115
		C180.274,391.522,167.489,403.215,159.372,399.857z"/>
</g>
<path style="fill:#00A344;" d="M446.74,207.819c0,12.845-31.752,22.423-34.146,34.56c-2.477,12.521,23.145,33.483,18.364,45.003
	c-4.864,11.723-37.835,8.38-44.808,18.793c-7.032,10.496,8.621,39.695-0.279,48.602c-8.9,8.892-38.106-6.754-48.602,0.264
	c-10.406,6.972-7.07,39.966-18.786,44.815c-11.505,4.774-32.474-20.864-44.996-18.372c-12.13,2.394-21.707,34.146-34.56,34.146
	c-12.853,0-22.415-31.752-34.56-34.146c-12.521-2.477-33.483,23.145-45.003,18.372c-11.708-4.864-8.38-37.843-18.793-44.815
	c-10.488-7.032-39.695,8.629-48.587-0.279c-8.9-8.9,6.746-38.114-0.279-48.602c-6.972-10.413-39.959-7.063-44.815-18.793
	c-4.774-11.497,20.864-32.474,18.372-44.988c-2.394-12.145-34.146-21.715-34.146-34.56c0-12.853,31.752-22.423,34.161-34.568
	c2.47-12.514-23.16-33.476-18.379-44.996c4.856-11.716,37.85-8.38,44.815-18.793c7.025-10.496-8.629-39.703,0.271-48.602
	c8.9-8.892,38.114,6.754,48.602-0.264c10.413-6.972,7.07-39.966,18.793-44.823c11.512-4.774,32.474,20.864,44.988,18.387
	C216.513,31.759,226.083,0,238.928,0c12.86,0,22.43,31.759,34.56,34.161c12.514,2.47,33.483-23.153,45.003-18.379
	c11.723,4.864,8.38,37.85,18.793,44.823c10.504,7.025,39.703-8.629,48.602,0.271c8.9,8.9-6.746,38.106,0.264,48.595
	c6.972,10.413,39.966,7.078,44.823,18.793c4.774,11.512-20.864,32.474-18.379,44.988C414.988,185.397,446.74,194.967,446.74,207.819
	z"/>
<g>
	<path style="fill:#00C250;" d="M385.887,60.875c-8.9-8.9-38.121,6.746-48.602-0.279c-10.413-6.965-7.07-39.966-18.793-44.815
		c-11.512-4.774-32.474,20.856-45.003,18.379C261.358,31.759,251.781,0,238.928,0c-12.845,0-22.415,31.759-34.56,34.161
		C191.854,36.631,170.9,11,159.38,15.774c-11.723,4.864-8.38,37.85-18.793,44.823c-10.496,7.025-39.703-8.629-48.602,0.264
		c-8.9,8.9,6.746,38.114-0.264,48.602c-6.98,10.413-39.974,7.078-44.823,18.793c-4.781,11.512,20.856,32.474,18.379,44.996
		c-2.409,12.145-34.161,21.715-34.161,34.568c0,12.845,31.752,22.415,34.146,34.56c2.485,12.514-23.145,33.476-18.372,44.988
		c4.864,11.731,37.843,8.38,44.815,18.793c7.032,10.504-8.621,39.703,0.271,48.602c0.271,0.264,0.61,0.452,0.919,0.678
		L386.542,61.794C386.331,61.478,386.151,61.139,385.887,60.875z"/>
	<circle style="fill:#00C250;" cx="238.936" cy="207.834" r="140.431"/>
</g>
<path style="fill:#00E676;" d="M238.928,67.388c-77.56,0-140.424,62.878-140.424,140.431c0,38.596,15.586,73.547,40.794,98.929
	l198.566-198.566C312.475,82.974,277.531,67.388,238.928,67.388z"/>
<circle style="fill:#FFFFFF;" cx="238.936" cy="207.834" r="91.61"/>
<g>
</g>
<g>
</g>
<g>
</g>
<g>
</g>
<g>
</g>
<g>
</g>
<g>
</g>
<g>
</g>
<g>
</g>
<g>
</g>
<g>
</g>
<g>
</g>
<g>
</g>
<g>
</g>
<g>
</g>
</svg>
