<?xml version="1.0" encoding="iso-8859-1"?>
<!-- Generator: Adobe Illustrator 19.0.0, SVG Export Plug-In . SVG Version: 6.00 Build 0)  -->
<svg version="1.1" id="Layer_1" xmlns="http://www.w3.org/2000/svg" xmlns:xlink="http://www.w3.org/1999/xlink" x="0px" y="0px"
	 viewBox="0 0 481.882 481.882" style="enable-background:new 0 0 481.882 481.882;" xml:space="preserve">
<path style="fill:#00C250;" d="M347.874,98.349c66.003,7.063,80.926,178.816-107.294,178.816
	c-190.66,0-165.534-156.695-116.224-187.761c0,35.765,53.64,53.647,53.64,89.404c35.765-53.64-80.467-71.522,0-178.808
	c8.945,62.584,53.647,44.71,71.529,107.287c8.937-53.64-26.827-53.64-17.882-89.404c17.882,26.827,107.294,0,107.294,134.114
	C356.819,134.114,347.874,98.349,347.874,98.349z"/>
<path style="fill:#ECF5E1;" d="M204.815,250.338c0,0-44.702-53.64,35.765-116.232c8.945,44.702,62.592,34.876,62.592,80.467
	c0,26.827-8.945,35.765-8.945,35.765H204.815z"/>
<path style="fill:#FFFFFF;" d="M240.58,134.114c-51.32,39.921-51.704,76.183-45.267,97.227l66.184-66.176
	C251.934,158.238,243.637,149.376,240.58,134.114z"/>
<path style="fill:#003B15;" d="M147.155,301.176l71.236,165.986c2.146,8.591,11,14.72,21.248,14.72s19.102-6.129,21.248-14.72
	l71.236-165.986H147.155z"/>
<path style="fill:#C5EB98;" d="M367.639,286.118c0,8.312-6.746,15.059-15.059,15.059H126.697c-8.312,0-15.059-6.746-15.059-15.059
	V256c0-8.312,6.746-15.059,15.059-15.059H352.58c8.312,0,15.059,6.746,15.059,15.059V286.118z"/>
<path style="fill:#006E31;" d="M147.155,301.176l71.236,165.986c2.146,8.591,11,14.72,21.248,14.72V301.176H147.155z"/>
<path style="fill:#ECF5E1;" d="M126.697,240.941c-8.312,0-15.059,6.746-15.059,15.059v30.118c0,8.312,6.746,15.059,15.059,15.059
	h20.457h92.484v-30.118v-30.118H126.697z"/>
<g>
</g>
<g>
</g>
<g>
</g>
<g>
</g>
<g>
</g>
<g>
</g>
<g>
</g>
<g>
</g>
<g>
</g>
<g>
</g>
<g>
</g>
<g>
</g>
<g>
</g>
<g>
</g>
<g>
</g>
</svg>
