<?xml version="1.0" encoding="iso-8859-1"?>
<!-- Generator: Adobe Illustrator 19.0.0, SVG Export Plug-In . SVG Version: 6.00 Build 0)  -->
<svg version="1.1" id="Layer_1" xmlns="http://www.w3.org/2000/svg" xmlns:xlink="http://www.w3.org/1999/xlink" x="0px" y="0px"
	 viewBox="0 0 495 495" style="enable-background:new 0 0 495 495;" xml:space="preserve">
<g>
	<path style="fill:#BDDBFF;" d="M247.496,373.484c-21.143-15.887-140.8-109.353-140.8-190.278c0-41.494,33.626-75.12,75.12-75.12
		c28.276,0,52.87,15.654,65.68,38.755C247.5,146.833,247.5,0,247.5,0H0v495h247.5C247.5,495,247.5,373.481,247.496,373.484z"/>
	<path style="fill:#9BC9FF;" d="M247.5,0v146.833c12.811-23.097,37.402-38.748,65.675-38.748c41.494,0,75.121,33.627,75.121,75.12
		c0,80.92-119.642,174.38-140.796,190.275V495H495V0H247.5z"/>
	<path style="fill:#005ECE;" d="M247.496,373.484c21.158-15.898,140.8-109.358,140.8-190.278c0-41.494-33.627-75.12-75.121-75.12
		c-28.274,0-52.865,15.65-65.675,38.748C247.496,146.841,247.496,373.484,247.496,373.484z"/>
	<path style="fill:#2488FF;" d="M181.816,108.086c-41.494,0-75.12,33.627-75.12,75.12c0,80.925,119.657,174.392,140.8,190.278
		V146.841C234.686,123.739,210.093,108.086,181.816,108.086z"/>
</g>
<g>
</g>
<g>
</g>
<g>
</g>
<g>
</g>
<g>
</g>
<g>
</g>
<g>
</g>
<g>
</g>
<g>
</g>
<g>
</g>
<g>
</g>
<g>
</g>
<g>
</g>
<g>
</g>
<g>
</g>
</svg>
