<?xml version="1.0" encoding="iso-8859-1"?>
<!-- Generator: Adobe Illustrator 19.0.0, SVG Export Plug-In . SVG Version: 6.00 Build 0)  -->
<svg version="1.1" id="Layer_1" xmlns="http://www.w3.org/2000/svg" xmlns:xlink="http://www.w3.org/1999/xlink" x="0px" y="0px"
	 viewBox="0 0 495 495" style="enable-background:new 0 0 495 495;" xml:space="preserve">
<g>
	<polygon style="fill:#BDDBFF;" points="168.562,354.721 140.278,326.437 219.216,247.5 140.278,168.563 168.562,140.279 
		247.5,219.216 247.5,0 0,0 0,495 247.5,495 247.5,275.784 	"/>
	<polygon style="fill:#9BC9FF;" points="247.5,0 247.5,219.216 326.438,140.279 354.722,168.563 275.784,247.5 354.722,326.437 
		326.438,354.721 247.5,275.784 247.5,495 495,495 495,0 	"/>
	<polygon style="fill:#2488FF;" points="140.278,168.563 219.216,247.5 140.278,326.437 168.562,354.721 247.5,275.784 
		326.438,354.721 354.722,326.437 275.784,247.5 354.722,168.563 326.438,140.279 247.5,219.216 168.562,140.279 	"/>
</g>
<g>
</g>
<g>
</g>
<g>
</g>
<g>
</g>
<g>
</g>
<g>
</g>
<g>
</g>
<g>
</g>
<g>
</g>
<g>
</g>
<g>
</g>
<g>
</g>
<g>
</g>
<g>
</g>
<g>
</g>
</svg>
