<?xml version="1.0" encoding="utf-8"?>
<!-- Generator: Adobe Illustrator 23.0.2, SVG Export Plug-In . SVG Version: 6.00 Build 0)  -->
<svg version="1.1" id="Layer_1" xmlns="http://www.w3.org/2000/svg" xmlns:xlink="http://www.w3.org/1999/xlink" x="0px" y="0px"
	 viewBox="0 0 340.01 150.963" style="enable-background:new 0 0 340.01 150.963;" xml:space="preserve">
<style type="text/css">
	.st0{fill:#265C00;}
</style>
<g>
	<polygon class="st0" points="0,7.207 20.039,7.207 20.039,84.023 27.598,84.023 27.598,7.207 47.637,7.207 47.637,0 0,0 	"/>
	<polygon class="st0" points="74.531,69.492 74.297,72.598 74.063,69.492 58.418,24.023 51.211,24.023 70.664,78.867 60,108.047 
		66.973,108.047 97.324,24.023 90.117,24.023 	"/>
	<path class="st0" d="M139.453,28.008c-1.602-1.601-3.477-2.861-5.625-3.779c-2.149-0.917-4.434-1.377-6.855-1.377h-1.816
		c-2.93,0-5.635,0.655-8.115,1.963c-2.481,1.309-4.541,3.076-6.182,5.303l-3.926-6.094h-2.402v84.023h7.207V78.984
		c1.641,1.953,3.613,3.477,5.918,4.57c2.304,1.094,4.805,1.641,7.5,1.641h1.816c2.421,0,4.707-0.459,6.855-1.377
		c2.148-0.918,4.023-2.178,5.625-3.779c1.601-1.602,2.861-3.477,3.779-5.625c0.917-2.148,1.377-4.434,1.377-6.855v-27.07
		c0-2.421-0.459-4.707-1.377-6.855C142.314,31.485,141.054,29.61,139.453,28.008z M137.402,67.969c0,1.445-0.274,2.803-0.82,4.072
		c-0.547,1.27-1.289,2.373-2.227,3.311s-2.042,1.68-3.311,2.227c-1.27,0.547-2.627,0.82-4.072,0.82h-4.805
		c-1.446,0-2.803-0.273-4.072-0.82c-1.27-0.547-2.373-1.289-3.311-2.227s-1.68-2.041-2.227-3.311c-0.547-1.27-0.82-2.627-0.82-4.072
		V40.078c0-1.445,0.273-2.802,0.82-4.072c0.546-1.269,1.289-2.373,2.227-3.311s2.041-1.679,3.311-2.227
		c1.269-0.546,2.626-0.82,4.072-0.82h4.805c1.445,0,2.802,0.274,4.072,0.82c1.269,0.547,2.373,1.289,3.311,2.227
		s1.679,2.042,2.227,3.311c0.546,1.27,0.82,2.627,0.82,4.072V67.969z"/>
	<path class="st0" d="M169.805,83.818c2.148,0.918,4.433,1.377,6.855,1.377h4.805c2.421,0,4.707-0.459,6.855-1.377
		c2.148-0.918,4.023-2.178,5.625-3.779s2.861-3.477,3.779-5.625s1.377-4.434,1.377-6.855v-2.402l-7.207-1.172v3.984
		c0,1.445-0.273,2.803-0.82,4.072s-1.289,2.373-2.227,3.311s-2.041,1.68-3.311,2.227c-1.27,0.547-2.627,0.82-4.072,0.82h-4.805
		c-1.446,0-2.803-0.273-4.072-0.82c-1.27-0.547-2.373-1.289-3.311-2.227s-1.68-2.041-2.227-3.311c-0.547-1.27-0.82-2.627-0.82-4.072
		V54.609h32.871V40.488c0-2.421-0.459-4.707-1.377-6.855c-0.918-2.148-2.178-4.023-3.779-5.625
		c-1.602-1.601-3.477-2.861-5.625-3.779c-2.149-0.917-4.434-1.377-6.855-1.377h-4.805c-2.422,0-4.708,0.459-6.855,1.377
		c-2.149,0.918-4.024,2.178-5.625,3.779c-1.602,1.602-2.862,3.477-3.779,5.625c-0.918,2.149-1.377,4.434-1.377,6.855v27.07
		c0,2.422,0.458,4.707,1.377,6.855c0.917,2.148,2.177,4.023,3.779,5.625C165.781,81.641,167.656,82.9,169.805,83.818z
		 M166.23,40.078c0-1.445,0.273-2.802,0.82-4.072c0.546-1.269,1.289-2.373,2.227-3.311s2.041-1.679,3.311-2.227
		c1.269-0.546,2.626-0.82,4.072-0.82h4.805c1.445,0,2.802,0.274,4.072,0.82c1.27,0.547,2.373,1.289,3.311,2.227
		s1.68,2.042,2.227,3.311c0.547,1.27,0.82,2.627,0.82,4.072v8.906H166.23V40.078z"/>
	<rect x="215.332" class="st0" width="8.379" height="9.609"/>
	<rect x="215.918" y="24.023" class="st0" width="7.207" height="60"/>
	<path class="st0" d="M253.125,8.438l-7.207,1.172v14.414h-10.781v6.855h10.781v37.324c0,2.188,0.42,4.238,1.26,6.152
		s1.973,3.594,3.398,5.039s3.105,2.578,5.039,3.398s3.994,1.23,6.182,1.23h6.563v-6.855h-6.563c-1.211,0-2.344-0.225-3.398-0.674
		s-1.973-1.064-2.754-1.846s-1.396-1.689-1.846-2.725s-0.674-2.158-0.674-3.369V30.879h15.234v-6.855h-15.234V8.438z"/>
	<path class="st0" d="M336.01,24.303h-48.868c-2.209,0-4,1.791-4,4V77.17c0,2.209,1.791,4,4,4h48.868c2.209,0,4-1.791,4-4V28.303
		C340.01,26.094,338.22,24.303,336.01,24.303z"/>
	<path class="st0" d="M336.01,94.095h-48.868c-2.209,0-4,1.791-4,4v48.868c0,2.209,1.791,4,4,4h48.868c2.209,0,4-1.791,4-4V98.095
		C340.01,95.886,338.22,94.095,336.01,94.095z"/>
	<path class="st0" d="M263.633,94.095h-98.868c-2.209,0-4,1.791-4,4v48.868c0,2.209,1.791,4,4,4h98.868c2.209,0,4-1.791,4-4V98.095
		C267.633,95.886,265.843,94.095,263.633,94.095z"/>
</g>
</svg>
