<?xml version="1.0" encoding="iso-8859-1"?>
<!-- Generator: Adobe Illustrator 19.0.0, SVG Export Plug-In . SVG Version: 6.00 Build 0)  -->
<svg version="1.1" id="Capa_1" xmlns="http://www.w3.org/2000/svg" xmlns:xlink="http://www.w3.org/1999/xlink" x="0px" y="0px"
	 viewBox="0 0 512 512" style="enable-background:new 0 0 512 512;" xml:space="preserve">
<g>
	<g>
		<g>
			<path style="fill:#D1D4D1;" d="M370.759,282.483h-35.31v52.966h17.655c0.023,29.242,23.723,52.942,52.966,52.966v-70.621
				c0.003-9.366-3.717-18.349-10.339-24.971C389.107,286.199,380.124,282.48,370.759,282.483z"/>
			<path style="fill:#D1D4D1;" d="M141.241,282.483c-9.366-0.003-18.349,3.717-24.971,10.339
				c-6.623,6.623-10.342,15.605-10.339,24.971v70.621c29.242-0.023,52.942-23.723,52.966-52.966h17.655v-52.966H141.241z"/>
			<path style="fill:#D1D4D1;" d="M414.985,251.498l-2.825,3.266c-14.822,17.252-36.315,27.34-59.057,27.719v61.263
				c0.009,6.137-1.605,12.167-4.679,17.479l-25.512,44.756c-3.1,5.518-8.942,8.929-15.272,8.916h1.324v17.655
				c0.027,13.847-10.643,25.365-24.452,26.395l-0.177,0.177c1.854,1.854,26.13,27.366-28.337,52.877
				c-56.497-26.483-28.248-52.966-28.248-52.966v-0.088c-13.918-0.886-24.745-12.448-24.717-26.395v-17.655h1.412
				c-6.353,0.015-12.222-3.392-15.36-8.916l-25.512-44.756c-3.073-5.312-4.687-11.342-4.679-17.479v-61.263
				c-22.741-0.379-44.235-10.467-59.057-27.719l-2.825-3.266c-16.583-19.353-22.886-45.482-16.949-70.268l9.357-38.93v-0.088
				l19.509-81.302c8.597-35.738,40.572-60.924,77.33-60.91h139.476c36.758-0.014,68.733,25.172,77.33,60.91l19.509,81.39
				l9.357,38.93C437.871,206.016,431.568,232.145,414.985,251.498z"/>
		</g>
		<path style="fill:#2C2F38;" d="M422.577,142.301c-3.09,32.486-15.537,96.044-64.088,96.044c-65.236,0-46.61-17.655-102.488-17.655
			s-37.252,17.655-102.488,17.655c-48.552,0-60.999-63.559-64.088-96.044v-0.088l19.509-81.302
			c8.597-35.738,40.572-60.924,77.33-60.91h139.476c36.758-0.014,68.733,25.172,77.33,60.91L422.577,142.301z"/>
		<path style="fill:#95A5A5;" d="M353.103,282.483l0,61.263c0.009,6.137-1.605,12.167-4.679,17.479l-25.512,44.756
			c-3.1,5.518-8.942,8.929-15.272,8.916H204.447c-6.353,0.015-12.222-3.392-15.36-8.916l-25.512-44.756
			c-3.073-5.312-4.687-11.342-4.679-17.479l0-61.263H353.103z"/>
		<path style="fill:#D1D4D1;" d="M308.966,414.897l0,17.655c0.027,13.847-10.643,25.365-24.452,26.395h-0.265
			c-0.585,0.073-1.176,0.103-1.766,0.088h-52.966c-0.59,0.015-1.18-0.015-1.766-0.088c-13.918-0.886-24.745-12.448-24.717-26.395
			l0-17.655H308.966z"/>
		<path style="fill:#CC4B4C;" d="M256,512c-56.497-26.483-28.248-52.966-28.248-52.966v-0.088c0.585,0.073,1.176,0.103,1.766,0.088
			h52.966c0.59,0.015,1.18-0.015,1.766-0.088h0.265l-0.177,0.177C286.19,460.977,310.466,486.488,256,512z"/>
		<g>
			<path style="fill:#A5A5A4;" d="M158.897,282.483v52.966h-52.966v-17.655c-0.003-9.366,3.717-18.349,10.339-24.971
				c6.623-6.623,15.605-10.342,24.971-10.339H158.897z"/>
			<path style="fill:#A5A5A4;" d="M406.069,317.793v17.655h-52.966v-52.966h17.655c9.366-0.003,18.349,3.717,24.971,10.339
				C402.352,299.445,406.072,308.427,406.069,317.793z"/>
		</g>
	</g>
	<g transform="translate(13 32)">
		<g>
			<path style="fill:#7F8C8D;" d="M251.828,250.483v35.31c0,4.875-3.952,8.828-8.828,8.828c-4.875,0-8.828-3.952-8.828-8.828v-35.31
				H251.828z"/>
			<path style="fill:#7F8C8D;" d="M251.828,338.759v44.138h-17.655v-44.138c0-4.875,3.952-8.828,8.828-8.828
				C247.875,329.931,251.828,333.883,251.828,338.759z"/>
			<path style="fill:#7F8C8D;" d="M313.621,250.483v52.966c0.014,16.101-10.887,30.163-26.483,34.163
				c-2.875,0.788-5.846,1.174-8.828,1.148h-15.625c-4.875,0-8.828-3.952-8.828-8.828c0-4.875,3.952-8.828,8.828-8.828h15.625
				c9.739-0.029,17.626-7.916,17.655-17.655v-52.966H313.621z"/>
			<path style="fill:#7F8C8D;" d="M232.142,329.931c-0.015,4.869-3.958,8.813-8.828,8.828H207.69
				c-2.981,0.027-5.952-0.359-8.828-1.148c-15.596-4-26.497-18.062-26.483-34.163l0-52.966h17.655v52.966
				c0.029,9.739,7.916,17.627,17.655,17.655h15.625C228.184,321.118,232.128,325.062,232.142,329.931z"/>
			<path style="fill:#7F8C8D;" d="M287.138,329.931v52.966h-17.655v-44.138h-6.797c-4.875,0-8.828-3.952-8.828-8.828
				c0-4.875,3.952-8.828,8.828-8.828h15.625C283.18,321.118,287.123,325.062,287.138,329.931z"/>
			<path style="fill:#7F8C8D;" d="M232.142,329.931c-0.015,4.869-3.958,8.813-8.828,8.828h-6.797v44.138h-17.655v-52.966
				c0.015-4.869,3.958-8.813,8.828-8.828h15.625C228.184,321.118,232.128,325.062,232.142,329.931z"/>
		</g>
		<path style="fill:#D1D4D1;" d="M243,347.586c-19.501,0-35.31-15.809-35.31-35.31c0-19.501,15.809-35.31,35.31-35.31
			s35.31,15.809,35.31,35.31C278.288,331.768,262.492,347.564,243,347.586z M243,294.621c-9.751,0-17.655,7.904-17.655,17.655
			c0,9.751,7.904,17.655,17.655,17.655c9.751,0,17.655-7.904,17.655-17.655C260.645,302.529,252.747,294.63,243,294.621z"/>
	</g>
	<g transform="translate(7 9)">
		<path style="fill:#E6E7E8;" d="M191.621,194.034c-36.549-0.04-66.167-29.658-66.207-66.207c-0.019-5.213,0.604-10.409,1.854-15.47
			c0.761-3.063,3.1-5.486,6.134-6.354s6.301-0.051,8.568,2.144c2.267,2.195,3.189,5.434,2.418,8.495
			c-0.892,3.661-1.335,7.417-1.319,11.185c0,26.814,21.737,48.552,48.552,48.552s48.552-21.737,48.552-48.552
			c0.068-13.269-5.363-25.974-15-35.095c-3.533-3.361-3.672-8.95-0.31-12.483s8.95-3.672,12.483-0.31
			c13.154,12.445,20.569,29.78,20.483,47.888C257.788,164.376,228.169,193.995,191.621,194.034z"/>
		<circle style="fill:#65DDB9;" cx="218.103" cy="127.828" r="8.828"/>
		<path style="fill:#E6E7E8;" d="M306.379,194.034c-36.549-0.04-66.167-29.658-66.207-66.207
			c-0.086-18.108,7.329-35.443,20.483-47.888c3.533-3.361,9.121-3.222,12.483,0.31s3.222,9.121-0.31,12.483
			c-9.637,9.121-15.068,21.826-15,35.095c0,26.814,21.737,48.552,48.552,48.552c26.814,0,48.552-21.737,48.552-48.552
			c0.015-3.768-0.428-7.524-1.319-11.185c-0.788-3.066,0.127-6.32,2.397-8.526s5.55-3.027,8.592-2.15
			c3.042,0.877,5.382,3.316,6.131,6.392c1.25,5.061,1.873,10.257,1.854,15.47C372.546,164.376,342.928,193.995,306.379,194.034z"/>
		<circle style="fill:#65DDB9;" cx="279.897" cy="127.828" r="8.828"/>
	</g>
</g>
<g>
</g>
<g>
</g>
<g>
</g>
<g>
</g>
<g>
</g>
<g>
</g>
<g>
</g>
<g>
</g>
<g>
</g>
<g>
</g>
<g>
</g>
<g>
</g>
<g>
</g>
<g>
</g>
<g>
</g>
</svg>
