<?xml version="1.0" encoding="iso-8859-1"?>
<!-- Generator: Adobe Illustrator 19.0.0, SVG Export Plug-In . SVG Version: 6.00 Build 0)  -->
<svg version="1.1" id="Capa_1" xmlns="http://www.w3.org/2000/svg" xmlns:xlink="http://www.w3.org/1999/xlink" x="0px" y="0px"
	 viewBox="0 0 512 512" style="enable-background:new 0 0 512 512;" xml:space="preserve">
<g>
	<g>
		<g>
			<path style="fill:#D1D4D1;" d="M370.759,282.483h-35.31v52.966h17.655c0.023,29.242,23.723,52.942,52.966,52.966v-70.621
				c0.003-9.366-3.717-18.349-10.339-24.971C389.107,286.199,380.124,282.48,370.759,282.483z"/>
			<path style="fill:#D1D4D1;" d="M141.241,282.483c-9.366-0.003-18.349,3.717-24.971,10.339
				c-6.623,6.623-10.342,15.605-10.339,24.971v70.621c29.242-0.023,52.942-23.723,52.966-52.966h17.655v-52.966H141.241z"/>
			<path style="fill:#D1D4D1;" d="M414.985,251.498l-2.825,3.266c-14.822,17.252-36.315,27.34-59.057,27.719v61.263
				c0.009,6.137-1.605,12.167-4.679,17.479l-25.512,44.756c-3.1,5.518-8.942,8.929-15.272,8.916h1.324v17.655
				c0.027,13.847-10.643,25.365-24.452,26.395l-0.177,0.177c1.854,1.854,26.13,27.366-28.337,52.877
				c-56.497-26.483-28.248-52.966-28.248-52.966v-0.088c-13.918-0.886-24.745-12.448-24.717-26.395v-17.655h1.412
				c-6.353,0.015-12.222-3.392-15.36-8.916l-25.512-44.756c-3.073-5.312-4.687-11.342-4.679-17.479v-61.263
				c-22.741-0.379-44.235-10.467-59.057-27.719l-2.825-3.266c-16.583-19.353-22.886-45.482-16.949-70.268l9.357-38.93v-0.088
				l19.509-81.302c8.597-35.738,40.572-60.924,77.33-60.91h139.476c36.758-0.014,68.733,25.172,77.33,60.91l19.509,81.39
				l9.357,38.93C437.871,206.016,431.568,232.145,414.985,251.498z"/>
		</g>
		<path style="fill:#95A5A5;" d="M353.103,282.483l0,61.263c0.009,6.137-1.605,12.167-4.679,17.479l-25.512,44.756
			c-3.1,5.518-8.942,8.929-15.272,8.916H204.447c-6.353,0.015-12.222-3.392-15.36-8.916l-25.512-44.756
			c-3.073-5.312-4.687-11.342-4.679-17.479l0-61.263H353.103z"/>
		<path style="fill:#D1D4D1;" d="M308.966,414.897l0,17.655c0.027,13.847-10.643,25.365-24.452,26.395h-0.265
			c-0.585,0.073-1.176,0.103-1.766,0.088h-52.966c-0.59,0.015-1.18-0.015-1.766-0.088c-13.918-0.886-24.745-12.448-24.717-26.395
			l0-17.655H308.966z"/>
		<path style="fill:#CC4B4C;" d="M256,512c-56.497-26.483-28.248-52.966-28.248-52.966v-0.088c0.585,0.073,1.176,0.103,1.766,0.088
			h52.966c0.59,0.015,1.18-0.015,1.766-0.088h0.265l-0.177,0.177C286.19,460.977,310.466,486.488,256,512z"/>
		<g>
			<path style="fill:#A5A5A4;" d="M158.897,282.483v52.966h-52.966v-17.655c-0.003-9.366,3.717-18.349,10.339-24.971
				c6.623-6.623,15.605-10.342,24.971-10.339H158.897z"/>
			<path style="fill:#A5A5A4;" d="M406.069,317.793v17.655h-52.966v-52.966h17.655c9.366-0.003,18.349,3.717,24.971,10.339
				C402.352,299.445,406.072,308.427,406.069,317.793z"/>
		</g>
		<path style="fill:#2C2F38;" d="M414.985,251.498l-2.825,3.266c-14.822,17.252-36.315,27.34-59.057,27.719H158.897
			c-22.741-0.379-44.235-10.467-59.057-27.719l-2.825-3.266c-16.583-19.353-22.886-45.482-16.949-70.268l9.357-38.93v-0.088
			l19.509-81.302c8.597-35.738,40.572-60.924,77.33-60.91h139.476c36.758-0.014,68.733,25.172,77.33,60.91l19.509,81.39l9.357,38.93
			C437.871,206.016,431.568,232.145,414.985,251.498z"/>
	</g>
	<g transform="translate(9 4)">
		<g>
			<path style="fill:#7F8C8D;" d="M255.828,278.483v35.31c0,4.875-3.952,8.828-8.828,8.828s-8.828-3.952-8.828-8.828v-35.31H255.828
				z"/>
			<path style="fill:#7F8C8D;" d="M255.828,366.759v44.138h-17.655v-44.138c0-4.875,3.952-8.828,8.828-8.828
				S255.828,361.883,255.828,366.759z"/>
			<path style="fill:#7F8C8D;" d="M317.621,278.483v52.966c0.014,16.101-10.887,30.163-26.483,34.163
				c-2.875,0.788-5.846,1.174-8.828,1.148h-15.625c-4.875,0-8.828-3.952-8.828-8.828s3.952-8.828,8.828-8.828h15.625
				c9.739-0.029,17.626-7.916,17.655-17.655v-52.966H317.621z"/>
			<path style="fill:#7F8C8D;" d="M236.142,357.931c-0.015,4.869-3.958,8.813-8.828,8.828H211.69
				c-2.981,0.027-5.952-0.359-8.828-1.148c-15.596-4-26.497-18.062-26.483-34.163l0-52.966h17.655v52.966
				c0.029,9.739,7.916,17.627,17.655,17.655h15.625C232.184,349.118,236.128,353.062,236.142,357.931z"/>
			<path style="fill:#7F8C8D;" d="M291.138,357.931v52.966h-17.655v-44.138h-6.797c-4.875,0-8.828-3.952-8.828-8.828
				s3.952-8.828,8.828-8.828h15.625C287.18,349.118,291.123,353.062,291.138,357.931z"/>
			<path style="fill:#7F8C8D;" d="M236.142,357.931c-0.015,4.869-3.958,8.813-8.828,8.828h-6.797v44.138h-17.655v-52.966
				c0.015-4.869,3.958-8.813,8.828-8.828h15.625C232.184,349.118,236.128,353.062,236.142,357.931z"/>
		</g>
		<path style="fill:#D1D4D1;" d="M247,375.586c-19.501,0-35.31-15.809-35.31-35.31c0-19.501,15.809-35.31,35.31-35.31
			s35.31,15.809,35.31,35.31C282.288,359.768,266.492,375.564,247,375.586z M247,322.621c-9.751,0-17.655,7.905-17.655,17.655
			s7.904,17.655,17.655,17.655s17.655-7.904,17.655-17.655C264.645,330.529,256.747,322.63,247,322.621z"/>
		<circle style="fill:#4482C3;" cx="247" cy="137.241" r="105.931"/>
	</g>
	<g transform="translate(12 14)">
		<circle style="fill:#ECF0F1;" cx="182.207" cy="127.241" r="17.655"/>
		<circle style="fill:#D1D4D1;" cx="244" cy="127.241" r="17.655"/>
		<circle style="fill:#BDC3C7;" cx="305.793" cy="127.241" r="17.655"/>
	</g>
</g>
<g>
</g>
<g>
</g>
<g>
</g>
<g>
</g>
<g>
</g>
<g>
</g>
<g>
</g>
<g>
</g>
<g>
</g>
<g>
</g>
<g>
</g>
<g>
</g>
<g>
</g>
<g>
</g>
<g>
</g>
</svg>
