<?xml version="1.0" encoding="iso-8859-1"?>
<!-- Generator: Adobe Illustrator 19.0.0, SVG Export Plug-In . SVG Version: 6.00 Build 0)  -->
<svg version="1.1" id="Capa_1" xmlns="http://www.w3.org/2000/svg" xmlns:xlink="http://www.w3.org/1999/xlink" x="0px" y="0px"
	 viewBox="0 0 512 512" style="enable-background:new 0 0 512 512;" xml:space="preserve">
<g>
	<g>
		<g>
			<path style="fill:#D1D4D1;" d="M379.236,302.61l-13.33-11.564c-12.368-10.664-30.431-11.467-43.697-1.942v-6.621h-1.236
				c23.178-0.006,45.198-10.129,60.292-27.719l2.825-3.266c16.583-19.353,22.886-45.482,16.949-70.268l-9.357-38.93l-19.509-81.39
				C363.577,25.172,331.602-0.014,294.844,0H155.368c-36.758-0.013-68.732,25.172-77.329,60.91L58.53,142.212v0.088l-9.357,38.93
				c-5.937,24.785,0.366,50.914,16.949,70.268l2.825,3.266c15.094,17.589,37.115,27.713,60.292,27.719h-1.236v6.621
				c-13.265-9.527-31.329-8.724-43.697,1.942l-13.33,11.564L30.9,337.214c9.169,10.643,22.195,17.201,36.205,18.228
				c14.01,1.027,27.853-3.562,38.476-12.755l22.422-19.332v20.392c-0.009,6.137,1.605,12.167,4.679,17.479l25.512,44.756
				c3.138,5.524,9.007,8.931,15.36,8.916h-1.412v17.655c-0.028,13.947,10.799,25.508,24.717,26.394v0.088
				c0,0-28.248,26.483,28.248,52.966c54.466-25.512,30.19-51.023,28.337-52.877l0.177-0.177
				c13.809-1.029,24.479-12.547,24.452-26.394v-17.655h-1.324c6.33,0.013,12.171-3.398,15.272-8.916l25.512-44.756
				c3.073-5.312,4.687-11.342,4.679-17.479v-20.392l22.422,19.332c10.622,9.194,24.465,13.784,38.476,12.757
				c14.011-1.027,27.037-7.586,36.205-18.23L379.236,302.61z"/>
			<path style="fill:#D1D4D1;" d="M128,289.103v34.251l-22.422,19.332c-10.623,9.193-24.466,13.782-38.476,12.755
				c-14.01-1.027-27.037-7.585-36.205-18.228l40.077-34.604l13.33-11.564C96.67,280.38,114.735,279.577,128,289.103z"/>
			<path style="fill:#D1D4D1;" d="M419.31,337.214c-9.168,10.644-22.194,17.204-36.205,18.23s-27.854-3.563-38.476-12.757
				l-22.422-19.332v-34.251c13.265-9.525,31.329-8.722,43.697,1.942l13.33,11.564L419.31,337.214z"/>
		</g>
		<path style="fill:#95A5A5;" d="M322.207,282.483l0,61.263c0.009,6.137-1.605,12.167-4.679,17.479l-25.512,44.756
			c-3.1,5.518-8.942,8.929-15.272,8.916H173.55c-6.353,0.015-12.222-3.392-15.36-8.916l-25.512-44.756
			c-3.073-5.312-4.687-11.342-4.679-17.479l0-61.263H322.207z"/>
		<path style="fill:#D1D4D1;" d="M278.069,414.897l0,17.655c0.027,13.847-10.643,25.365-24.452,26.395h-0.265
			c-0.585,0.073-1.176,0.103-1.766,0.088H198.62c-0.59,0.015-1.18-0.015-1.766-0.088c-13.918-0.886-24.745-12.448-24.717-26.395
			l0-17.655H278.069z"/>
		<path style="fill:#CC4B4C;" d="M225.103,512c-56.497-26.483-28.248-52.966-28.248-52.966v-0.088
			c0.585,0.073,1.176,0.103,1.766,0.088h52.966c0.59,0.015,1.18-0.015,1.766-0.088h0.265l-0.177,0.177
			C255.294,460.977,279.569,486.488,225.103,512z"/>
		<path style="fill:#A5A5A4;" d="M128,289.103v34.251l-22.422,19.332L70.974,302.61l13.33-11.564
			C96.67,280.38,114.735,279.577,128,289.103z"/>
		<path style="fill:#2C2F38;" d="M384.088,251.498l-2.825,3.266c-14.822,17.252-36.315,27.34-59.056,27.719H128
			c-22.741-0.379-44.234-10.467-59.056-27.719l-2.825-3.266c-16.583-19.353-22.886-45.482-16.948-70.268l9.357-38.93v-0.088
			l19.51-81.302C86.633,25.172,118.608-0.014,155.365,0h139.476c36.757-0.014,68.732,25.172,77.329,60.91l19.51,81.39l9.357,38.93
			C406.974,206.016,400.671,232.145,384.088,251.498z"/>
	</g>
	<g transform="translate(9 4)">
		<g>
			<path style="fill:#7F8C8D;" d="M224.931,278.483v35.31c0,4.875-3.952,8.828-8.828,8.828s-8.828-3.952-8.828-8.828v-35.31H224.931
				z"/>
			<path style="fill:#7F8C8D;" d="M224.931,366.759v44.138h-17.655v-44.138c0-4.875,3.952-8.828,8.828-8.828
				S224.931,361.883,224.931,366.759z"/>
			<path style="fill:#7F8C8D;" d="M286.724,278.483v52.966c0.014,16.101-10.887,30.163-26.483,34.163
				c-2.875,0.788-5.846,1.174-8.828,1.148h-15.625c-4.875,0-8.828-3.952-8.828-8.828s3.952-8.828,8.828-8.828h15.625
				c9.739-0.029,17.627-7.916,17.655-17.655v-52.966H286.724z"/>
			<path style="fill:#7F8C8D;" d="M205.245,357.931c-0.015,4.869-3.958,8.813-8.828,8.828h-15.625
				c-2.981,0.027-5.952-0.359-8.828-1.148c-15.596-4-26.497-18.062-26.483-34.163l0-52.966h17.655v52.966
				c0.029,9.739,7.916,17.627,17.655,17.655h15.625C201.287,349.118,205.231,353.062,205.245,357.931z"/>
			<path style="fill:#7F8C8D;" d="M260.241,357.931v52.966h-17.655v-44.138h-6.797c-4.875,0-8.828-3.952-8.828-8.828
				s3.952-8.828,8.828-8.828h15.625C256.283,349.118,260.227,353.062,260.241,357.931z"/>
			<path style="fill:#7F8C8D;" d="M205.245,357.931c-0.015,4.869-3.958,8.813-8.828,8.828h-6.797v44.138h-17.655v-52.966
				c0.015-4.869,3.958-8.813,8.828-8.828h15.625C201.287,349.118,205.231,353.062,205.245,357.931z"/>
		</g>
		<path style="fill:#D1D4D1;" d="M216.103,375.586c-19.501,0-35.31-15.809-35.31-35.31c0-19.501,15.809-35.31,35.31-35.31
			s35.31,15.809,35.31,35.31C251.391,359.768,235.595,375.564,216.103,375.586z M216.103,322.621
			c-9.751,0-17.655,7.905-17.655,17.655s7.904,17.655,17.655,17.655s17.655-7.904,17.655-17.655
			C233.749,330.529,225.85,322.63,216.103,322.621z"/>
		<path style="fill:#A5A5A4;" d="M370.233,298.61l-34.604,40.077l-22.422-19.332v-34.251c13.265-9.525,31.329-8.722,43.697,1.942
			L370.233,298.61z"/>
		<path style="fill:#F0C419;" d="M171.965,106.345c0,12.188-9.881,22.069-22.069,22.069s-22.069-9.881-22.069-22.069
			s9.881-13.241,22.069-13.241S171.965,94.156,171.965,106.345z"/>
		<path style="fill:#65DDB9;" d="M117.396,78.621c-3.035-0.007-5.852-1.575-7.458-4.149c-1.606-2.575-1.775-5.795-0.447-8.523
			c0.621-1.259,15.647-30.729,56.422-25.125c3.128,0.421,5.794,2.48,6.991,5.401c1.197,2.921,0.743,6.259-1.191,8.754
			c-1.934,2.495-5.052,3.767-8.18,3.337c-27.828-3.793-37.828,14.72-38.241,15.509C123.762,76.771,120.718,78.62,117.396,78.621z"/>
		<path style="fill:#F0C419;" d="M260.241,106.345c0,12.188,9.881,22.069,22.069,22.069s22.069-9.881,22.069-22.069
			s-9.881-13.241-22.069-13.241C270.122,93.103,260.241,94.156,260.241,106.345z"/>
		<path style="fill:#65DDB9;" d="M314.801,78.672c-3.339,0.002-6.393-1.877-7.897-4.858c-0.465-0.897-10.466-19.293-38.233-15.5
			c-3.127,0.43-6.246-0.842-8.18-3.337s-2.388-5.833-1.191-8.754c1.197-2.921,3.863-4.98,6.991-5.401
			c40.733-5.612,55.802,23.862,56.422,25.125c2.151,4.374,0.348,9.664-4.026,11.815C317.481,78.363,316.15,78.674,314.801,78.672z"
			/>
		<path style="fill:#B49ACA;" d="M207.267,243.172c-4.448-0.006-8.197-3.321-8.748-7.734s2.266-8.548,6.576-9.649l31.836-8.099
			l-10.517-5.039c-5.691-2.115-9.466-7.546-9.466-13.617c0-6.071,3.775-11.502,9.466-13.617l10.543-5.03l-31.862-8.108
			c-4.725-1.205-7.58-6.012-6.375-10.737c1.205-4.725,6.012-7.58,10.737-6.375l37.155,9.457c7.013,1.227,12.466,6.784,13.56,13.819
			c0.404,6.475-3.381,12.481-9.397,14.91l-11.88,5.672l11.879,5.69c6.016,2.429,9.801,8.435,9.397,14.91
			c-1.094,7.035-6.547,12.592-13.56,13.819l-37.155,9.457C208.74,243.082,208.005,243.173,207.267,243.172z"/>
		<path style="fill:#FF5364;" d="M472.103,178.29c0.027,5.494-1.085,10.935-3.266,15.978l-1.236,2.295l-71.592,80.419
			c-0.846,0.968-2.069,1.523-3.354,1.523s-2.508-0.555-3.354-1.523l-18.184-20.392l-2.119-2.295l-2.472-2.825l-48.817-54.908
			l-1.236-2.295c-2.181-5.043-3.293-10.484-3.267-15.978c-0.009-5.493,1.103-10.929,3.266-15.978
			c2.021-4.864,4.992-9.276,8.739-12.977c3.658-3.821,8.08-6.829,12.977-8.828c17.053-7.318,36.898-2.075,48.11,12.712
			c2.545,3.447,4.677,7.18,6.355,11.123c2.318-5.54,5.606-10.623,9.71-15.007c3.69-3.783,8.103-6.785,12.977-8.828
			c3.088-1.374,6.358-2.296,9.709-2.737c0.619-0.088,1.149-0.177,1.766-0.265c1.464-0.179,2.938-0.267,4.414-0.265
			c5.465-0.018,10.874,1.094,15.889,3.266c4.898,1.998,9.32,5.006,12.977,8.828c3.748,3.701,6.719,8.113,8.739,12.977
			C471.001,167.36,472.112,172.797,472.103,178.29z"/>
	</g>
</g>
<g>
</g>
<g>
</g>
<g>
</g>
<g>
</g>
<g>
</g>
<g>
</g>
<g>
</g>
<g>
</g>
<g>
</g>
<g>
</g>
<g>
</g>
<g>
</g>
<g>
</g>
<g>
</g>
<g>
</g>
</svg>
