<?xml version="1.0" encoding="iso-8859-1"?>
<!-- Generator: Adobe Illustrator 19.0.0, SVG Export Plug-In . SVG Version: 6.00 Build 0)  -->
<svg version="1.1" id="Capa_1" xmlns="http://www.w3.org/2000/svg" xmlns:xlink="http://www.w3.org/1999/xlink" x="0px" y="0px"
	 viewBox="0 0 512 512" style="enable-background:new 0 0 512 512;" xml:space="preserve">
<g>
	<g>
		<g>
			<path style="fill:#D1D4D1;" d="M410.131,302.61l-13.33-11.564c-12.368-10.664-30.431-11.467-43.697-1.942v-6.621h-1.236
				c23.178-0.006,45.198-10.129,60.292-27.719l2.825-3.266c16.583-19.353,22.886-45.482,16.949-70.268l-9.357-38.93l-19.509-81.39
				C394.472,25.172,362.497-0.014,325.739,0H186.263c-36.758-0.013-68.732,25.172-77.329,60.91l-19.509,81.302v0.088l-9.357,38.93
				c-5.937,24.785,0.366,50.914,16.949,70.268l2.825,3.266c15.094,17.589,37.115,27.713,60.292,27.719h-1.236v6.621
				c-13.265-9.527-31.329-8.724-43.697,1.942l-13.33,11.564l-40.077,34.604C70.964,347.857,83.99,354.415,98,355.442
				c14.01,1.027,27.853-3.562,38.476-12.755l22.422-19.332v20.392c-0.009,6.137,1.605,12.167,4.679,17.479l25.512,44.756
				c3.138,5.524,9.007,8.931,15.36,8.916h-1.412v17.655c-0.028,13.947,10.799,25.508,24.717,26.394v0.088
				c0,0-28.248,26.483,28.248,52.966c54.466-25.512,30.19-51.023,28.337-52.877l0.177-0.177
				c13.809-1.029,24.479-12.547,24.452-26.394v-17.655h-1.324c6.33,0.013,12.171-3.398,15.272-8.916l25.512-44.756
				c3.073-5.312,4.687-11.342,4.679-17.479v-20.392l22.422,19.332c10.622,9.194,24.465,13.784,38.476,12.757
				c14.011-1.027,27.037-7.586,36.205-18.23L410.131,302.61z"/>
			<path style="fill:#D1D4D1;" d="M158.895,289.103v34.251l-22.422,19.332c-10.623,9.193-24.466,13.782-38.476,12.755
				c-14.01-1.027-27.037-7.585-36.205-18.228l40.077-34.604l13.33-11.564C127.565,280.38,145.63,279.577,158.895,289.103z"/>
			<path style="fill:#D1D4D1;" d="M450.205,337.214c-9.168,10.644-22.194,17.204-36.205,18.23s-27.854-3.563-38.476-12.757
				l-22.422-19.332v-34.251c13.265-9.525,31.329-8.722,43.697,1.942l13.33,11.564L450.205,337.214z"/>
		</g>
		<path style="fill:#2C2F38;" d="M422.575,142.301c-3.09,32.486-15.537,96.044-64.088,96.044c-65.236,0-46.61-17.655-102.488-17.655
			s-37.252,17.655-102.488,17.655c-48.552,0-60.999-63.559-64.088-96.044v-0.088l19.509-81.302
			C117.528,25.172,149.503-0.014,186.26,0h139.476c36.758-0.014,68.733,25.172,77.33,60.91L422.575,142.301z"/>
		<path style="fill:#95A5A5;" d="M353.102,282.483l0,61.263c0.009,6.137-1.605,12.167-4.679,17.479l-25.512,44.756
			c-3.1,5.518-8.942,8.929-15.272,8.916H204.445c-6.353,0.015-12.222-3.392-15.36-8.916l-25.512-44.756
			c-3.073-5.312-4.687-11.342-4.679-17.479l0-61.263H353.102z"/>
		<path style="fill:#D1D4D1;" d="M308.964,414.897l0,17.655c0.027,13.847-10.643,25.365-24.452,26.395h-0.265
			c-0.585,0.073-1.176,0.103-1.766,0.088h-52.966c-0.59,0.015-1.18-0.015-1.766-0.088c-13.918-0.886-24.745-12.448-24.717-26.395
			l0-17.655H308.964z"/>
		<path style="fill:#CC4B4C;" d="M255.998,512c-56.497-26.483-28.248-52.966-28.248-52.966v-0.088
			c0.585,0.073,1.176,0.103,1.766,0.088h52.966c0.59,0.015,1.18-0.015,1.766-0.088h0.265l-0.177,0.177
			C286.189,460.977,310.464,486.488,255.998,512z"/>
		<path style="fill:#A5A5A4;" d="M158.895,289.103v34.251l-22.422,19.332l-34.604-40.077l13.33-11.564
			C127.565,280.38,145.63,279.577,158.895,289.103z"/>
	</g>
	<g transform="translate(9 2)">
		<g>
			<path style="fill:#7F8C8D;" d="M255.826,280.483v35.31c0,4.875-3.952,8.828-8.828,8.828s-8.828-3.952-8.828-8.828v-35.31H255.826
				z"/>
			<path style="fill:#7F8C8D;" d="M255.826,368.759v44.138h-17.655v-44.138c0-4.875,3.952-8.828,8.828-8.828
				S255.826,363.883,255.826,368.759z"/>
			<path style="fill:#7F8C8D;" d="M317.619,280.483v52.966c0.014,16.101-10.887,30.163-26.483,34.163
				c-2.875,0.788-5.846,1.174-8.828,1.148h-15.625c-4.875,0-8.828-3.952-8.828-8.828s3.952-8.828,8.828-8.828h15.625
				c9.739-0.029,17.626-7.916,17.655-17.655v-52.966H317.619z"/>
			<path style="fill:#7F8C8D;" d="M236.14,359.931c-0.015,4.869-3.958,8.813-8.828,8.828h-15.625
				c-2.981,0.027-5.952-0.359-8.828-1.148c-15.596-4-26.497-18.062-26.483-34.163l0-52.966h17.655v52.966
				c0.029,9.739,7.916,17.627,17.655,17.655h15.625C232.182,351.118,236.126,355.062,236.14,359.931z"/>
			<path style="fill:#7F8C8D;" d="M291.136,359.931v52.966h-17.655v-44.138h-6.797c-4.875,0-8.828-3.952-8.828-8.828
				s3.952-8.828,8.828-8.828h15.625C287.178,351.118,291.122,355.062,291.136,359.931z"/>
			<path style="fill:#7F8C8D;" d="M236.14,359.931c-0.015,4.869-3.958,8.813-8.828,8.828h-6.797v44.138H202.86v-52.966
				c0.015-4.869,3.958-8.813,8.828-8.828h15.625C232.182,351.118,236.126,355.062,236.14,359.931z"/>
		</g>
		<path style="fill:#D1D4D1;" d="M246.998,377.586c-19.501,0-35.31-15.809-35.31-35.31c0-19.501,15.809-35.31,35.31-35.31
			s35.31,15.809,35.31,35.31C282.286,361.768,266.49,377.564,246.998,377.586z M246.998,324.621
			c-9.751,0-17.655,7.905-17.655,17.655s7.904,17.655,17.655,17.655s17.655-7.904,17.655-17.655
			C264.644,332.529,256.745,324.63,246.998,324.621z"/>
		<path style="fill:#A5A5A4;" d="M401.128,300.61l-34.604,40.077l-22.422-19.332v-34.251c13.265-9.525,31.329-8.722,43.697,1.942
			L401.128,300.61z"/>
		<path style="fill:#F0785A;" d="M146.408,62.608c-3.06-0.004-5.898-1.596-7.499-4.204c-1.6-2.608-1.733-5.86-0.351-8.589
			c0.638-1.246,16.073-30.466,56.797-24.272c4.812,0.739,8.118,5.235,7.388,10.049S197.525,43.72,192.71,43
			c-27.845-4.254-38.052,14.142-38.47,14.927C152.689,60.809,149.681,62.607,146.408,62.608z"/>
		<path style="fill:#2FA8CC;" d="M211.688,103.931c-4.875,0-8.828-3.952-8.828-8.828c0-9.751-7.904-17.655-17.655-17.655
			c-9.751,0-17.655,7.904-17.655,17.655c0,4.875-3.952,8.828-8.828,8.828c-4.875,0-8.828-3.952-8.828-8.828
			c0-19.501,15.809-35.31,35.31-35.31s35.31,15.809,35.31,35.31c0,2.341-0.93,4.587-2.586,6.242S214.029,103.931,211.688,103.931z"
			/>
		<path style="fill:#F0785A;" d="M347.584,62.44c-3.29,0.003-6.309-1.825-7.832-4.741c-0.496-0.905-10.759-19.116-38.465-14.918
			c-4.815,0.72-9.305-2.594-10.035-7.408s2.576-9.31,7.388-10.049c40.72-6.224,56.155,23.026,56.797,24.272
			c1.399,2.735,1.274,6.001-0.328,8.623S350.657,62.438,347.584,62.44z"/>
		<path style="fill:#2FA8CC;" d="M335.274,103.711c-4.875,0-8.828-3.952-8.828-8.828c0-9.751-7.904-17.655-17.655-17.655
			c-9.751,0-17.655,7.904-17.655,17.655c0,4.875-3.952,8.828-8.828,8.828c-4.875,0-8.828-3.952-8.828-8.828
			c0-19.501,15.809-35.31,35.31-35.31c19.501,0,35.31,15.809,35.31,35.31C344.102,99.759,340.149,103.711,335.274,103.711z"/>
		<path style="fill:#F0C419;" d="M307.466,130.414c3.044,0.351,5.768,2.053,7.418,4.635c1.65,2.581,2.051,5.768,1.092,8.678
			c-6.958,27.729-35.198,48.48-68.977,48.48s-62.019-20.752-68.978-48.48c-0.959-2.91-0.558-6.097,1.092-8.678
			c1.65-2.581,4.374-4.283,7.418-4.634H307.466z"/>
	</g>
</g>
<g>
</g>
<g>
</g>
<g>
</g>
<g>
</g>
<g>
</g>
<g>
</g>
<g>
</g>
<g>
</g>
<g>
</g>
<g>
</g>
<g>
</g>
<g>
</g>
<g>
</g>
<g>
</g>
<g>
</g>
</svg>
