<?xml version="1.0" encoding="iso-8859-1"?>
<!-- Generator: Adobe Illustrator 19.0.0, SVG Export Plug-In . SVG Version: 6.00 Build 0)  -->
<svg version="1.1" id="Capa_1" xmlns="http://www.w3.org/2000/svg" xmlns:xlink="http://www.w3.org/1999/xlink" x="0px" y="0px"
	 viewBox="0 0 512 512" style="enable-background:new 0 0 512 512;" xml:space="preserve">
<g>
	<g>
		<g>
			<path style="fill:#D1D4D1;" d="M410.131,302.61l-13.33-11.564c-12.368-10.664-30.431-11.467-43.697-1.942v-6.621h-1.236
				c23.178-0.006,45.198-10.129,60.292-27.719l2.825-3.266c16.583-19.353,22.886-45.482,16.949-70.268l-9.357-38.93l-19.509-81.39
				C394.472,25.172,362.497-0.014,325.739,0H186.263c-36.758-0.013-68.732,25.172-77.329,60.91l-19.509,81.302v0.088l-9.357,38.93
				c-5.937,24.785,0.366,50.914,16.949,70.268l2.825,3.266c15.094,17.589,37.115,27.713,60.292,27.719h-1.236v6.621
				c-13.265-9.527-31.329-8.724-43.697,1.942l-13.33,11.564l-40.077,34.604C70.964,347.857,83.99,354.415,98,355.442
				c14.01,1.027,27.853-3.562,38.476-12.755l22.422-19.332v20.392c-0.009,6.137,1.605,12.167,4.679,17.479l25.512,44.756
				c3.138,5.524,9.007,8.931,15.36,8.916h-1.412v17.655c-0.028,13.947,10.799,25.508,24.717,26.394v0.088
				c0,0-28.248,26.483,28.248,52.966c54.466-25.512,30.19-51.023,28.337-52.877l0.177-0.177
				c13.809-1.029,24.479-12.547,24.452-26.394v-17.655h-1.324c6.33,0.013,12.171-3.398,15.272-8.916l25.512-44.756
				c3.073-5.312,4.687-11.342,4.679-17.479v-20.392l22.422,19.332c10.622,9.194,24.465,13.784,38.476,12.757
				c14.011-1.027,27.037-7.586,36.205-18.23L410.131,302.61z"/>
			<path style="fill:#D1D4D1;" d="M158.895,289.103v34.251l-22.422,19.332c-10.623,9.193-24.466,13.782-38.476,12.755
				c-14.01-1.027-27.037-7.585-36.205-18.228l40.077-34.604l13.33-11.564C127.565,280.38,145.63,279.577,158.895,289.103z"/>
			<path style="fill:#D1D4D1;" d="M450.205,337.214c-9.168,10.644-22.194,17.204-36.205,18.23s-27.854-3.563-38.476-12.757
				l-22.422-19.332v-34.251c13.265-9.525,31.329-8.722,43.697,1.942l13.33,11.564L450.205,337.214z"/>
		</g>
		<path style="fill:#2C2F38;" d="M422.575,142.301c-3.09,32.486-15.537,96.044-64.088,96.044c-65.236,0-46.61-17.655-102.488-17.655
			s-37.252,17.655-102.488,17.655c-48.552,0-60.999-63.559-64.088-96.044v-0.088l19.509-81.302
			C117.528,25.172,149.503-0.014,186.26,0h139.476c36.758-0.014,68.733,25.172,77.33,60.91L422.575,142.301z"/>
		<path style="fill:#95A5A5;" d="M353.102,282.483l0,61.263c0.009,6.137-1.605,12.167-4.679,17.479l-25.512,44.756
			c-3.1,5.518-8.942,8.929-15.272,8.916H204.445c-6.353,0.015-12.222-3.392-15.36-8.916l-25.512-44.756
			c-3.073-5.312-4.687-11.342-4.679-17.479l0-61.263H353.102z"/>
		<path style="fill:#D1D4D1;" d="M308.964,414.897l0,17.655c0.027,13.847-10.643,25.365-24.452,26.395h-0.265
			c-0.585,0.073-1.176,0.103-1.766,0.088h-52.966c-0.59,0.015-1.18-0.015-1.766-0.088c-13.918-0.886-24.745-12.448-24.717-26.395
			l0-17.655H308.964z"/>
		<path style="fill:#CC4B4C;" d="M255.998,512c-56.497-26.483-28.248-52.966-28.248-52.966v-0.088
			c0.585,0.073,1.176,0.103,1.766,0.088h52.966c0.59,0.015,1.18-0.015,1.766-0.088h0.265l-0.177,0.177
			C286.189,460.977,310.464,486.488,255.998,512z"/>
		<path style="fill:#A5A5A4;" d="M158.895,289.103v34.251l-22.422,19.332l-34.604-40.077l13.33-11.564
			C127.565,280.38,145.63,279.577,158.895,289.103z"/>
	</g>
	<g transform="translate(8 5)">
		<g>
			<path style="fill:#7F8C8D;" d="M256.826,277.483v35.31c0,4.875-3.952,8.828-8.828,8.828s-8.828-3.952-8.828-8.828v-35.31H256.826
				z"/>
			<path style="fill:#7F8C8D;" d="M256.826,365.759v44.138h-17.655v-44.138c0-4.875,3.952-8.828,8.828-8.828
				S256.826,360.883,256.826,365.759z"/>
			<path style="fill:#7F8C8D;" d="M318.619,277.483v52.966c0.014,16.101-10.887,30.163-26.483,34.163
				c-2.875,0.788-5.846,1.174-8.828,1.148h-15.625c-4.875,0-8.828-3.952-8.828-8.828s3.952-8.828,8.828-8.828h15.625
				c9.739-0.029,17.626-7.916,17.655-17.655v-52.966H318.619z"/>
			<path style="fill:#7F8C8D;" d="M237.14,356.931c-0.015,4.869-3.958,8.813-8.828,8.828h-15.625
				c-2.981,0.027-5.952-0.359-8.828-1.148c-15.596-4-26.497-18.062-26.483-34.163l0-52.966h17.655v52.966
				c0.029,9.739,7.916,17.627,17.655,17.655h15.625C233.182,348.118,237.126,352.062,237.14,356.931z"/>
			<path style="fill:#7F8C8D;" d="M292.136,356.931v52.966h-17.655v-44.138h-6.797c-4.875,0-8.828-3.952-8.828-8.828
				s3.952-8.828,8.828-8.828h15.625C288.178,348.118,292.122,352.062,292.136,356.931z"/>
			<path style="fill:#7F8C8D;" d="M237.14,356.931c-0.015,4.869-3.958,8.813-8.828,8.828h-6.797v44.138H203.86v-52.966
				c0.015-4.869,3.958-8.813,8.828-8.828h15.625C233.182,348.118,237.126,352.062,237.14,356.931z"/>
		</g>
		<path style="fill:#D1D4D1;" d="M247.998,374.586c-19.501,0-35.31-15.809-35.31-35.31s15.809-35.31,35.31-35.31
			s35.31,15.809,35.31,35.31C283.286,358.768,267.49,374.564,247.998,374.586z M247.998,321.621
			c-9.751,0-17.655,7.905-17.655,17.655s7.904,17.655,17.655,17.655s17.655-7.904,17.655-17.655
			C265.644,329.529,257.745,321.63,247.998,321.621z"/>
		<path style="fill:#A5A5A4;" d="M402.128,297.61l-34.604,40.077l-22.422-19.332v-34.251c13.265-9.525,31.329-8.722,43.697,1.942
			L402.128,297.61z"/>
		<path style="fill:#FF5364;" d="M187.792,114.172c0,12.188-9.881,22.069-22.069,22.069s-22.069-9.881-22.069-22.069
			c0-12.188,9.881-13.241,22.069-13.241C177.911,100.931,187.792,101.984,187.792,114.172z"/>
		<path style="fill:#ECF0F1;" d="M133.227,86.448c-3.035-0.006-5.854-1.572-7.462-4.147s-1.776-5.796-0.448-8.525
			c0.616-1.254,15.547-30.754,56.427-25.125c4.83,0.659,8.211,5.11,7.552,9.94s-5.11,8.211-9.94,7.552
			c-27.858-3.793-37.819,14.72-38.237,15.509C139.589,84.597,136.546,86.446,133.227,86.448z"/>
		<path style="fill:#FF5364;" d="M308.205,114.172c0,12.188,9.881,22.069,22.069,22.069c12.188,0,22.069-9.881,22.069-22.069
			c0-12.188-9.881-13.241-22.069-13.241C318.085,100.931,308.205,101.984,308.205,114.172z"/>
		<path style="fill:#ECF0F1;" d="M362.766,86.5c-3.338,0.004-6.392-1.876-7.892-4.858c-0.474-0.905-10.474-19.272-38.233-15.5
			c-3.125,0.427-6.239-0.846-8.171-3.339c-1.932-2.493-2.387-5.826-1.194-8.746c1.193-2.919,3.852-4.98,6.977-5.407
			c40.853-5.634,55.806,23.871,56.427,25.125c1.346,2.735,1.186,5.971-0.424,8.559S365.814,86.498,362.766,86.5L362.766,86.5z"/>
		<path style="fill:#65DDB9;" d="M265.541,189.147c-12.894-0.209-25.691-2.282-37.991-6.155c-4.622-1.544-7.119-6.54-5.58-11.163
			c1.539-4.623,6.533-7.126,11.157-5.591c12.961,4.289,49.117,11.698,60.491-5.345c2.721-4.012,8.169-5.078,12.202-2.389
			s5.144,8.128,2.487,12.183C298.671,185.142,281.554,189.147,265.541,189.147z"/>
	</g>
</g>
<g>
</g>
<g>
</g>
<g>
</g>
<g>
</g>
<g>
</g>
<g>
</g>
<g>
</g>
<g>
</g>
<g>
</g>
<g>
</g>
<g>
</g>
<g>
</g>
<g>
</g>
<g>
</g>
<g>
</g>
</svg>
