<?xml version="1.0" encoding="iso-8859-1"?>
<!-- Generator: Adobe Illustrator 19.0.0, SVG Export Plug-In . SVG Version: 6.00 Build 0)  -->
<svg version="1.1" id="Capa_1" xmlns="http://www.w3.org/2000/svg" xmlns:xlink="http://www.w3.org/1999/xlink" x="0px" y="0px"
	 viewBox="0 0 510.367 510.367" style="enable-background:new 0 0 510.367 510.367;" xml:space="preserve">
<g>
	<g>
		<g>
			<path style="fill:#95A5A5;" d="M422.908,166.091l40.604,40.604c2.192,2.193,3.074,5.375,2.322,8.383l-15.268,61.071
				c-0.732,2.928-2.909,5.279-5.772,6.234l-48.368,16.123H113.942l-48.368-16.123c-2.863-0.954-5.04-3.306-5.772-6.234
				l-15.268-61.071c-0.752-3.008,0.129-6.19,2.322-8.383l40.604-40.604H422.908z"/>
			<path style="fill:#95A5A5;" d="M463.512,206.695l-40.604-40.603h-0.598c-1.418-22.661-7.179-44.838-16.969-65.324
				c-5.281-11.061-11.892-21.436-19.686-30.897c-2.119-2.737-4.502-5.385-6.886-8.033c-8.568-9.319-18.029-17.776-28.248-25.247
				c-9.217-6.637-18.96-12.512-29.131-17.567c-14.72-7.428-30.28-13.059-46.345-16.772c-13.041-3.002-26.594-3.002-39.636,0
				c-16.074,3.737-31.657,9.336-46.433,16.684c-10.095,5.059-19.776,10.903-28.954,17.479
				c-10.307,7.529-19.856,16.044-28.513,25.423c-2.383,2.648-4.679,5.297-6.886,8.033c-7.685,9.489-14.26,19.826-19.597,30.808
				c-9.801,20.511-15.549,42.722-16.93,65.412h-0.637l-40.604,40.603c-2.192,2.193-3.074,5.375-2.322,8.383l15.268,61.071
				c0.732,2.928,2.909,5.279,5.772,6.234l48.369,16.123h1.177c2.073,3.272,4.589,6.243,7.474,8.828l27.719,86.422
				c2.176,6.253,7.469,10.909,13.948,12.27c1.798,0.415,3.567,0.946,5.297,1.589l-42.372,76.27v26.483h256v-26.483l-42.372-76.27
				c1.729-0.643,3.499-1.174,5.297-1.589c6.479-1.362,11.771-6.018,13.948-12.27l27.719-86.422c2.896-2.582,5.42-5.553,7.5-8.828
				h1.151l48.369-16.123c2.863-0.954,5.04-3.306,5.772-6.234l15.268-61.071C466.585,212.07,465.704,208.887,463.512,206.695z"/>
		</g>
		<path style="fill:#BDC3C7;" d="M405.341,100.767c-5.281-11.061-11.892-21.436-19.686-30.897c-2.119-2.737-4.502-5.385-6.886-8.033
			c-8.568-9.319-18.029-17.776-28.248-25.247c-9.217-6.637-18.96-12.512-29.131-17.567c-14.72-7.428-30.28-13.059-46.345-16.772
			c-13.041-3.002-26.594-3.002-39.636,0c-16.074,3.737-31.657,9.336-46.433,16.684c-10.095,5.059-19.776,10.903-28.954,17.479
			c-10.307,7.529-19.856,16.044-28.513,25.423c-2.383,2.648-4.679,5.297-6.886,8.033c-7.685,9.489-14.26,19.826-19.597,30.808
			c-12.675,27.019-18.669,56.69-17.479,86.51v1.766c0.225,13.065,1.554,26.088,3.972,38.93c0,0,10.417,61.793,31.073,79.448
			l27.719,86.422c2.176,6.253,7.469,10.909,13.948,12.27c1.798,0.415,3.567,0.946,5.297,1.589l-42.372,76.27v26.483h256v-26.483
			l-42.372-76.27c1.729-0.643,3.499-1.174,5.297-1.589c6.479-1.362,11.771-6.018,13.948-12.27l27.719-86.422
			c20.745-17.655,31.073-79.448,31.073-79.448c2.39-12.844,3.689-25.867,3.884-38.93c-0.034-0.594,0.026-1.19,0.177-1.766
			C424.025,157.393,418.002,127.762,405.341,100.767z"/>
	</g>
	<path style="fill:#A5A5A4;" d="M383.184,483.884v26.483h-44.138c-23.835,0-26.218-71.503-26.483-85.804
		c0.883-0.794,1.766-1.677,2.737-2.472c7.47-6.456,16.139-11.375,25.512-14.477L383.184,483.884z"/>
	<path style="fill:#7F8C8D;" d="M339.046,510.367H171.322c23.923,0,26.218-71.768,26.394-85.892
		c17.832,16.596,19.862,32.309,57.468,32.839c37.517-0.53,39.636-16.243,57.379-32.75
		C312.828,438.864,315.211,510.367,339.046,510.367z"/>
	<path style="fill:#A5A5A4;" d="M197.716,424.475c-0.177,14.124-2.472,85.892-26.394,85.892h-44.138v-26.483l42.372-76.27
		c9.373,3.102,18.042,8.022,25.512,14.477C196.039,422.885,196.922,423.68,197.716,424.475z"/>
	<path style="fill:#D1D4D1;" d="M387.774,307.333l-27.719,86.422c-2.176,6.253-7.469,10.909-13.948,12.27
		c-1.798,0.415-3.567,0.946-5.297,1.589c-9.373,3.102-18.042,8.022-25.512,14.477c-0.971,0.794-1.854,1.677-2.737,2.472
		c-17.743,16.508-19.862,32.221-57.379,32.75c-37.606-0.53-39.636-16.243-57.468-32.839c-0.794-0.794-1.677-1.589-2.648-2.383
		c-7.47-6.456-16.139-11.375-25.512-14.477c-1.729-0.643-3.499-1.174-5.297-1.589c-6.479-1.362-11.771-6.018-13.948-12.27
		l-27.719-86.422l61.97,70.621h10.505l31.073-26.483h58.086l31.073,26.483h10.505L387.774,307.333z"/>
	<path style="fill:#95A5A5;" d="M255.184,298.505c7.967,0,15.934-10.453,19.183-15.273c0.994-1.465,1.525-3.194,1.524-4.965v-29.686
		c0-1.971-0.659-3.885-1.874-5.438l-11.88-15.193c-1.673-2.14-4.238-3.39-6.954-3.39s-5.281,1.25-6.954,3.39l-11.88,15.193
		c-1.214,1.553-1.874,3.467-1.873,5.438v29.686c-0.001,1.77,0.53,3.5,1.524,4.965C239.25,288.052,247.217,298.505,255.184,298.505z"
		/>
	<g>
		<path style="fill:#527F72;" d="M405.341,100.767c-23.217-15.095-61.175-34.074-87.658-16.772
			c-13.241,8.651-19.774,26.836-24.806,45.285c-3.92,14.822-6.112,30.048-6.532,45.374c-1.542,15.825-15.285,27.622-31.161,26.748
			c-7.654,0.077-15.103-2.479-21.098-7.239c-5.987-4.767-9.65-11.867-10.063-19.509c-0.42-15.326-2.612-30.552-6.532-45.374
			c-5.032-18.45-11.564-36.634-24.806-45.285c-26.483-17.39-64.441,1.501-87.658,16.684c5.337-10.983,11.912-21.32,19.597-30.809
			c24.629-10.858,53.672-16.508,77.683-0.706c18.273,11.917,26.306,33.721,32.221,55.437c4.299,16.114,6.699,32.675,7.15,49.346
			c0.252,2.584,1.562,4.949,3.619,6.532c2.82,2.197,6.313,3.351,9.887,3.266c7.239,0,13.33-4.414,13.506-9.799
			c0.502-16.696,2.901-33.281,7.15-49.434c6.003-21.628,14.036-43.432,32.221-55.349c24.011-15.625,53.054-9.975,77.594,0.706
			C393.449,79.331,400.06,89.706,405.341,100.767z"/>
		<path style="fill:#527F72;" d="M350.522,36.591c-4.508-0.878-9.09-1.321-13.683-1.324c-15.082-0.064-29.718,5.116-41.401,14.654
			c-15.503,14.001-26.579,32.226-31.868,52.436c-1.14,3.675-4.539,6.179-8.386,6.179s-7.246-2.505-8.386-6.179
			c-5.287-20.185-16.365-38.382-31.868-52.348c-15.276-12.66-35.49-17.665-54.908-13.594c9.179-6.576,18.86-12.42,28.954-17.479
			c13.592,2.554,26.316,8.506,36.988,17.302c12.62,10.577,22.621,23.931,29.219,39.018c6.622-15.098,16.618-28.476,29.219-39.106
			c10.681-8.747,23.408-14.639,36.988-17.126C331.562,24.078,341.304,29.953,350.522,36.591z"/>
		<path style="fill:#527F72;" d="M106.533,202.125c-2.748-0.001-5.338-1.28-7.01-3.461c-1.671-2.181-2.233-5.015-1.52-7.668
			c4.022-14.94,20.263-48.875,83.871-41.517c3.137,0.357,5.845,2.364,7.1,5.261c1.255,2.897,0.867,6.245-1.018,8.778
			c-1.885,2.533-4.98,3.866-8.116,3.496c-35.681-4.134-58.711,6.009-64.785,28.578C114.011,199.441,110.521,202.117,106.533,202.125
			z"/>
		<path style="fill:#527F72;" d="M293.679,342.647c-2.78-0.002-5.397-1.312-7.065-3.537c-1.668-2.225-2.191-5.104-1.413-7.774
			c7.931-27.103,31.215-26.517,48.207-26.086c10.767,0.276,20.94,0.53,27.021-4.642c2.402-2.044,5.712-2.65,8.683-1.591
			s5.151,3.622,5.72,6.724c0.569,3.102-0.561,6.272-2.963,8.316c-11.22,9.543-25.927,9.168-38.909,8.845
			c-19.405-0.53-27.052,0.53-30.81,13.392C301.047,340.056,297.599,342.643,293.679,342.647z"/>
		<path style="fill:#527F72;" d="M217.003,342.647c-3.92-0.005-7.368-2.591-8.47-6.353c-3.763-12.862-11.44-13.909-30.81-13.392
			c-12.991,0.319-27.694,0.698-38.909-8.845c-3.714-3.159-4.163-8.73-1.004-12.444c3.159-3.714,8.73-4.163,12.444-1.004
			c6.078,5.172,16.259,4.918,27.021,4.642c17.004-0.422,40.276-1.022,48.207,26.086c0.778,2.669,0.254,5.549-1.413,7.774
			S219.783,342.645,217.003,342.647L217.003,342.647z"/>
		<path style="fill:#527F72;" d="M403.748,201.953c-3.989-0.004-7.48-2.682-8.517-6.534c-3.513-13.013-16.603-33.987-64.698-28.397
			c-3.132,0.365-6.221-0.969-8.103-3.499s-2.272-5.872-1.022-8.767c1.25-2.895,3.95-4.903,7.082-5.268
			c63.526-7.431,79.772,26.44,83.789,41.336c0.709,2.653,0.145,5.485-1.526,7.664C409.082,200.668,406.494,201.948,403.748,201.953z
			"/>
	</g>
	<polygon style="fill:#A5A5A4;" points="237.528,377.953 272.839,377.953 290.494,395.608 264.011,422.091 246.356,422.091 
		219.873,395.608 	"/>
	<path style="fill:#46B29D;" d="M192.851,207.067c-49.119-29.935-65.667,3.162-65.667,3.162s0,44.138,35.31,35.31
		c24.07-6.017,31.732-20.239,34.172-28.683C197.73,213.107,196.172,209.107,192.851,207.067z"/>
	<path style="fill:#527F72;" d="M156.71,281.927c-4.564,0.023-9.12-0.395-13.603-1.25c-4.776-0.955-7.877-5.598-6.928-10.375
		s5.589-7.883,10.367-6.94c1.526,0.293,37.823,6.957,52.19-21.772c1.405-2.832,4.216-4.696,7.371-4.889
		c3.155-0.193,6.172,1.316,7.911,3.956c1.739,2.64,1.934,6.007,0.511,8.83C203.134,270.556,180.629,283.182,156.71,281.927z"/>
	<path style="fill:#46B29D;" d="M317.516,207.067c49.119-29.935,65.667,3.162,65.667,3.162s0,44.138-35.31,35.31
		c-24.07-6.017-31.732-20.239-34.172-28.683C312.637,213.107,314.195,209.107,317.516,207.067z"/>
	<path style="fill:#527F72;" d="M353.658,281.927c-23.92,1.257-46.425-11.37-57.819-32.44c-1.423-2.823-1.228-6.19,0.511-8.83
		s4.756-4.148,7.911-3.956c3.155,0.193,5.966,2.057,7.371,4.889c14.358,28.728,50.66,22.06,52.19,21.772
		c4.779-0.944,9.418,2.162,10.367,6.939c0.949,4.777-2.151,9.421-6.928,10.375C362.778,281.532,358.222,281.951,353.658,281.927z"/>
</g>
<g>
</g>
<g>
</g>
<g>
</g>
<g>
</g>
<g>
</g>
<g>
</g>
<g>
</g>
<g>
</g>
<g>
</g>
<g>
</g>
<g>
</g>
<g>
</g>
<g>
</g>
<g>
</g>
<g>
</g>
</svg>
