<?xml version="1.0" encoding="iso-8859-1"?>
<!-- Generator: Adobe Illustrator 19.0.0, SVG Export Plug-In . SVG Version: 6.00 Build 0)  -->
<svg version="1.1" id="Capa_1" xmlns="http://www.w3.org/2000/svg" xmlns:xlink="http://www.w3.org/1999/xlink" x="0px" y="0px"
	 viewBox="0 0 495.795 495.795" style="enable-background:new 0 0 495.795 495.795;" xml:space="preserve">
<g>
	<path style="fill:#3F5C6C;" d="M495.279,330.754c-0.427,8.875-1.109,18.859-2.304,29.525c-2.208,21.45-6.291,42.665-12.203,63.403
		c-12.922,42.422-51.995,71.459-96.341,71.595c-0.451,0.071-0.909,0.099-1.365,0.085H112.73c-0.457,0.014-0.914-0.014-1.365-0.085
		c-44.346-0.136-83.42-29.173-96.341-71.595C9.112,402.945,5.028,381.73,2.82,360.28c-1.195-10.667-1.877-20.651-2.304-29.525
		c-1.109-24.064-0.085-40.277-0.085-40.277c0-34.048,25.6-34.048,25.6-34.048h443.733c0,0,25.6,0,25.6,34.048
		C495.364,290.477,496.388,306.69,495.279,330.754z"/>
	<path style="fill:#B0D3F0;" d="M162.65,365.058c-41.566-10.732-80.032-31.076-112.299-59.392
		c-16.48-14.732-24.918-36.46-22.699-58.453C41.391,110.082,140.122,41.133,200.623,11.437c29.808-14.677,64.742-14.677,94.549,0
		c60.501,29.696,159.232,98.645,172.971,235.776c2.219,21.993-6.218,43.721-22.699,58.453
		c-32.267,28.316-70.732,48.66-112.299,59.392"/>
	<path style="fill:#35495E;" d="M410.031,179.629c0,51.841-72.59,93.867-162.133,93.867S85.764,231.47,85.764,179.629
		s72.59-119.467,162.133-119.467S410.031,127.788,410.031,179.629z"/>
	<g>
		<path style="fill:#FF5364;" d="M213.764,299.096h68.267c28.277,0,51.2,22.923,51.2,51.2v8.533c0,28.277-22.923,51.2-51.2,51.2
			h-68.267c-28.277,0-51.2-22.923-51.2-51.2v-8.533C162.564,322.019,185.487,299.096,213.764,299.096z"/>
		<path style="fill:#DF4D60;" d="M299.098,350.296v8.533c0,9.426-7.641,17.067-17.067,17.067h-68.267
			c-9.426,0-17.067-7.641-17.067-17.067v-8.533c0-9.426,7.641-17.067,17.067-17.067h68.267
			C291.457,333.229,299.098,340.87,299.098,350.296z"/>
	</g>
	<g>
		<path style="fill:#ECF0F1;" d="M77.231,230.829c0,0-17.067,17.067-17.067,34.133c18.429,27.727,45.389,48.696,76.8,59.733
			c5.879-10.829,14.771-19.721,25.6-25.6C162.564,299.096,102.831,282.029,77.231,230.829z"/>
		<path style="fill:#ECF0F1;" d="M418.564,230.829c0,0,17.067,17.067,17.067,34.133c-18.429,27.727-45.389,48.696-76.8,59.733
			c-5.879-10.829-14.771-19.721-25.6-25.6C333.231,299.096,392.964,282.029,418.564,230.829z"/>
	</g>
	<g>
		<g>
			<path style="fill:#41767F;" d="M128.431,445.272v50.091H112.73c-0.457,0.014-0.914-0.014-1.365-0.085v-50.005
				c-0.154-15.432-10.539-28.883-25.429-32.939c-31.87-9.587-60.577-27.566-83.115-52.053c-1.195-10.667-1.877-20.651-2.304-29.525
				c22.309,30.774,53.889,53.592,90.112,65.109C112.823,402.082,128.233,422.224,128.431,445.272z"/>
			<path style="fill:#41767F;" d="M495.279,330.754c-0.427,8.875-1.109,18.859-2.304,29.525
				c-22.538,24.488-51.245,42.466-83.115,52.053c-14.89,4.055-25.275,17.507-25.429,32.939v50.005
				c-0.451,0.071-0.909,0.099-1.365,0.085h-15.701v-50.091c0.198-23.048,15.608-43.19,37.803-49.408
				C441.389,384.346,472.97,361.528,495.279,330.754z"/>
		</g>
		<path style="fill:#2C3E50;" d="M196.698,461.229h102.4c14.138,0,25.6,11.462,25.6,25.6v8.533h-153.6v-8.533
			C171.098,472.691,182.559,461.229,196.698,461.229z"/>
		<g>
			<path style="fill:#2FA8CC;" d="M154.031,136.962c-1.115-0.014-2.216-0.246-3.242-0.683c-1.044-0.413-2-1.021-2.817-1.792
				c-1.56-1.634-2.444-3.799-2.475-6.058c-0.032-1.121,0.203-2.233,0.683-3.246c0.433-1.033,1.039-1.984,1.792-2.813
				c0.816-0.773,1.772-1.383,2.817-1.796c1.526-0.674,3.226-0.852,4.858-0.508c0.566,0.079,1.115,0.25,1.625,0.508
				c0.543,0.188,1.059,0.447,1.533,0.771c0.425,0.341,0.858,0.683,1.283,1.025c0.753,0.829,1.359,1.78,1.792,2.813
				c0.438,1.027,0.67,2.13,0.683,3.246c-0.034,2.259-0.918,4.422-2.475,6.059c-0.425,0.341-0.858,0.683-1.283,1.021
				c-0.475,0.324-0.99,0.583-1.533,0.771c-0.51,0.257-1.059,0.431-1.625,0.512C155.114,136.89,154.573,136.947,154.031,136.962z"/>
			<path style="fill:#2FA8CC;" d="M171.098,119.896c-2.259-0.033-4.422-0.917-6.059-2.475c-0.789-0.802-1.399-1.762-1.792-2.817
				c-0.911-2.067-0.911-4.421,0-6.487c0.809-2.123,2.456-3.819,4.554-4.691c2.098-0.872,4.462-0.842,6.537,0.083
				c1.044,0.415,2,1.024,2.818,1.795c0.772,0.814,1.38,1.769,1.792,2.813c0.438,1.027,0.67,2.13,0.683,3.246
				c0.022,2.27-0.87,4.453-2.475,6.058C175.551,119.026,173.367,119.918,171.098,119.896z"/>
			<path style="fill:#2FA8CC;" d="M171.098,154.029c-3.45-0.014-6.556-2.096-7.879-5.282s-0.606-6.856,1.82-9.31
				c2.472-2.386,6.118-3.09,9.3-1.796c1.044,0.415,2,1.024,2.817,1.796c2.462,2.441,3.201,6.129,1.872,9.331
				C177.699,151.97,174.564,154.049,171.098,154.029z"/>
			<path style="fill:#2FA8CC;" d="M171.098,188.162c-2.27,0.022-4.453-0.87-6.058-2.475c-1.605-1.605-2.497-3.788-2.475-6.058
				c0.018-0.572,0.074-1.143,0.167-1.708c0.096-0.535,0.27-1.053,0.517-1.538c0.185-0.543,0.443-1.059,0.767-1.533
				c0.315-0.447,0.657-0.874,1.025-1.279c3.421-3.158,8.695-3.158,12.117,0c0.341,0.425,0.683,0.85,1.025,1.279
				c0.32,0.476,0.578,0.991,0.767,1.533c0.247,0.483,0.419,1.002,0.508,1.538c0.1,0.565,0.158,1.136,0.175,1.709
				c0.022,2.27-0.87,4.453-2.475,6.058C175.551,187.293,173.367,188.184,171.098,188.162z"/>
			<path style="fill:#2FA8CC;" d="M188.164,136.962c-0.573-0.02-1.143-0.077-1.708-0.171c-0.533-0.095-1.05-0.268-1.533-0.512
				c-0.546-0.187-1.064-0.447-1.542-0.771c-0.446-0.313-0.872-0.654-1.275-1.021c-0.789-0.802-1.399-1.762-1.792-2.817
				c-0.911-2.067-0.911-4.421,0-6.487c0.392-1.054,1.002-2.012,1.792-2.813c2.472-2.386,6.118-3.09,9.3-1.796
				c1.044,0.415,2,1.024,2.817,1.795c0.772,0.814,1.38,1.769,1.792,2.813c0.438,1.027,0.67,2.13,0.683,3.246
				c0.022,2.27-0.87,4.453-2.475,6.058C192.617,136.093,190.434,136.984,188.164,136.962z"/>
			<path style="fill:#2FA8CC;" d="M205.231,154.029c-0.573-0.02-1.143-0.077-1.708-0.171c-0.533-0.095-1.05-0.268-1.533-0.512
				c-0.546-0.187-1.064-0.447-1.542-0.771c-0.425-0.338-0.85-0.679-1.275-1.021c-0.341-0.429-0.683-0.854-1.025-1.279
				c-0.325-0.475-0.582-0.992-0.767-1.538c-0.246-0.485-0.42-1.003-0.517-1.538c-0.097-0.563-0.152-1.133-0.166-1.704
				c0.013-1.116,0.245-2.219,0.683-3.246c0.809-2.123,2.456-3.819,4.554-4.691c2.098-0.872,4.462-0.842,6.537,0.083
				c1.044,0.415,2,1.024,2.817,1.795c0.772,0.814,1.38,1.769,1.792,2.813c0.438,1.027,0.67,2.13,0.683,3.246
				c-0.013,0.572-0.071,1.142-0.175,1.704c-0.09,0.536-0.261,1.054-0.508,1.538c-0.188,0.544-0.445,1.061-0.767,1.538
				c-0.341,0.425-0.683,0.85-1.025,1.279C209.652,153.11,207.489,153.994,205.231,154.029z"/>
			<path style="fill:#2FA8CC;" d="M188.164,171.096c-0.573-0.02-1.143-0.077-1.708-0.171c-0.533-0.095-1.05-0.268-1.533-0.512
				c-0.546-0.187-1.064-0.447-1.542-0.771c-0.425-0.338-0.85-0.679-1.275-1.021c-1.56-1.635-2.444-3.799-2.475-6.059
				c0.013-1.116,0.245-2.219,0.683-3.246c0.412-1.044,1.02-1.998,1.792-2.813l1.275-1.025c0.477-0.324,0.996-0.583,1.542-0.771
				c0.483-0.245,0.999-0.417,1.533-0.508c3.198-0.671,6.498,0.542,8.501,3.124c2.003,2.582,2.356,6.08,0.911,9.011
				C194.422,169.264,191.432,171.113,188.164,171.096z"/>
			<path style="fill:#2FA8CC;" d="M154.031,171.096c-1.115-0.014-2.216-0.246-3.242-0.683c-1.044-0.413-2-1.021-2.817-1.792
				c-1.56-1.634-2.444-3.799-2.475-6.058c-0.032-1.121,0.203-2.233,0.683-3.246c0.78-2.141,2.467-3.828,4.608-4.608
				c1.526-0.674,3.226-0.852,4.858-0.508c0.566,0.079,1.115,0.25,1.625,0.508c0.543,0.188,1.059,0.447,1.533,0.771
				c0.449,0.314,0.878,0.656,1.284,1.024c0.772,0.814,1.38,1.769,1.792,2.813c0.438,1.027,0.67,2.13,0.683,3.246
				c-0.034,2.259-0.918,4.422-2.475,6.059c-0.406,0.367-0.835,0.708-1.283,1.021c-0.475,0.324-0.99,0.583-1.533,0.771
				c-0.51,0.257-1.059,0.431-1.625,0.513C155.114,171.023,154.573,171.08,154.031,171.096z"/>
			<path style="fill:#2FA8CC;" d="M136.964,154.029c-1.119,0.029-2.229-0.205-3.242-0.683c-1.044-0.413-2-1.021-2.817-1.792
				c-0.366-0.407-0.708-0.834-1.025-1.279c-0.325-0.475-0.582-0.992-0.767-1.538c-0.259-0.509-0.433-1.056-0.517-1.621
				c-0.097-0.535-0.152-1.077-0.167-1.62c0.03-2.26,0.914-4.424,2.475-6.059c0.815-0.773,1.772-1.383,2.817-1.796
				c1.526-0.674,3.226-0.852,4.858-0.508c0.566,0.079,1.115,0.25,1.625,0.508c0.543,0.188,1.059,0.447,1.533,0.771
				c0.425,0.341,0.858,0.683,1.283,1.025c1.558,1.636,2.442,3.8,2.475,6.059c-0.013,0.544-0.071,1.086-0.175,1.621
				c-0.077,0.565-0.249,1.113-0.508,1.621c-0.188,0.544-0.445,1.061-0.767,1.538c-0.341,0.425-0.683,0.85-1.025,1.279
				c-0.406,0.367-0.835,0.708-1.283,1.021c-0.475,0.324-0.99,0.583-1.533,0.771c-0.51,0.257-1.059,0.431-1.625,0.513
				C138.047,153.956,137.507,154.013,136.964,154.029z"/>
			<path style="fill:#2FA8CC;" d="M307.631,136.962c-0.573-0.016-1.144-0.073-1.708-0.171c-0.533-0.095-1.05-0.268-1.533-0.512
				c-0.546-0.187-1.064-0.447-1.542-0.771c-0.446-0.313-0.872-0.654-1.275-1.021c-1.56-1.635-2.444-3.799-2.475-6.059
				c-0.032-1.121,0.203-2.233,0.683-3.246c0.433-1.033,1.039-1.984,1.792-2.813c2.472-2.386,6.118-3.09,9.3-1.796
				c1.034,0.435,1.986,1.042,2.817,1.796c0.772,0.814,1.38,1.769,1.792,2.813c0.911,2.067,0.911,4.421,0,6.487
				c-0.393,1.055-1.003,2.014-1.792,2.817C312.052,136.044,309.89,136.927,307.631,136.962z"/>
			<path style="fill:#2FA8CC;" d="M324.698,119.896c-2.259-0.033-4.422-0.917-6.059-2.475c-0.771-0.816-1.379-1.772-1.792-2.817
				c-0.437-1.026-0.669-2.127-0.683-3.242c0.014-2.263,0.9-4.433,2.475-6.059c2.013-2.001,4.892-2.865,7.675-2.304
				c0.566,0.079,1.115,0.25,1.625,0.508c0.524,0.171,1.015,0.432,1.45,0.771c0.508,0.341,0.942,0.683,1.367,1.025
				c3.3,3.365,3.3,8.752,0,12.117c-0.418,0.387-0.876,0.73-1.367,1.021c-0.435,0.339-0.926,0.6-1.45,0.771
				c-0.51,0.257-1.059,0.431-1.625,0.513C325.78,119.823,325.24,119.88,324.698,119.896z"/>
			<path style="fill:#2FA8CC;" d="M324.698,154.029c-2.27,0.022-4.453-0.87-6.058-2.475c-1.605-1.605-2.497-3.788-2.475-6.058
				c0.013-1.116,0.245-2.219,0.683-3.246c0.433-1.033,1.039-1.984,1.792-2.813c2.013-2.001,4.892-2.865,7.675-2.304
				c0.566,0.079,1.115,0.25,1.625,0.508c0.524,0.171,1.015,0.432,1.45,0.771c0.508,0.341,0.942,0.683,1.367,1.025
				c3.3,3.365,3.3,8.752,0,12.117c-0.425,0.341-0.858,0.683-1.367,1.021c-0.435,0.339-0.926,0.6-1.45,0.771
				c-0.51,0.257-1.059,0.431-1.625,0.512C325.781,153.956,325.24,154.014,324.698,154.029z"/>
			<path style="fill:#2FA8CC;" d="M324.698,188.162c-2.259-0.033-4.422-0.917-6.059-2.475c-1.574-1.625-2.461-3.796-2.475-6.059
				c0.013-1.116,0.245-2.219,0.683-3.246c0.412-1.044,1.02-1.998,1.792-2.813c2.013-2.001,4.892-2.865,7.675-2.304
				c0.566,0.079,1.115,0.25,1.625,0.508c0.524,0.171,1.015,0.432,1.45,0.771c0.49,0.293,0.948,0.636,1.367,1.025
				c3.3,3.365,3.3,8.752,0,12.117c-0.425,0.341-0.858,0.683-1.367,1.021c-0.435,0.339-0.926,0.6-1.45,0.771
				c-0.51,0.257-1.059,0.431-1.625,0.513C325.781,188.089,325.24,188.147,324.698,188.162z"/>
			<path style="fill:#2FA8CC;" d="M341.764,136.962c-2.259-0.033-4.422-0.917-6.059-2.475c-1.574-1.625-2.461-3.796-2.475-6.059
				c0.013-1.116,0.245-2.219,0.683-3.246c0.392-1.054,1.002-2.012,1.792-2.813c3.421-3.158,8.695-3.158,12.117,0
				c0.79,0.8,1.4,1.759,1.792,2.813c0.438,1.027,0.67,2.13,0.683,3.246c0.022,2.27-0.87,4.453-2.475,6.058
				C346.217,136.093,344.034,136.984,341.764,136.962z"/>
			<path style="fill:#2FA8CC;" d="M358.831,154.029c-1.115-0.014-2.216-0.246-3.242-0.683c-1.044-0.413-2-1.021-2.817-1.792
				c-3.3-3.365-3.3-8.752,0-12.117c0.815-0.773,1.772-1.383,2.817-1.796c1.557-0.679,3.287-0.857,4.95-0.508
				c0.533,0.093,1.05,0.264,1.533,0.508c0.543,0.188,1.059,0.447,1.533,0.771c0.449,0.315,0.877,0.657,1.284,1.025
				c3.3,3.365,3.3,8.752,0,12.117c-0.406,0.367-0.835,0.708-1.283,1.021c-0.475,0.324-0.99,0.583-1.533,0.771
				c-0.484,0.244-1,0.416-1.533,0.513C359.974,153.952,359.403,154.009,358.831,154.029z"/>
			<path style="fill:#2FA8CC;" d="M341.764,171.096c-2.27,0.022-4.453-0.87-6.058-2.475s-2.497-3.788-2.475-6.058
				c0.013-1.116,0.245-2.219,0.683-3.246c0.412-1.044,1.02-1.998,1.792-2.813c2.451-2.425,6.122-3.134,9.3-1.796
				c1.034,0.435,1.986,1.042,2.817,1.796c0.772,0.814,1.38,1.769,1.792,2.813c0.438,1.027,0.67,2.13,0.683,3.246
				c0.022,2.27-0.87,4.453-2.475,6.058C346.217,170.226,344.034,171.118,341.764,171.096z"/>
			<path style="fill:#2FA8CC;" d="M307.631,171.096c-2.262-0.016-4.432-0.902-6.059-2.475c-3.346-3.346-3.346-8.771,0-12.117
				c3.346-3.346,8.771-3.346,12.117,0c0.753,0.829,1.359,1.78,1.792,2.813c0.438,1.027,0.67,2.13,0.683,3.246
				c-0.034,2.259-0.918,4.422-2.475,6.059c-0.832,0.751-1.784,1.357-2.817,1.792C309.847,170.85,308.746,171.082,307.631,171.096z"
				/>
			<path style="fill:#2FA8CC;" d="M290.564,154.029c-0.573-0.02-1.143-0.077-1.708-0.171c-0.533-0.095-1.05-0.268-1.533-0.512
				c-0.546-0.187-1.064-0.447-1.542-0.771c-0.425-0.338-0.85-0.679-1.275-1.021c-3.313-3.34-3.298-8.73,0.033-12.052
				c3.331-3.322,8.721-3.322,12.052,0c3.331,3.322,3.345,8.712,0.032,12.052c-0.425,0.341-0.858,0.683-1.367,1.021
				c-0.435,0.339-0.926,0.6-1.45,0.771c-0.51,0.257-1.059,0.431-1.625,0.513C291.647,153.957,291.107,154.014,290.564,154.029z"/>
		</g>
		<g>
			<path style="fill:#FF5364;" d="M222.298,247.896c-3.45-0.014-6.556-2.096-7.879-5.282c-1.323-3.187-0.606-6.856,1.82-9.31
				c0.815-0.773,1.772-1.383,2.817-1.796c2.078-0.85,4.406-0.85,6.483,0c1.044,0.415,2,1.024,2.817,1.796
				c1.558,1.636,2.441,3.8,2.475,6.059c-0.014,1.115-0.246,2.216-0.683,3.242c-0.433,1.034-1.039,1.987-1.792,2.817
				C226.718,246.977,224.556,247.861,222.298,247.896z"/>
			<path style="fill:#FF5364;" d="M205.231,230.829c-0.573-0.02-1.143-0.077-1.708-0.171c-0.533-0.095-1.05-0.268-1.533-0.512
				c-0.546-0.187-1.064-0.447-1.542-0.771c-0.425-0.338-0.85-0.679-1.275-1.021c-3.3-3.365-3.3-8.752,0-12.117l1.275-1.025
				c0.477-0.324,0.996-0.583,1.542-0.771c0.483-0.246,1-0.417,1.534-0.509c3.198-0.671,6.498,0.542,8.501,3.124
				c2.003,2.582,2.356,6.08,0.911,9.011C211.489,228.998,208.498,230.846,205.231,230.829z"/>
			<path style="fill:#FF5364;" d="M290.564,230.829c-0.573-0.02-1.143-0.077-1.708-0.171c-0.533-0.095-1.05-0.268-1.533-0.512
				c-0.546-0.187-1.064-0.447-1.542-0.771c-0.425-0.338-0.85-0.679-1.275-1.021c-3.3-3.365-3.3-8.752,0-12.117l1.275-1.025
				c0.477-0.324,0.996-0.583,1.542-0.771c0.483-0.246,1-0.417,1.534-0.509c3.198-0.671,6.498,0.542,8.501,3.124
				c2.003,2.582,2.356,6.08,0.911,9.011C296.822,228.998,293.832,230.846,290.564,230.829z"/>
			<path style="fill:#FF5364;" d="M247.898,256.429c-1.119,0.029-2.229-0.205-3.242-0.683c-2.143-0.777-3.831-2.465-4.608-4.608
				c-0.481-1.012-0.715-2.123-0.684-3.242c0-4.713,3.821-8.533,8.533-8.533s8.533,3.821,8.533,8.533
				c-0.014,1.115-0.246,2.216-0.683,3.242c-0.413,1.044-1.021,2-1.792,2.817c-0.832,0.751-1.784,1.357-2.817,1.792
				C250.127,256.224,249.017,256.458,247.898,256.429z"/>
			<path style="fill:#FF5364;" d="M273.498,247.896c-2.259-0.033-4.422-0.917-6.059-2.475c-0.771-0.816-1.379-1.772-1.792-2.817
				c-0.911-2.067-0.911-4.421,0-6.487c0.392-1.054,1.002-2.012,1.792-2.813c2.471-2.387,6.118-3.092,9.3-1.796
				c1.044,0.415,2,1.024,2.817,1.795c1.558,1.636,2.441,3.8,2.475,6.059c-0.014,1.115-0.246,2.216-0.683,3.242
				c-0.413,1.044-1.021,2-1.792,2.817c-0.832,0.751-1.784,1.357-2.817,1.792C275.727,247.691,274.617,247.925,273.498,247.896z"/>
		</g>
	</g>
</g>
<g>
</g>
<g>
</g>
<g>
</g>
<g>
</g>
<g>
</g>
<g>
</g>
<g>
</g>
<g>
</g>
<g>
</g>
<g>
</g>
<g>
</g>
<g>
</g>
<g>
</g>
<g>
</g>
<g>
</g>
</svg>
