<?xml version="1.0" encoding="iso-8859-1"?>
<!-- Generator: Adobe Illustrator 19.0.0, SVG Export Plug-In . SVG Version: 6.00 Build 0)  -->
<svg version="1.1" id="Capa_1" xmlns="http://www.w3.org/2000/svg" xmlns:xlink="http://www.w3.org/1999/xlink" x="0px" y="0px"
	 viewBox="0 0 495.795 495.795" style="enable-background:new 0 0 495.795 495.795;" xml:space="preserve">
<g>
	<path style="fill:#3F5C6C;" d="M495.279,330.754c-0.427,8.875-1.109,18.859-2.304,29.525c-2.208,21.45-6.291,42.665-12.203,63.403
		c-12.922,42.422-51.995,71.459-96.341,71.595c-0.451,0.071-0.909,0.099-1.365,0.085H112.73c-0.457,0.014-0.914-0.014-1.365-0.085
		c-44.346-0.136-83.42-29.173-96.341-71.595C9.112,402.945,5.028,381.73,2.82,360.28c-1.195-10.667-1.877-20.651-2.304-29.525
		c-1.109-24.064-0.085-40.277-0.085-40.277c0-34.048,25.6-34.048,25.6-34.048h443.733c0,0,25.6,0,25.6,34.048
		C495.364,290.477,496.388,306.69,495.279,330.754z"/>
	<path style="fill:#B0D3F0;" d="M162.65,365.058c-41.566-10.732-80.032-31.076-112.299-59.392
		c-16.48-14.732-24.918-36.46-22.699-58.453C41.391,110.082,140.122,41.133,200.623,11.437c29.808-14.677,64.742-14.677,94.549,0
		c60.501,29.696,159.232,98.645,172.971,235.776c2.219,21.993-6.218,43.721-22.699,58.453
		c-32.267,28.316-70.732,48.66-112.299,59.392"/>
	<path style="fill:#35495E;" d="M410.031,179.629c0,51.841-72.59,93.867-162.133,93.867S85.764,231.47,85.764,179.629
		s72.59-119.467,162.133-119.467S410.031,127.788,410.031,179.629z"/>
	<g>
		<path style="fill:#FF5364;" d="M213.764,299.096h68.267c28.277,0,51.2,22.923,51.2,51.2v8.533c0,28.277-22.923,51.2-51.2,51.2
			h-68.267c-28.277,0-51.2-22.923-51.2-51.2v-8.533C162.564,322.019,185.487,299.096,213.764,299.096z"/>
		<path style="fill:#DF4D60;" d="M299.098,350.296v8.533c0,9.426-7.641,17.067-17.067,17.067h-68.267
			c-9.426,0-17.067-7.641-17.067-17.067v-8.533c0-9.426,7.641-17.067,17.067-17.067h68.267
			C291.457,333.229,299.098,340.87,299.098,350.296z"/>
	</g>
	<g>
		<path style="fill:#ECF0F1;" d="M77.231,230.829c0,0-17.067,17.067-17.067,34.133c18.429,27.727,45.389,48.696,76.8,59.733
			c5.879-10.829,14.771-19.721,25.6-25.6C162.564,299.096,102.831,282.029,77.231,230.829z"/>
		<path style="fill:#ECF0F1;" d="M418.564,230.829c0,0,17.067,17.067,17.067,34.133c-18.429,27.727-45.389,48.696-76.8,59.733
			c-5.879-10.829-14.771-19.721-25.6-25.6C333.231,299.096,392.964,282.029,418.564,230.829z"/>
	</g>
	<g>
		<g>
			<path style="fill:#41767F;" d="M128.431,445.272v50.091H112.73c-0.457,0.014-0.914-0.014-1.365-0.085v-50.005
				c-0.154-15.432-10.539-28.883-25.429-32.939c-31.87-9.587-60.577-27.566-83.115-52.053c-1.195-10.667-1.877-20.651-2.304-29.525
				c22.309,30.774,53.889,53.592,90.112,65.109C112.823,402.082,128.233,422.224,128.431,445.272z"/>
			<path style="fill:#41767F;" d="M495.279,330.754c-0.427,8.875-1.109,18.859-2.304,29.525
				c-22.538,24.488-51.245,42.466-83.115,52.053c-14.89,4.055-25.275,17.507-25.429,32.939v50.005
				c-0.451,0.071-0.909,0.099-1.365,0.085h-15.701v-50.091c0.198-23.048,15.608-43.19,37.803-49.408
				C441.389,384.346,472.97,361.528,495.279,330.754z"/>
		</g>
		<path style="fill:#2C3E50;" d="M196.698,461.229h102.4c14.138,0,25.6,11.462,25.6,25.6v8.533h-153.6v-8.533
			C171.098,472.691,182.559,461.229,196.698,461.229z"/>
		<g>
			<path style="fill:#4482C3;" d="M222.298,230.829c-3.45-0.014-6.556-2.096-7.879-5.282c-1.323-3.187-0.606-6.856,1.82-9.31
				c3.398-3.219,8.719-3.219,12.117,0c2.461,2.441,3.201,6.129,1.872,9.331C228.898,228.77,225.764,230.849,222.298,230.829z"/>
			<path style="fill:#4482C3;" d="M205.231,247.896c-2.27,0.022-4.453-0.87-6.058-2.475c-1.605-1.605-2.497-3.788-2.475-6.058
				c0.013-1.116,0.245-2.219,0.683-3.246c1.094-2.625,3.42-4.535,6.208-5.099c2.787-0.564,5.673,0.293,7.701,2.286
				c3.3,3.365,3.3,8.752,0,12.117c-0.418,0.387-0.877,0.73-1.367,1.021c-0.435,0.339-0.926,0.6-1.45,0.771
				c-0.51,0.257-1.059,0.431-1.625,0.513C206.314,247.823,205.773,247.88,205.231,247.896z"/>
			<path style="fill:#4482C3;" d="M290.564,247.896c-2.259-0.033-4.422-0.917-6.059-2.475c-0.366-0.406-0.708-0.834-1.025-1.279
				c-0.325-0.475-0.582-0.992-0.767-1.538c-0.246-0.485-0.42-1.003-0.517-1.538c-0.138-0.557-0.194-1.131-0.166-1.704
				c0-4.713,3.821-8.533,8.533-8.533c4.713,0,8.533,3.821,8.533,8.533c-0.013,0.572-0.071,1.142-0.175,1.704
				c-0.089,0.536-0.261,1.054-0.508,1.538c-0.188,0.544-0.445,1.061-0.767,1.538c-0.341,0.425-0.683,0.85-1.025,1.279
				C294.985,246.977,292.823,247.861,290.564,247.896z"/>
			<path style="fill:#4482C3;" d="M247.898,222.296c-2.262-0.016-4.432-0.902-6.059-2.475c-3.3-3.365-3.3-8.752,0-12.117
				c2.472-2.385,6.118-3.09,9.3-1.796c1.034,0.435,1.986,1.042,2.817,1.795c3.3,3.365,3.3,8.752,0,12.117
				c-0.832,0.751-1.784,1.357-2.817,1.792C250.114,222.05,249.012,222.282,247.898,222.296z"/>
			<path style="fill:#4482C3;" d="M273.498,230.829c-2.27,0.022-4.453-0.87-6.058-2.475c-1.605-1.605-2.497-3.788-2.475-6.058
				c0.03-2.26,0.914-4.424,2.475-6.059c3.389-3.158,8.644-3.158,12.033,0c1.614,1.606,2.532,3.782,2.559,6.059
				c-0.01,2.28-0.931,4.461-2.558,6.059C277.876,229.922,275.734,230.809,273.498,230.829z"/>
		</g>
		<g>
			<path style="fill:#E64C3C;" d="M171.098,145.496c-4.024-0.039-7.462-2.911-8.218-6.863c-0.756-3.953,1.38-7.89,5.105-9.412
				c3.726-1.522,8.007-0.205,10.235,3.146c2.227,3.352,1.783,7.809-1.063,10.654C175.52,144.579,173.356,145.462,171.098,145.496z"
				/>
			<path style="fill:#E64C3C;" d="M154.031,128.429c-0.573-0.016-1.144-0.073-1.708-0.171c-0.533-0.095-1.05-0.268-1.533-0.513
				c-0.546-0.187-1.064-0.447-1.542-0.771c-0.446-0.313-0.872-0.654-1.275-1.021c-0.771-0.816-1.379-1.772-1.792-2.817
				c-0.437-1.026-0.669-2.127-0.683-3.242c0.03-2.26,0.914-4.424,2.475-6.059c2.471-2.387,6.118-3.092,9.3-1.796
				c1.034,0.435,1.987,1.042,2.817,1.796c2.462,2.441,3.201,6.129,1.872,9.331C160.632,126.37,157.498,128.449,154.031,128.429z"/>
			<path style="fill:#E64C3C;" d="M171.098,179.629c-4.024-0.039-7.462-2.911-8.218-6.863c-0.756-3.953,1.38-7.89,5.105-9.412
				c3.726-1.522,8.007-0.205,10.235,3.146c2.227,3.352,1.783,7.809-1.063,10.654C175.52,178.712,173.356,179.596,171.098,179.629z"
				/>
			<path style="fill:#E64C3C;" d="M205.231,179.629c-1.115-0.014-2.216-0.246-3.242-0.683c-3.251-1.228-5.373-4.375-5.292-7.85
				c0.013-1.116,0.245-2.219,0.683-3.246c0.433-1.033,1.039-1.984,1.792-2.813c2.02-1.989,4.893-2.852,7.675-2.304
				c0.566,0.079,1.115,0.25,1.625,0.508c0.524,0.171,1.015,0.432,1.45,0.771c0.508,0.341,0.942,0.683,1.367,1.025
				c0.753,0.829,1.359,1.78,1.792,2.813c0.438,1.027,0.67,2.13,0.683,3.246c0.022,2.27-0.87,4.453-2.475,6.058
				C209.684,178.759,207.501,179.651,205.231,179.629z"/>
			<path style="fill:#E64C3C;" d="M188.164,196.696c-3.45-0.014-6.556-2.096-7.879-5.282c-1.323-3.187-0.606-6.856,1.82-9.31
				c3.389-3.158,8.644-3.158,12.033,0c1.636,1.591,2.558,3.776,2.558,6.058s-0.923,4.467-2.558,6.058
				c-0.393,0.381-0.823,0.723-1.283,1.021c-0.435,0.339-0.926,0.6-1.45,0.771c-0.51,0.257-1.059,0.431-1.625,0.513
				C189.247,196.623,188.707,196.68,188.164,196.696z"/>
			<path style="fill:#E64C3C;" d="M188.164,162.562c-2.27,0.022-4.453-0.87-6.058-2.475c-1.605-1.605-2.497-3.788-2.475-6.058
				c-0.032-1.121,0.203-2.233,0.683-3.246c0.433-1.033,1.039-1.984,1.792-2.813c2.02-1.989,4.893-2.852,7.675-2.304
				c0.566,0.079,1.115,0.25,1.625,0.508c0.524,0.171,1.015,0.432,1.45,0.771c1.426,0.92,2.529,2.262,3.158,3.838
				c0.438,1.027,0.67,2.13,0.683,3.246C196.665,158.728,192.863,162.53,188.164,162.562z"/>
			<path style="fill:#E64C3C;" d="M324.698,145.496c-0.545-0.016-1.088-0.073-1.625-0.171c-0.563-0.082-1.109-0.255-1.617-0.512
				c-0.546-0.187-1.064-0.447-1.542-0.771c-0.446-0.313-0.872-0.654-1.275-1.021c-0.771-0.816-1.379-1.772-1.792-2.817
				c-0.437-1.026-0.669-2.127-0.683-3.242c0.014-2.263,0.9-4.433,2.475-6.059c3.421-3.158,8.695-3.158,12.117,0
				c0.341,0.425,0.683,0.85,1.025,1.363c0.335,0.437,0.594,0.927,0.767,1.45c0.247,0.483,0.419,1.002,0.508,1.538
				c0.104,0.564,0.163,1.135,0.175,1.709c-0.014,1.115-0.246,2.216-0.683,3.242c-0.433,1.034-1.039,1.987-1.792,2.817
				c-0.406,0.367-0.835,0.708-1.283,1.021c-0.475,0.324-0.99,0.583-1.533,0.771c-0.484,0.244-1,0.416-1.533,0.513
				C325.841,145.423,325.27,145.48,324.698,145.496z"/>
			<path style="fill:#E64C3C;" d="M341.764,128.429c-2.262-0.016-4.432-0.902-6.059-2.475c-1.56-1.635-2.444-3.799-2.475-6.059
				c-0.032-1.121,0.203-2.233,0.683-3.246c0.433-1.033,1.039-1.984,1.792-2.813c3.421-3.158,8.695-3.158,12.117,0
				c0.753,0.829,1.359,1.78,1.792,2.813c0.438,1.027,0.67,2.13,0.683,3.246c-0.013,0.572-0.071,1.142-0.175,1.704
				c-0.089,0.536-0.261,1.054-0.508,1.538c-0.188,0.544-0.445,1.061-0.767,1.538c-0.341,0.425-0.683,0.85-1.025,1.279
				C346.194,127.524,344.026,128.41,341.764,128.429z"/>
			<path style="fill:#E64C3C;" d="M324.698,179.629c-0.545-0.016-1.088-0.073-1.625-0.171c-0.563-0.082-1.109-0.255-1.617-0.512
				c-0.546-0.187-1.064-0.447-1.542-0.771c-0.425-0.338-0.85-0.679-1.275-1.021c-1.56-1.635-2.444-3.799-2.475-6.059
				c0.014-2.263,0.9-4.433,2.475-6.059c3.421-3.158,8.695-3.158,12.117,0c0.341,0.425,0.683,0.85,1.025,1.279
				c0.32,0.476,0.578,0.991,0.767,1.533c0.247,0.483,0.419,1.002,0.508,1.538c0.104,0.564,0.163,1.135,0.175,1.709
				c-0.034,2.259-0.918,4.422-2.475,6.059c-0.425,0.341-0.858,0.683-1.283,1.021c-0.474,0.324-0.99,0.583-1.533,0.771
				c-0.484,0.244-1,0.416-1.533,0.513C325.841,179.556,325.27,179.613,324.698,179.629z"/>
			<path style="fill:#E64C3C;" d="M290.564,179.629c-2.27,0.022-4.453-0.87-6.058-2.475c-1.605-1.605-2.497-3.788-2.475-6.058
				c-0.027-0.575,0.029-1.15,0.167-1.708c0.096-0.535,0.27-1.053,0.517-1.538c0.169-0.524,0.428-1.015,0.767-1.45
				c0.293-0.489,0.636-0.946,1.025-1.363c3.421-3.158,8.695-3.158,12.117,0c0.341,0.425,0.683,0.85,1.025,1.363
				c0.335,0.437,0.594,0.927,0.767,1.45c0.247,0.483,0.419,1.002,0.508,1.538c0.104,0.564,0.163,1.135,0.175,1.709
				c0.022,2.27-0.87,4.453-2.475,6.058C295.017,178.759,292.834,179.651,290.564,179.629z"/>
			<path style="fill:#E64C3C;" d="M307.631,196.696c-2.27,0.022-4.453-0.87-6.058-2.475s-2.497-3.788-2.475-6.058
				c0.013-1.116,0.245-2.219,0.683-3.246c0.433-1.033,1.039-1.984,1.792-2.813c2.451-2.425,6.122-3.134,9.3-1.796
				c2.141,0.78,3.828,2.467,4.608,4.608c0.438,1.027,0.67,2.13,0.683,3.246c-0.034,2.259-0.918,4.422-2.475,6.059
				c-0.832,0.751-1.784,1.357-2.817,1.792C309.847,196.45,308.746,196.682,307.631,196.696z"/>
			<path style="fill:#E64C3C;" d="M307.631,162.562c-0.573-0.016-1.144-0.073-1.708-0.171c-0.533-0.095-1.05-0.268-1.533-0.512
				c-0.546-0.187-1.064-0.447-1.542-0.771c-0.425-0.338-0.85-0.679-1.275-1.021c-0.753-0.83-1.359-1.783-1.792-2.817
				c-0.437-1.026-0.669-2.127-0.683-3.242c0.03-2.26,0.914-4.424,2.475-6.059c2.475-2.38,6.117-3.083,9.3-1.796
				c1.034,0.435,1.987,1.042,2.817,1.796c0.341,0.425,0.683,0.85,1.025,1.363c0.335,0.437,0.594,0.927,0.767,1.45
				c0.247,0.483,0.419,1.002,0.508,1.538c0.104,0.564,0.162,1.135,0.175,1.709c-0.014,1.115-0.246,2.216-0.683,3.242
				c-0.433,1.034-1.039,1.987-1.792,2.817c-0.832,0.751-1.784,1.357-2.817,1.792C309.847,162.317,308.746,162.549,307.631,162.562z"
				/>
		</g>
	</g>
</g>
<g>
</g>
<g>
</g>
<g>
</g>
<g>
</g>
<g>
</g>
<g>
</g>
<g>
</g>
<g>
</g>
<g>
</g>
<g>
</g>
<g>
</g>
<g>
</g>
<g>
</g>
<g>
</g>
<g>
</g>
</svg>
