<?xml version="1.0" encoding="iso-8859-1"?>
<!-- Generator: Adobe Illustrator 19.0.0, SVG Export Plug-In . SVG Version: 6.00 Build 0)  -->
<svg version="1.1" id="Capa_1" xmlns="http://www.w3.org/2000/svg" xmlns:xlink="http://www.w3.org/1999/xlink" x="0px" y="0px"
	 viewBox="0 0 512.014 512.014" style="enable-background:new 0 0 512.014 512.014;" xml:space="preserve">
<g transform="translate(-1)">
	<path style="fill:#7F8C8D;" d="M495.658,367.322c0.969,0.772,1.87,1.625,2.693,2.55c0.906,0.845,1.74,1.763,2.494,2.746
		c0.618,0.652,1.154,1.376,1.596,2.158c0.199,0.098,0.199,0.196,0.299,0.294c0.3,0.368,0.567,0.762,0.798,1.177
		c12.635,21.072,12.635,47.391,0,68.463c-0.231,0.415-0.498,0.809-0.798,1.177c-0.568,0.865-1.202,1.684-1.895,2.452
		c-0.751,0.986-1.585,1.905-2.494,2.746c-0.849,0.9-1.748,1.752-2.693,2.55l7.88-8.926c-0.231,0.415-0.498,0.809-0.798,1.177
		c-0.536,0.887-1.172,1.71-1.895,2.452c-0.751,0.986-1.585,1.904-2.494,2.746c-0.849,0.9-1.748,1.752-2.693,2.55
		c-31.121,26.09-126.18,45.119-238.594,45.119S49.591,479.726,18.47,453.636c-0.898-0.785-1.795-1.569-2.693-2.452
		c-0.616-0.573-1.183-1.196-1.696-1.864c-0.2-0.098-0.299-0.294-0.399-0.392l-1.197-1.471l5.985,6.179
		c-0.898-0.785-1.795-1.569-2.693-2.452c-0.616-0.573-1.183-1.196-1.696-1.864c-0.2-0.098-0.299-0.294-0.399-0.392l-1.197-1.471
		C4.756,436.699,0.73,423.722,1.014,410.479c-0.187-12.097,3.139-23.988,9.576-34.231c0.574-0.954,1.207-1.871,1.895-2.746
		c0.242-0.346,0.508-0.674,0.798-0.981c0.715-0.893,1.481-1.745,2.294-2.55c0.891-0.96,1.858-1.845,2.893-2.648H495.658z"/>
	<path style="fill:#95A5A5;" d="M45.77,352.128c-9.804,3.661-19,8.78-27.277,15.183c-1.053,0.789-2.028,1.675-2.913,2.648
		c-0.808,0.813-1.575,1.668-2.295,2.56c-0.286,0.306-0.552,0.63-0.794,0.971c-0.697,0.876-1.345,1.789-1.942,2.737
		c-1.803,2.921-2.779,6.278-2.825,9.71c0,15.625,21.716,29.837,57.909,40.96c45.727,13.859,114.494,22.775,191.47,22.775
		c76.888,0,145.655-8.916,191.382-22.775c13.603-3.85,26.678-9.365,38.93-16.419c12.27-7.592,18.979-15.801,18.979-24.541
		c-0.045-3.433-1.022-6.789-2.825-9.71c-0.265-0.353-0.53-0.794-0.794-1.148c-0.177-0.088-0.177-0.177-0.353-0.265
		c-0.419-0.81-0.954-1.553-1.589-2.207c-0.755-0.973-1.581-1.887-2.472-2.737c-0.825-0.942-1.741-1.8-2.737-2.56
		c-8.314-6.42-17.536-11.567-27.366-15.272L45.77,352.128z"/>
	<path style="fill:#46B29D;" d="M468.876,380.465c-6.179,2.472-12.977,4.943-20.392,7.15
		c-45.727,13.948-114.494,22.863-191.382,22.863c-76.977,0-145.743-8.916-191.47-22.863c-7.503-2.295-14.301-4.679-20.48-7.239
		c0.088-9.71,0.265-19.068,0.618-28.248c0.53-14.036,1.412-27.454,2.648-40.342C66.073,125.348,151.524,52.785,207.403,24.978
		c31.229-15.624,67.993-15.624,99.222,0c55.879,27.807,141.33,100.37,158.985,286.808c1.236,12.888,2.119,26.306,2.648,40.254
		C468.611,361.221,468.788,370.755,468.876,380.465z"/>
	<path style="fill:#65DDB9;" d="M196.111,123.249H173.03c-3.001,0.025-5.807-1.485-7.441-4.003
		c-1.633-2.518-1.868-5.696-0.622-8.426c11.553-22.603,29.98-40.957,52.628-52.421c2.739-1.441,6.032-1.343,8.68,0.259
		c2.648,1.602,4.263,4.474,4.256,7.569v15.999c0.026,3.261-1.775,6.262-4.665,7.773c-10.57,5.009-18.317,14.518-21.088,25.882
		C204.021,120.094,200.389,123.181,196.111,123.249z"/>
	<g>
		<path style="fill:#547580;" d="M145.198,231.847c20.296-0.502,40.261,5.208,57.223,16.364c5.231,3.783,12.108,4.415,17.941,1.648
			c5.833-2.767,9.694-8.492,10.074-14.936c0.063-1.018,0.095-2.043,0.096-3.076c-1.267-30.449-26.927-54.135-57.379-52.966
			c-15.27-0.646-30.119,5.097-40.981,15.849c-10.862,10.753-16.754,25.543-16.262,40.819
			C125.473,233.066,135.316,231.822,145.198,231.847z"/>
		<path style="fill:#547580;" d="M368.83,231.847c-20.296-0.502-40.261,5.208-57.223,16.364c-5.231,3.783-12.108,4.415-17.941,1.648
			c-5.833-2.767-9.694-8.492-10.074-14.936c-0.063-1.018-0.095-2.043-0.096-3.076c1.267-30.449,26.927-54.135,57.379-52.966
			c15.27-0.646,30.119,5.097,40.981,15.849c10.862,10.753,16.754,25.543,16.262,40.819
			C388.555,233.066,378.712,231.822,368.83,231.847z"/>
	</g>
	<g>
		<path style="fill:#E4C05C;" d="M168.738,286.893H345.29c14.626,0,26.483,11.857,26.483,26.483v35.31
			c0,14.626-11.857,26.483-26.483,26.483H168.738c-14.626,0-26.483-11.857-26.483-26.483v-35.31
			C142.255,298.749,154.112,286.893,168.738,286.893z"/>
		<path style="fill:#F9EAB0;" d="M371.773,322.203v17.655h-88.276c-2.34-0.017-4.585-0.934-6.268-2.56l-2.56-2.648l-20.215,20.303
			c-3.481,3.414-9.054,3.414-12.535,0l-29.043-29.131l-11.388,11.476c-1.683,1.626-3.927,2.543-6.268,2.56h-52.966v-17.655h49.346
			l15.007-15.095c3.469-3.443,9.066-3.443,12.535,0l29.043,29.131l20.215-20.303c3.469-3.443,9.066-3.443,12.535,0l6.179,6.268
			H371.773z"/>
	</g>
</g>
<g>
</g>
<g>
</g>
<g>
</g>
<g>
</g>
<g>
</g>
<g>
</g>
<g>
</g>
<g>
</g>
<g>
</g>
<g>
</g>
<g>
</g>
<g>
</g>
<g>
</g>
<g>
</g>
<g>
</g>
</svg>
