<?xml version="1.0" encoding="iso-8859-1"?>
<!-- Generator: Adobe Illustrator 19.0.0, SVG Export Plug-In . SVG Version: 6.00 Build 0)  -->
<svg version="1.1" id="Capa_1" xmlns="http://www.w3.org/2000/svg" xmlns:xlink="http://www.w3.org/1999/xlink" x="0px" y="0px"
	 viewBox="0 0 512.02 512.02" style="enable-background:new 0 0 512.02 512.02;" xml:space="preserve">
<g transform="translate(0 -1)">
	<path style="fill:#84B5CB;" d="M493.518,338.41l-17.037,45.55c-3.334,8.852-11.144,15.248-20.48,16.772l-37.87,6.356l-0.706-0.353
		c-3.001,6.179-6.091,11.917-9.357,17.302c-8.499,17.079-22.231,30.996-39.195,39.724c-9.181,3.972-19.332,8.651-29.926,13.594
		c-5.826,2.648-11.741,5.385-17.655,8.121c-0.177,0.088-0.441,0.177-0.618,0.265c-30.632,14.036-60.116,27.277-70.268,27.277
		c-10.152,0-39.636-13.241-70.268-27.277l-0.353,0.794c-61.793,52.966-132.414,8.828-132.414,8.828
		c35.31-17.655,44.138-70.621,44.138-70.621l1.236-0.706c-3.266-5.385-6.356-11.123-9.357-17.302l-0.706,0.353l-37.87-6.356
		c-9.336-1.524-17.146-7.92-20.48-16.772L7.295,338.41c-2.59-6.883-2.174-14.537,1.148-21.098l20.215-40.519
		C9.237,201.847,58.23,131.668,58.23,131.668L34.572,82.939c-6.179-12.888,23.923-40.077,67.178-60.91
		C145.093,1.196,185.17-5.248,191.35,7.64l12.712,26.13c30.332-8.356,62.358-8.356,92.69,0l12.712-26.13
		c6.179-12.888,46.257-6.444,89.6,14.389c43.255,20.833,73.357,48.022,67.178,60.91l-23.658,48.728
		c0,0,48.993,70.179,29.572,145.126l8.121,16.331l12.094,24.188C495.692,323.873,496.108,331.527,493.518,338.41z"/>
	<g>
		<path style="fill:#547580;" d="M180.139,485.742c-5.914-2.737-11.829-5.473-17.655-8.121l-0.353-51.377
			c0.034-7.595-4.805-14.356-12.006-16.772l-77.771-26.395v-0.088c-3.09-6.974-6.268-14.212-9.446-21.804l92.778,31.514
			c14.417,4.775,24.138,18.269,24.099,33.457L180.139,485.742z"/>
		<path style="fill:#547580;" d="M437.728,361.45c-3.178,7.592-6.268,14.831-9.357,21.804l-77.065,26.218
			c-7.2,2.416-12.04,9.177-12.006,16.772l-0.353,51.112c-5.826,2.648-11.741,5.385-17.655,8.121l0.353-59.321
			c-0.038-15.187,9.682-28.682,24.099-33.457L437.728,361.45z"/>
	</g>
	<path style="fill:#B0D3F0;" d="M124.083,68.55C80.828,89.295,40.751,95.739,34.572,82.939
		c-6.179-12.888,23.923-40.077,67.178-60.91C145.093,1.196,185.17-5.248,191.35,7.64C197.441,20.44,167.427,47.717,124.083,68.55z"
		/>
	<path style="fill:none;stroke:#000000;stroke-width:2;stroke-linecap:round;stroke-linejoin:round;" d="M64.85,145.174
		l-0.706-1.501"/>
	<path style="fill:#B0D3F0;" d="M466.241,82.939c-6.179,12.8-46.257,6.356-89.512-14.389c-43.343-20.833-73.357-48.11-67.266-60.91
		c6.179-12.888,46.257-6.444,89.6,14.389C442.318,42.862,472.42,70.051,466.241,82.939z"/>
	<path style="fill:#35495E;" d="M466.241,82.939l-23.658,48.728l-5.914,12.006h-0.088c-2.913,6.003-13.065,7.768-27.543,5.914
		c-21.564-3.596-42.458-10.442-61.97-20.303c-37.87-18.185-65.589-41.225-67.708-55.349c-0.463-1.86-0.276-3.822,0.53-5.561
		l16.861-34.604l12.712-26.13c-6.091,12.8,23.923,40.077,67.267,60.91C419.984,89.295,460.061,95.739,466.241,82.939z"/>
	<g>
		<path style="fill:#F0785A;" d="M38.986,301.157l-1.236,0.53l-1.589-3.443c-3.087-6.932-5.596-14.107-7.503-21.451
			C9.237,201.847,58.23,131.668,58.23,131.668l5.914,12.006h0.088c2.913,6.003,13.065,7.768,27.543,5.914l0.177,1.501
			C91.952,151.088,30.158,212.881,38.986,301.157z"/>
		<path style="fill:#F0785A;" d="M472.155,276.793c-1.907,7.345-4.417,14.519-7.503,21.451l-1.589,3.443l-1.236-0.53
			c8.828-88.276-52.966-150.069-52.966-150.069l0.177-1.501c14.477,1.854,24.629,0.088,27.543-5.914h0.088l5.914-12.006
			C442.583,131.668,491.576,201.847,472.155,276.793z"/>
		<path style="fill:#F0785A;" d="M279.89,68.374c-0.806,1.739-0.993,3.701-0.53,5.561c-19.182-3.06-38.728-3.06-57.91,0
			c0.463-1.86,0.276-3.822-0.53-5.561l-16.86-34.604c30.332-8.356,62.358-8.356,92.69,0L279.89,68.374z"/>
	</g>
	<g>
		<path style="fill:#35495E;" d="M83.388,406.735l-0.706,0.353l-37.87-6.356c-9.336-1.524-17.146-7.92-20.48-16.772L7.295,338.41
			c-2.59-6.883-2.174-14.537,1.148-21.098l20.215-40.519c1.907,7.345,4.417,14.519,7.503,21.451l1.589,3.443
			C55.67,342.206,69.176,378.487,83.388,406.735z"/>
		<path style="fill:#35495E;" d="M221.452,73.935c-2.119,14.124-29.837,37.164-67.708,55.349
			c-19.511,9.862-40.405,16.707-61.97,20.303c-14.477,1.854-24.629,0.088-27.543-5.914h-0.088l-5.914-12.006L34.572,82.939
			c6.179,12.8,46.257,6.356,89.512-14.389c43.343-20.833,73.357-48.11,67.266-60.91l12.712,26.13l16.861,34.604
			C221.728,70.113,221.915,72.075,221.452,73.935z"/>
		<path style="fill:#35495E;" d="M493.518,338.41l-17.037,45.55c-3.334,8.852-11.144,15.248-20.48,16.772l-37.87,6.356l-0.706-0.353
			c14.212-28.248,27.719-64.53,45.639-105.048l1.589-3.443c3.087-6.932,5.596-14.107,7.503-21.451l20.215,40.519
			C495.692,323.873,496.108,331.527,493.518,338.41z"/>
	</g>
	<path style="fill:#F0785A;" d="M180.139,485.742l-0.353,0.794c-61.793,52.966-132.414,8.828-132.414,8.828
		c35.31-17.655,44.138-70.621,44.138-70.621l1.236-0.706c8.499,17.079,22.231,30.996,39.194,39.724
		C146.329,470.029,163.366,478.062,180.139,485.742z"/>
	<g>
		<path style="fill:#547580;" d="M279.109,362.95c-4.3-0.005-7.971-3.106-8.694-7.345c-0.903-9.989-9.545-17.475-19.56-16.944
			c-0.327,0.018-0.656,0.016-0.983-0.004c-9.981-0.474-18.565,6.997-19.474,16.948c-0.819,4.806-5.379,8.039-10.185,7.22
			s-8.039-5.379-7.22-10.185c2.373-18.656,18.623-32.395,37.414-31.634c18.781-0.734,35.015,12.992,37.414,31.634
			c0.438,2.565-0.279,5.193-1.958,7.181S281.711,362.954,279.109,362.95z"/>
		<path style="fill:#35495E;" d="M103.613,220.972c-3.278-0.004-6.283-1.824-7.806-4.727c-1.523-2.903-1.312-6.41,0.547-9.109
			c1.306-1.901,32.832-46.228,107.935-33.724c4.772,0.839,7.976,5.368,7.179,10.147c-0.797,4.779-5.298,8.022-10.084,7.267
			c-64.138-10.668-90.237,25.957-90.496,26.328C109.242,219.549,106.52,220.977,103.613,220.972z"/>
		<g>
			<path style="fill:#CC66A1;" d="M201.493,265.14c-52.946,23.531-82.788,2.421-95.478-11.431c-0.047-0.055-0.059-0.127-0.108-0.181
				c-0.062-0.068-0.149-0.091-0.213-0.157c-2.67-2.885-5.031-6.041-7.046-9.417c-2.353-4.238-7.683-5.786-11.94-3.467
				c-4.257,2.318-5.848,7.636-3.564,11.911c1.248,2.116,2.624,4.154,4.121,6.102l-11.547,10.458
				c-3.614,3.273-3.89,8.856-0.617,12.47c3.273,3.614,8.856,3.89,12.47,0.617l11.705-10.6c3.172,2.821,6.541,5.412,10.082,7.754
				l-4.623,13.6c-1.047,2.995-0.407,6.321,1.676,8.713c2.084,2.392,5.291,3.482,8.401,2.855c3.11-0.627,5.644-2.874,6.638-5.887
				l3.746-11.02c4.525,1.79,9.198,3.182,13.965,4.16v18.089c0,4.875,3.952,8.828,8.828,8.828c4.875,0,8.828-3.952,8.828-8.828
				v-16.325c0.106,0,0.2,0.015,0.306,0.015c17.843-0.371,35.407-4.504,51.543-12.129c4.447-1.985,6.447-7.196,4.468-11.646
				C211.153,265.173,205.944,263.167,201.493,265.14L201.493,265.14z"/>
			<path style="fill:#CC66A1;" d="M425.096,268.959l-11.548-10.458c1.497-1.948,2.874-3.986,4.122-6.102
				c1.503-2.772,1.413-6.135-0.236-8.823c-1.649-2.688-4.607-4.291-7.759-4.207s-6.02,1.844-7.523,4.616
				c-1.891,3.249-4.112,6.294-6.627,9.087c-0.192,0.178-0.439,0.258-0.619,0.456c-0.152,0.168-0.196,0.384-0.333,0.56
				c-4.737,5.177-10.259,9.575-16.364,13.033c-0.058,0.018-0.116,0.003-0.174,0.023c-0.516,0.234-1.007,0.52-1.466,0.852
				c-16.485,8.719-41.561,13.01-77.249-2.857c-2.882-1.286-6.232-0.935-8.785,0.92c-2.553,1.855-3.922,4.932-3.589,8.071
				c0.333,3.138,2.316,5.86,5.201,7.139c16.136,7.625,33.7,11.758,51.543,12.129c0.106,0,0.201-0.015,0.306-0.015v16.325
				c0,4.875,3.952,8.828,8.828,8.828s8.828-3.952,8.828-8.828V291.62c4.767-0.978,9.44-2.37,13.965-4.161l3.746,11.022
				c1.599,4.573,6.586,7.003,11.173,5.444c4.587-1.559,7.061-6.524,5.542-11.125l-4.623-13.603c3.54-2.341,6.909-4.932,10.081-7.753
				l11.706,10.602c3.616,3.255,9.183,2.971,12.449-0.635C428.958,277.805,428.691,272.237,425.096,268.959L425.096,268.959z"/>
		</g>
		<g>
			<path style="fill:#35495E;" d="M397.199,220.972c-2.893,0.005-5.604-1.409-7.254-3.784c-1.172-1.651-27.108-36.922-90.517-26.362
				c-4.786,0.756-9.286-2.488-10.084-7.267s2.407-9.308,7.179-10.147c75.121-12.504,106.634,31.828,107.935,33.724
				c1.859,2.699,2.07,6.207,0.547,9.109S400.477,220.968,397.199,220.972L397.199,220.972z"/>
			<path style="fill:#35495E;" d="M250.402,468.674c-4.452,0-8.207-3.315-8.759-7.733c-0.552-4.418,2.272-8.555,6.587-9.651
				l31.832-8.099l-10.517-5.039c-5.693-2.113-9.47-7.544-9.47-13.617c0-6.072,3.777-11.504,9.47-13.617l10.543-5.03l-31.858-8.108
				c-3.057-0.778-5.466-3.127-6.321-6.163c-0.855-3.036-0.025-6.298,2.177-8.556c2.202-2.258,5.441-3.171,8.498-2.393l37.159,9.457
				c7.016,1.224,12.471,6.782,13.564,13.819c0.404,6.476-3.384,12.483-9.401,14.91l-11.884,5.672l11.884,5.69
				c6.017,2.427,9.805,8.434,9.401,14.91c-1.093,7.037-6.549,12.595-13.565,13.819l-37.16,9.457
				C251.87,468.584,251.137,468.675,250.402,468.674z"/>
		</g>
		<path style="fill:#FF5364;" d="M506.406,398.635c0.032,6.261-1.203,12.465-3.629,18.237l-1.373,2.62l-79.546,91.789
			c-0.924,1.102-2.289,1.738-3.727,1.738c-1.438,0-2.803-0.636-3.727-1.738l-20.204-23.275l-2.354-2.619l-2.747-3.224
			l-54.241-62.671l-1.373-2.62c-2.427-5.772-3.661-11.975-3.629-18.237c-0.012-6.259,1.222-12.459,3.629-18.237
			c2.23-5.528,5.53-10.562,9.71-14.811c4.038-4.343,8.953-7.778,14.419-10.076c11.245-4.971,24.064-4.971,35.309,0
			c5.439,2.347,10.345,5.775,14.419,10.076c1.337,1.396,2.582,2.877,3.727,4.433c2.834,3.946,5.204,8.206,7.062,12.695
			c2.56-6.3,6.212-12.099,10.789-17.129c4.075-4.3,8.98-7.728,14.419-10.076c3.423-1.566,7.058-2.619,10.788-3.123
			c0.687-0.101,1.276-0.202,1.962-0.303c1.627-0.204,3.265-0.305,4.904-0.302c6.082-0.018,12.099,1.252,17.654,3.728
			c5.467,2.298,10.382,5.733,14.419,10.076c4.181,4.249,7.481,9.283,9.71,14.811C505.185,386.176,506.418,392.376,506.406,398.635z"
			/>
	</g>
</g>
<g>
</g>
<g>
</g>
<g>
</g>
<g>
</g>
<g>
</g>
<g>
</g>
<g>
</g>
<g>
</g>
<g>
</g>
<g>
</g>
<g>
</g>
<g>
</g>
<g>
</g>
<g>
</g>
<g>
</g>
</svg>
