<?xml version="1.0" encoding="iso-8859-1"?>
<!-- Generator: Adobe Illustrator 19.0.0, SVG Export Plug-In . SVG Version: 6.00 Build 0)  -->
<svg version="1.1" id="Capa_1" xmlns="http://www.w3.org/2000/svg" xmlns:xlink="http://www.w3.org/1999/xlink" x="0px" y="0px"
	 viewBox="0 0 512 512" style="enable-background:new 0 0 512 512;" xml:space="preserve">
<g>
	<g>
		<g>
			<path style="fill:#D1D4D1;" d="M410.131,302.61l-13.33-11.564c-12.368-10.664-30.431-11.467-43.697-1.942v-6.621h-1.236
				c23.178-0.006,45.198-10.129,60.292-27.719l2.825-3.266c16.583-19.353,22.886-45.482,16.949-70.268l-9.357-38.93l-19.509-81.39
				C394.472,25.172,362.497-0.014,325.739,0H186.263c-36.758-0.013-68.732,25.172-77.329,60.91l-19.509,81.302v0.088l-9.357,38.93
				c-5.937,24.785,0.366,50.914,16.949,70.268l2.825,3.266c15.094,17.589,37.115,27.713,60.292,27.719h-1.236v6.621
				c-13.265-9.527-31.329-8.724-43.697,1.942l-13.33,11.564l-40.077,34.604C70.964,347.857,83.99,354.415,98,355.442
				c14.01,1.027,27.853-3.562,38.476-12.755l22.422-19.332v20.392c-0.009,6.137,1.605,12.167,4.679,17.479l25.512,44.756
				c3.138,5.524,9.007,8.931,15.36,8.916h-1.412v17.655c-0.028,13.947,10.799,25.508,24.717,26.394v0.088
				c0,0-28.248,26.483,28.248,52.966c54.466-25.512,30.19-51.023,28.337-52.877l0.177-0.177
				c13.809-1.029,24.479-12.547,24.452-26.394v-17.655h-1.324c6.33,0.013,12.171-3.398,15.272-8.916l25.512-44.756
				c3.073-5.312,4.687-11.342,4.679-17.479v-20.392l22.422,19.332c10.622,9.194,24.465,13.784,38.476,12.757
				c14.011-1.027,27.037-7.586,36.205-18.23L410.131,302.61z"/>
			<path style="fill:#D1D4D1;" d="M158.895,289.103v34.251l-22.422,19.332c-10.623,9.193-24.466,13.782-38.476,12.755
				c-14.01-1.027-27.037-7.585-36.205-18.228l40.077-34.604l13.33-11.564C127.565,280.38,145.63,279.577,158.895,289.103z"/>
			<path style="fill:#D1D4D1;" d="M450.205,337.214c-9.168,10.644-22.194,17.204-36.205,18.23s-27.854-3.563-38.476-12.757
				l-22.422-19.332v-34.251c13.265-9.525,31.329-8.722,43.697,1.942l13.33,11.564L450.205,337.214z"/>
		</g>
		<path style="fill:#2C2F38;" d="M422.575,142.301c-3.09,32.486-15.537,96.044-64.088,96.044c-65.236,0-46.61-17.655-102.488-17.655
			s-37.252,17.655-102.488,17.655c-48.552,0-60.999-63.559-64.088-96.044v-0.088l19.509-81.302
			C117.528,25.172,149.503-0.014,186.26,0h139.476c36.758-0.014,68.733,25.172,77.33,60.91L422.575,142.301z"/>
		<path style="fill:#95A5A5;" d="M353.102,282.483l0,61.263c0.009,6.137-1.605,12.167-4.679,17.479l-25.512,44.756
			c-3.1,5.518-8.942,8.929-15.272,8.916H204.445c-6.353,0.015-12.222-3.392-15.36-8.916l-25.512-44.756
			c-3.073-5.312-4.687-11.342-4.679-17.479l0-61.263H353.102z"/>
		<path style="fill:#D1D4D1;" d="M308.964,414.897l0,17.655c0.027,13.847-10.643,25.365-24.452,26.395h-0.265
			c-0.585,0.073-1.176,0.103-1.766,0.088h-52.966c-0.59,0.015-1.18-0.015-1.766-0.088c-13.918-0.886-24.745-12.448-24.717-26.395
			l0-17.655H308.964z"/>
		<path style="fill:#CC4B4C;" d="M255.998,512c-56.497-26.483-28.248-52.966-28.248-52.966v-0.088
			c0.585,0.073,1.176,0.103,1.766,0.088h52.966c0.59,0.015,1.18-0.015,1.766-0.088h0.265l-0.177,0.177
			C286.189,460.977,310.464,486.488,255.998,512z"/>
		<path style="fill:#A5A5A4;" d="M158.895,289.103v34.251l-22.422,19.332l-34.604-40.077l13.33-11.564
			C127.565,280.38,145.63,279.577,158.895,289.103z"/>
	</g>
	<g transform="translate(12 5)">
		<g>
			<path style="fill:#7F8C8D;" d="M252.826,277.483v35.31c0,4.875-3.952,8.828-8.828,8.828s-8.828-3.952-8.828-8.828v-35.31H252.826
				z"/>
			<path style="fill:#7F8C8D;" d="M252.826,365.759v44.138h-17.655v-44.138c0-4.875,3.952-8.828,8.828-8.828
				S252.826,360.883,252.826,365.759z"/>
			<path style="fill:#7F8C8D;" d="M314.619,277.483v52.966c0.014,16.101-10.887,30.163-26.483,34.163
				c-2.875,0.788-5.846,1.174-8.828,1.148h-15.625c-4.875,0-8.828-3.952-8.828-8.828s3.952-8.828,8.828-8.828h15.625
				c9.739-0.029,17.626-7.916,17.655-17.655v-52.966H314.619z"/>
			<path style="fill:#7F8C8D;" d="M233.14,356.931c-0.015,4.869-3.958,8.813-8.828,8.828h-15.625
				c-2.981,0.027-5.952-0.359-8.828-1.148c-15.596-4-26.497-18.062-26.483-34.163l0-52.966h17.655v52.966
				c0.029,9.739,7.916,17.627,17.655,17.655h15.625C229.182,348.118,233.126,352.062,233.14,356.931z"/>
			<path style="fill:#7F8C8D;" d="M288.136,356.931v52.966h-17.655v-44.138h-6.797c-4.875,0-8.828-3.952-8.828-8.828
				s3.952-8.828,8.828-8.828h15.625C284.178,348.118,288.122,352.062,288.136,356.931z"/>
			<path style="fill:#7F8C8D;" d="M233.14,356.931c-0.015,4.869-3.958,8.813-8.828,8.828h-6.797v44.138H199.86v-52.966
				c0.015-4.869,3.958-8.813,8.828-8.828h15.625C229.182,348.118,233.126,352.062,233.14,356.931z"/>
		</g>
		<g>
			<circle style="fill:#FF5364;" cx="191.033" cy="100.931" r="8.828"/>
			<circle style="fill:#FF5364;" cx="191.033" cy="47.966" r="8.828"/>
			<circle style="fill:#FF5364;" cx="296.964" cy="47.966" r="8.828"/>
			<circle style="fill:#FF5364;" cx="164.55" cy="74.448" r="8.828"/>
			<circle style="fill:#FF5364;" cx="217.515" cy="74.448" r="8.828"/>
			<circle style="fill:#FF5364;" cx="296.964" cy="100.931" r="8.828"/>
			<circle style="fill:#FF5364;" cx="270.481" cy="74.448" r="8.828"/>
			<circle style="fill:#FF5364;" cx="323.447" cy="74.448" r="8.828"/>
		</g>
		<path style="fill:#F0C419;" d="M288.136,145.069c0,24.377-19.761,44.138-44.138,44.138s-44.138-19.761-44.138-44.138H288.136z"/>
		<path style="fill:#D1D4D1;" d="M243.998,374.586c-19.501,0-35.31-15.809-35.31-35.31s15.809-35.31,35.31-35.31
			s35.31,15.809,35.31,35.31C279.286,358.768,263.49,374.564,243.998,374.586z M243.998,321.621
			c-9.751,0-17.655,7.905-17.655,17.655s7.904,17.655,17.655,17.655c9.751,0,17.655-7.904,17.655-17.655
			C261.644,329.529,253.745,321.63,243.998,321.621z"/>
		<path style="fill:#A5A5A4;" d="M398.128,297.61l-34.604,40.077l-22.422-19.332v-34.251c13.265-9.525,31.329-8.722,43.697,1.942
			L398.128,297.61z"/>
	</g>
</g>
<g>
</g>
<g>
</g>
<g>
</g>
<g>
</g>
<g>
</g>
<g>
</g>
<g>
</g>
<g>
</g>
<g>
</g>
<g>
</g>
<g>
</g>
<g>
</g>
<g>
</g>
<g>
</g>
<g>
</g>
</svg>
