<?xml version="1.0" encoding="iso-8859-1"?>
<!-- Generator: Adobe Illustrator 19.0.0, SVG Export Plug-In . SVG Version: 6.00 Build 0)  -->
<svg version="1.1" id="Capa_1" xmlns="http://www.w3.org/2000/svg" xmlns:xlink="http://www.w3.org/1999/xlink" x="0px" y="0px"
	 viewBox="0 0 512 512" style="enable-background:new 0 0 512 512;" xml:space="preserve">
<g>
	<path style="fill:#894B9D;" d="M494.345,196.829h-4.414c-2.648,0-6.179,0.883-8.828,1.766
		c-5.297-22.952-15.007-44.138-29.131-62.676c15.007-0.883,23.835-0.883,23.835-0.883c0.883-14.124-5.297-27.366-17.655-35.31
		c-10.593,3.531-20.303,7.062-30.014,10.593c-14.124-13.241-30.014-24.717-47.669-33.545l2.648-17.655
		c1.766-7.945-6.179-18.538-18.538-23.834s-23.835-4.414-29.131,1.766l-18.538,15.89c-41.49-8.828-84.745-8.828-126.235,0.883
		l-20.303-16.772c-5.297-6.179-17.655-7.062-29.131-1.766c-12.359,5.297-20.303,15.89-18.538,23.834l3.531,20.303
		c-15.89,8.828-30.014,19.421-43.255,31.779c-9.71-3.531-19.421-7.062-30.014-11.476c-12.359,7.945-18.538,21.186-17.655,35.31
		c0,0,9.71,0,23.834,0.883c-14.124,19.421-23.834,40.607-29.131,63.559c-2.648-1.766-5.297-2.648-8.828-1.766h-3.531
		C7.945,197.711,0,205.656,0,215.366v35.31c0,9.71,7.945,17.655,17.655,17.655h4.414c2.648,0,6.179-0.883,8.828-1.766
		c11.476,44.138,38.841,82.979,76.8,107.697h-7.062c-5.297,0-11.476,2.648-14.124,7.062c-3.531,4.414-4.414,10.593-2.648,15.89
		c17.655,47.669,88.276,82.979,172.138,82.979s154.483-35.31,172.138-82.979c1.766-5.297,0.883-11.476-2.648-15.89
		c-3.531-4.414-8.828-7.062-14.124-7.062h-7.062c38.841-24.717,66.207-63.559,76.8-107.697c2.648,1.766,5.297,2.648,8.828,1.766
		h4.414c9.71,0,17.655-7.945,17.655-17.655v-35.31C512,204.773,504.055,196.829,494.345,196.829z"/>
	<path style="fill:#35495E;" d="M481.986,199.477c-5.297-22.952-15.007-44.138-29.131-62.676
		c-41.49,3.531-127.117,17.655-179.2,69.738c0,0,30.897-45.903,155.365-95.338c-14.124-13.241-30.014-24.717-47.669-33.545
		l-1.766,14.124v2.648c0,0.883,0,1.766-0.883,2.648c-5.297,11.476-24.717,13.241-45.021,4.414
		c-20.303-8.828-32.662-24.717-27.365-36.193c0-1.766,0.883-3.531,2.648-4.414l7.945-7.062c-41.49-8.828-84.745-8.828-126.235,0.883
		l7.062,6.179c1.766,1.766,2.648,3.531,3.531,5.297c4.414,11.476-7.945,27.366-27.365,36.193
		c-20.303,8.828-40.607,7.062-45.021-4.414c0-0.883-0.883-1.766-0.883-2.648v-2.648l-1.766-13.241
		c-15.89,8.828-30.014,19.421-43.255,31.779c124.469,48.552,155.366,94.455,155.366,94.455
		c-52.083-52.083-137.71-65.324-179.2-69.738c-14.124,19.421-23.834,40.607-29.131,63.559c-5.297,22.069-5.297,44.138,0,66.207
		c11.476,44.138,38.841,82.979,76.8,107.697h297.49c38.841-24.717,66.207-63.559,76.8-107.697
		C486.4,243.615,486.4,220.663,481.986,199.477z M114.759,240.966c-9.71,0-17.655-7.945-17.655-17.655
		c0-9.71,7.945-17.655,17.655-17.655s17.655,7.945,17.655,17.655c0,4.414-1.766,8.828-5.297,12.359
		C123.586,239.201,119.172,240.966,114.759,240.966z M158.897,240.966c-5.297,0-8.828-3.531-8.828-8.828
		c0-5.297,3.531-8.828,8.828-8.828s8.828,3.531,8.828,8.828c0,2.648-0.883,4.414-2.648,6.179
		C163.31,240.084,161.545,240.966,158.897,240.966z M353.103,240.966c-5.297,0-8.828-3.531-8.828-8.828
		c0-5.297,3.531-8.828,8.828-8.828s8.828,3.531,8.828,8.828c0,2.648-0.883,4.414-2.648,6.179
		C357.517,240.084,355.752,240.966,353.103,240.966z M397.241,240.966c-9.71,0-17.655-7.945-17.655-17.655
		c0-9.71,7.945-17.655,17.655-17.655c9.71,0,17.655,7.945,17.655,17.655c0,4.414-1.766,8.828-5.297,12.359
		C406.069,239.201,401.655,240.966,397.241,240.966z"/>
	<g>
		<path style="fill:#FF5364;" d="M229.517,232.139c0,34.428-35.31,61.793-79.448,61.793s-79.448-27.366-79.448-61.793
			c0,0,0-35.31,17.655-52.966C88.276,179.173,167.724,179.173,229.517,232.139"/>
		<path style="fill:#FF5364;" d="M282.483,232.139c0,34.428,35.31,61.793,79.448,61.793s79.448-27.366,79.448-61.793
			c0,0,0-35.31-17.655-52.966C423.724,179.173,344.276,179.173,282.483,232.139"/>
	</g>
	<path style="fill:#5E5F62;" d="M291.31,311.587c-10.593-0.883-21.186-4.414-30.014-10.593c-3.531-1.766-7.062-1.766-10.593,0
		c-8.828,6.179-19.421,9.71-30.014,10.593c-5.297,0-8.828-3.531-8.828-8.828c0-5.297,3.531-8.828,8.828-8.828
		c7.062-0.883,14.124-3.531,20.303-7.945c8.828-6.179,21.186-6.179,30.014,0c6.179,4.414,13.241,7.062,20.303,7.945
		c4.414,0,8.828,4.414,8.828,8.828C300.138,308.056,295.724,311.587,291.31,311.587z"/>
	<g>
		<path style="fill:#955BA5;" d="M238.345,205.656c-52.083-52.083-137.71-65.324-179.2-69.738
			c-14.124-0.883-23.834-0.883-23.834-0.883c-0.883-14.124,5.297-27.366,17.655-35.31c10.593,3.531,20.303,7.062,30.014,10.593
			C207.448,159.753,238.345,205.656,238.345,205.656z"/>
		<path style="fill:#955BA5;" d="M476.69,135.035c0,0-8.828,0-23.835,0.883c-41.49,3.531-127.117,17.655-179.2,69.738
			c0,0,30.897-45.903,155.365-95.338c9.71-3.531,19.421-7.062,30.014-10.593C471.393,107.67,477.572,120.911,476.69,135.035z"/>
	</g>
	<g>
		<path style="fill:#2C2F38;" d="M132.414,223.311c0,9.71-7.945,17.655-17.655,17.655s-17.655-7.945-17.655-17.655
			c0-9.71,7.945-17.655,17.655-17.655c4.414,0,8.828,1.766,12.359,5.297C130.648,214.484,132.414,218.898,132.414,223.311z"/>
		<path style="fill:#2C2F38;" d="M167.724,232.139c0,5.297-3.531,8.828-8.828,8.828s-8.828-3.531-8.828-8.828
			c0-5.297,3.531-8.828,8.828-8.828c2.648,0,4.414,0.883,6.179,2.648C166.841,227.725,167.724,230.373,167.724,232.139z"/>
		<path style="fill:#2C2F38;" d="M414.897,223.311c0,9.71-7.945,17.655-17.655,17.655c-9.71,0-17.655-7.945-17.655-17.655
			c0-9.71,7.945-17.655,17.655-17.655c4.414,0,8.828,1.766,12.359,5.297C413.131,214.484,414.897,218.898,414.897,223.311z"/>
		<path style="fill:#2C2F38;" d="M361.931,232.139c0,5.297-3.531,8.828-8.828,8.828s-8.828-3.531-8.828-8.828
			c0-5.297,3.531-8.828,8.828-8.828c2.648,0,4.414,0.883,6.179,2.648C361.048,227.725,361.931,230.373,361.931,232.139z"/>
	</g>
	<g>
		<path style="fill:#95A5A5;" d="M155.366,66.18c-14.124,6.179-28.248,3.531-31.779-4.414c0,0,0-0.883-0.883-0.883
			c-1.766-7.945,6.179-18.538,18.538-23.834s23.834-4.414,29.131,1.766c0.883,0.883,0.883,1.766,1.766,2.648
			C176.552,48.525,168.607,60.884,155.366,66.18z"/>
		<path style="fill:#95A5A5;" d="M384,60.001c0,0.883,0,0.883-0.883,1.766c-3.531,6.179-10.593,8.828-17.655,7.945
			c-2.648,0-5.297-0.883-7.062-0.883c-1.766-0.883-4.414-0.883-6.179-1.766c-3.531-1.766-6.179-3.531-9.71-5.297
			c-7.062-4.414-10.593-12.359-8.828-20.303c0.883-0.883,0.883-1.766,1.766-2.648c5.297-6.179,17.655-7.062,29.131-1.766
			C377.821,41.463,385.766,51.173,384,60.001z"/>
	</g>
	<path style="fill:#5E5F62;" d="M384,60.001l-2.648,17.655l-1.766,14.124v2.648c0,0.883,0,1.766-0.883,2.648
		c-5.297,11.476-24.717,13.241-45.021,4.414c-20.303-8.828-32.662-24.717-27.365-36.193c0-1.766,0.883-3.531,2.648-4.414
		l7.945-7.062l18.538-15.89c-0.883,0.883-0.883,1.766-1.766,2.648c-1.766,7.945,1.766,15.89,8.828,20.303
		c2.648,2.648,6.179,4.414,9.71,5.297c1.766,0.883,4.414,1.766,6.179,1.766c2.648,0.883,4.414,0.883,7.062,0.883
		c7.062,1.766,14.124-0.883,17.655-7.062C383.117,60.884,384,60.001,384,60.001z"/>
	<path style="fill:#894B9D;" d="M26.483,232.139c0,11.476,0.883,22.069,3.531,33.545c-2.648,1.766-5.297,2.648-8.828,1.766h-3.531
		C7.945,267.449,0,259.504,0,249.794v-35.31c0-9.71,7.945-17.655,17.655-17.655h4.414c2.648,0,6.179,0.883,8.828,1.766
		C27.366,210.07,26.483,221.546,26.483,232.139z"/>
	<path style="fill:#5E5F62;" d="M173.903,101.491c-20.303,8.828-40.607,7.062-45.021-4.414c0-0.883-0.883-1.766-0.883-2.648V91.78
		l-1.766-12.359l-2.648-19.421c0,0,0,0.883,0.883,0.883c3.531,8.828,17.655,10.593,30.897,4.414
		c13.241-6.179,21.186-17.655,17.655-25.6c0-0.883-0.883-1.766-1.766-2.648l20.303,16.772l7.062,6.179
		c1.766,1.766,2.648,3.531,3.531,5.297C206.566,76.773,194.207,93.546,173.903,101.491z"/>
	<path style="fill:#894B9D;" d="M512,214.484v35.31c0,9.71-7.945,17.655-17.655,17.655h-4.414c-2.648,0-6.179-0.883-8.828-1.766
		c5.297-22.069,5.297-44.138,0-66.207c2.648-1.766,5.297-2.648,8.828-1.766h4.414C504.055,196.829,512,204.773,512,214.484z"/>
	<g>
		<path style="fill:#5E5F62;" d="M164.193,373.38l-15.007-30.014c-0.883-1.766-2.648-3.531-5.297-4.414
			c-2.648-0.883-4.414-0.883-7.062,0.883c-4.414,1.766-6.179,7.062-3.531,11.476l11.476,22.952h19.421V373.38z"/>
		<path style="fill:#5E5F62;" d="M218.924,373.38l-7.062-28.248c-0.883-2.648-3.531-5.297-6.179-6.179
			c-2.648-0.883-6.179,0-8.828,1.766c-2.648,2.648-3.531,5.297-2.648,8.828l6.179,24.717h18.538V373.38z"/>
		<path style="fill:#5E5F62;" d="M367.228,373.38l11.476-22.952c1.766-4.414,0.883-9.71-3.531-11.476
			c-1.766-0.883-4.414-0.883-7.062-0.883c-2.648,0.883-4.414,2.648-5.297,4.414l-15.007,30.014h19.421V373.38z"/>
		<path style="fill:#5E5F62;" d="M311.614,373.38l6.179-24.717c0.883-2.648,0-6.179-2.648-8.828
			c-2.648-2.648-5.297-2.648-8.828-1.766c-2.648,0.883-5.297,3.531-6.179,6.179l-7.062,28.248h18.538V373.38z"/>
		<path style="fill:#5E5F62;" d="M264.828,373.38v-26.483c0-5.297-3.531-8.828-8.828-8.828c-5.297,0-8.828,3.531-8.828,8.828v26.483
			H264.828z"/>
	</g>
</g>
<g>
</g>
<g>
</g>
<g>
</g>
<g>
</g>
<g>
</g>
<g>
</g>
<g>
</g>
<g>
</g>
<g>
</g>
<g>
</g>
<g>
</g>
<g>
</g>
<g>
</g>
<g>
</g>
<g>
</g>
</svg>
