<?xml version="1.0" encoding="iso-8859-1"?>
<!-- Generator: Adobe Illustrator 19.0.0, SVG Export Plug-In . SVG Version: 6.00 Build 0)  -->
<svg version="1.1" id="Capa_1" xmlns="http://www.w3.org/2000/svg" xmlns:xlink="http://www.w3.org/1999/xlink" x="0px" y="0px"
	 viewBox="0 0 512 512" style="enable-background:new 0 0 512 512;" xml:space="preserve">
<g>
	<path style="fill:#804169;" d="M504.938,231.981l-22.422-16.861c-1.589-7.415-3.531-14.742-5.826-21.981
		c-4.772-15.125-11.352-29.619-19.597-43.167c21.716-64.618-15.713-124.557-15.713-124.557
		c-50.317-18.185-93.572,4.414-118.554,23.393c-15.013-5.267-30.382-9.456-45.992-12.535c-13.757-2.707-27.909-2.707-41.666,0
		c-15.609,3.079-30.979,7.268-45.992,12.535C164.193,29.83,120.938,7.231,70.621,25.416c0,0-37.429,59.939-15.713,124.557
		c-8.245,13.548-14.825,28.042-19.597,43.167c-2.295,7.239-4.237,14.654-5.826,21.981L7.062,231.981
		c-4.432,3.346-7.044,8.571-7.062,14.124v44.138c0.018,5.553,2.63,10.778,7.062,14.124l23.834,17.832v0.088
		c0.618,2.648,1.324,5.297,2.03,7.857c24.806,87.834,100.37,159.514,214.246,162.957c2.913,0.088,5.826,0.177,8.828,0.177
		c3.001,0,5.914-0.088,8.828-0.177c117.319-3.619,193.942-79.36,216.276-170.814v-0.088l23.834-17.832
		c4.432-3.346,7.044-8.571,7.062-14.124v-44.138C511.982,240.553,509.369,235.327,504.938,231.981z"/>
	<path style="fill:none;stroke:#000000;stroke-width:2;stroke-linecap:round;stroke-linejoin:round;" d="M274.803,430.955
		c-0.088-0.088-0.088-0.088-0.177-0.088"/>
	<path style="fill:#95A5A5;" d="M482.516,215.121c-1.589-7.415-3.531-14.742-5.826-21.981
		c-4.772-15.125-11.352-29.619-19.597-43.167c21.716-64.618-15.713-124.557-15.713-124.557
		c-50.317-18.185-93.572,4.414-118.554,23.393c-15.013-5.267-30.382-9.456-45.992-12.535c-13.757-2.707-27.909-2.707-41.666,0
		c-15.609,3.079-30.979,7.268-45.992,12.535C164.193,29.83,120.938,7.231,70.621,25.416c0,0-37.429,59.939-15.713,124.557
		c-8.245,13.548-14.825,28.042-19.597,43.167c-2.295,7.239-4.237,14.654-5.826,21.981c-7.665,35.337-7.182,71.956,1.412,107.079
		v0.088c0.618,2.648,1.324,5.297,2.03,7.857c24.806,87.834,100.37,159.514,214.246,162.957c2.913,0.088,5.826,0.177,8.828,0.177
		c3.001,0,5.914-0.088,8.828-0.177c117.319-3.619,193.942-79.36,216.276-170.814v-0.088c0.265-0.883,0.53-1.854,0.706-2.737
		C489.727,285.159,489.968,249.529,482.516,215.121z M361.931,387.347c-3.001-0.794-5.914-1.589-8.828-2.648v0.088
		c0.088,18.715-5.65,70.709-78.301,46.168l-9.975,5.032l-4.855,2.383c-2.504,1.236-5.441,1.236-7.945,0l-4.855-2.383l-10.152-5.12
		c-72.828,24.717-78.566-27.366-78.477-46.08c-2.779,0.999-5.607,1.853-8.474,2.56c-35.31,8.828-88.276-26.483-88.276-105.931
		c-0.387-19.68,6.354-38.836,18.979-53.937c14.499-17.531,35.493-28.426,58.174-30.19c23.305-1.324,45.286,7.768,67.178,14.566
		c10.063,3.09,20.039,6.444,30.014,9.887c12.888,4.325,26.836,4.325,39.724,0c9.975-3.443,19.95-6.797,30.014-9.887
		c21.892-6.797,43.873-15.89,67.178-14.566c22.681,1.764,43.675,12.659,58.174,30.19c12.625,15.101,19.366,34.257,18.979,53.937
		C450.207,360.864,397.241,396.174,361.931,387.347z"/>
	<path style="fill:#3F5C6C;" d="M353.103,384.699v0.088c0.088,18.715-5.65,70.709-78.301,46.168l11.652-5.826
		c2.993-1.515,4.873-4.591,4.855-7.945v-15.272c-0.055-3.647-2.277-6.91-5.65-8.298c-9.451-3.785-19.486-5.906-29.661-6.268
		c-10.175,0.362-20.21,2.482-29.661,6.268c-3.373,1.387-5.595,4.651-5.65,8.298v15.272c-0.017,3.354,1.862,6.43,4.855,7.945
		l11.476,5.738c-72.828,24.717-78.566-27.366-78.477-46.08c31.25-10.417,56.938-32.75,97.457-32.75
		C296.342,352.036,322.03,374.194,353.103,384.699z"/>
	<path style="fill:#2C3E50;" d="M431.228,227.479c-14.499-17.531-35.493-28.426-58.174-30.19
		c-23.305-1.324-45.285,7.768-67.178,14.566c-10.063,3.09-20.039,6.444-30.014,9.887c-12.888,4.325-26.836,4.325-39.724,0
		c-9.975-3.443-19.95-6.797-30.014-9.887c-21.892-6.797-43.873-15.89-67.178-14.566c-22.681,1.764-43.675,12.659-58.174,30.19
		c-12.625,15.101-19.366,34.257-18.979,53.937c0,79.448,52.966,114.759,88.276,105.931c2.867-0.707,5.696-1.561,8.474-2.56
		c31.25-10.417,56.938-32.75,97.457-32.75c40.342,0,66.03,22.157,97.103,32.662c2.913,1.059,5.826,1.854,8.828,2.648
		c35.31,8.828,88.276-26.483,88.276-105.931C450.594,261.736,443.853,242.58,431.228,227.479z"/>
	<g>
		<path style="fill:#556080;" d="M185.069,92.55c-1.612-1.849-33.991-38.457-76.828-38.457c-4.426,0-8.843,0.395-13.198,1.181
			c-8.121,18.703-20.431,58.065-1.664,95.59"/>
		<path style="fill:#556080;" d="M326.931,92.55c1.612-1.849,33.991-38.457,76.828-38.457c4.426,0,8.843,0.395,13.198,1.181
			c8.121,18.703,20.431,58.065,1.664,95.59"/>
	</g>
	<g>
		<path style="fill:#FF5364;" d="M291.31,401.912v15.272c0.017,3.354-1.862,6.43-4.855,7.945l-11.652,5.826l-9.975,5.032h-0.177
			l-4.679,2.383c-2.504,1.236-5.441,1.236-7.945,0l-4.767-2.383h-0.088l-10.152-5.12l-11.476-5.738
			c-2.993-1.515-4.873-4.591-4.855-7.945v-15.272c0.055-3.647,2.277-6.91,5.65-8.298c9.451-3.785,19.486-5.906,29.661-6.268
			c10.175,0.362,20.21,2.482,29.661,6.268C289.034,395.002,291.256,398.266,291.31,401.912z"/>
		<path style="fill:#2C3E50;" d="M264.828,435.987v57.115c-2.913,0.088-5.826,0.177-8.828,0.177c-3.001,0-5.914-0.088-8.828-0.177
			v-57.115h0.088l4.767,2.383c2.504,1.236,5.441,1.236,7.945,0l4.679-2.383H264.828z"/>
	</g>
	<g>
		<path style="fill:#FF5364;" d="M404.392,289.802c-2.03,15.095-14.566,34.163-25.865,47.845
			c-17.479-3.09-39.459-9.357-50.847-19.597c-15.801-13.329-21.981-30.19-15.537-42.108c4.207-6.955,11.326-11.641,19.378-12.755
			c8.051-1.113,16.176,1.465,22.112,7.017c0.894-8.074,5.385-15.312,12.222-19.699c6.837-4.387,15.288-5.452,23-2.9
			C401.567,252.461,407.746,269.322,404.392,289.802z"/>
		<path style="fill:#FF5364;" d="M184.32,318.05c-11.388,10.24-33.368,16.508-50.847,19.597
			c-11.299-13.683-23.834-32.75-25.865-47.845c-3.354-20.48,2.825-37.341,15.537-42.196c7.712-2.552,16.163-1.486,23,2.9
			c6.837,4.386,11.328,11.625,12.222,19.699c5.936-5.552,14.061-8.13,22.112-7.017c8.051,1.114,15.171,5.8,19.378,12.755
			C206.301,287.86,200.121,304.721,184.32,318.05z"/>
	</g>
</g>
<g>
</g>
<g>
</g>
<g>
</g>
<g>
</g>
<g>
</g>
<g>
</g>
<g>
</g>
<g>
</g>
<g>
</g>
<g>
</g>
<g>
</g>
<g>
</g>
<g>
</g>
<g>
</g>
<g>
</g>
</svg>
