<?xml version="1.0" encoding="iso-8859-1"?>
<!-- Generator: Adobe Illustrator 19.0.0, SVG Export Plug-In . SVG Version: 6.00 Build 0)  -->
<svg version="1.1" id="Capa_1" xmlns="http://www.w3.org/2000/svg" xmlns:xlink="http://www.w3.org/1999/xlink" x="0px" y="0px"
	 viewBox="0 0 512.008 512.008" style="enable-background:new 0 0 512.008 512.008;" xml:space="preserve">
<g transform="translate(-1 -1)">
	<g>
		<path style="fill:#D25627;" d="M476.635,297.35c23.938-78.911,3.721-164.597-52.966-224.486
			C358.216,3.564,256.714-18.016,168.729,18.663c-29.686,12.289-56.41,30.767-78.389,54.201
			c-40.457,42.508-62.969,98.977-62.852,157.661c0,6.709,0.265,13.33,0.883,19.862v0.088c-0.604,4.979-0.899,9.991-0.883,15.007
			v117.23c-0.18,10.97,4.007,21.562,11.64,29.443s18.085,12.405,29.056,12.576h3.443c0,0,0,61.793,70.621,61.793v26.483h211.862
			v-26.483c70.621,0,70.621-61.793,70.621-61.793l0.177-0.794c2.047,0.53,4.153,0.797,6.268,0.794
			c7.662,0.003,14.87-3.634,19.421-9.799c17.142-22.615,26.635-50.103,27.101-78.477c0-12.182,0-25.335-1.059-39.018V297.35z
			 M164.681,312.526c7.485-10.688,21.65-14.313,33.349-8.536c11.699,5.778,17.43,19.229,13.493,31.669
			c-3.937,12.44-16.364,20.144-29.257,18.139c-12.893-2.005-22.393-13.121-22.365-26.169
			C159.882,322.22,161.554,316.939,164.681,312.526z M309.97,301.146c8.691,0.013,16.822,4.294,21.75,11.453
			c3.102,4.396,4.756,9.65,4.733,15.03c0,14.626-11.857,26.483-26.483,26.483c-14.626,0-26.483-11.857-26.483-26.483
			S295.344,301.146,309.97,301.146z"/>
		<path style="fill:#D25627;" d="M183.026,335.75c1.048,0.495,2.199,0.737,3.358,0.707c3.569-0.014,6.782-2.168,8.151-5.464
			c1.369-3.297,0.626-7.093-1.883-9.631c-2.546-2.493-6.334-3.225-9.625-1.858c-1.069,0.449-2.053,1.077-2.91,1.858
			c-3.414,3.481-3.414,9.054,0,12.534C180.975,334.674,181.958,335.3,183.026,335.75z"/>
		<path style="fill:#D25627;" d="M309.97,336.457c0.591-0.02,1.18-0.079,1.763-0.177c0.553-0.098,1.089-0.277,1.591-0.53
			c0.563-0.194,1.098-0.462,1.591-0.797c0.462-0.325,0.904-0.678,1.324-1.056c1.611-1.693,2.525-3.931,2.56-6.268
			c-0.014-1.155-0.254-2.296-0.707-3.358c-0.428-1.079-1.057-2.066-1.854-2.909c-3.539-3.267-8.995-3.267-12.534,0
			c-0.8,0.842-1.43,1.83-1.858,2.909c-0.452,1.063-0.69,2.203-0.702,3.358c-0.023,2.348,0.9,4.607,2.56,6.267
			C305.363,335.557,307.622,336.479,309.97,336.457z"/>
	</g>
	<path style="fill:#95A5A5;" d="M407.25,403.899c-0.088-1.059-0.177-2.119-0.177-3.266v-46.521c0-8.828,0-26.483-26.483-44.138
		c-26.483-17.655-17.832-80.684-17.832-80.684c-0.177,0-0.441,0.088-0.618,0.088c-11.476,1.324-23.834-0.088-34.516,0.177
		c-15.978,0.265-32.132,2.03-48.022,3.619c-37.279,2.913-74.082,10.232-109.639,21.804c-24.894,8.828-61.087,25.247-61.087,57.644
		v70.091c0.321,21.501-15.859,39.675-37.252,41.843c-1.148,0.088-2.295,0.177-3.443,0.177h3.443c0,0,0,61.793,70.621,61.793h211.862
		c70.621,0,70.621-61.793,70.621-61.793l0.177-0.794C415.593,421.309,408.685,413.468,407.25,403.899z M151.073,327.629
		c-0.033-7.208,2.189-14.245,6.356-20.127c9.97-14.267,28.861-19.12,44.473-11.425s23.27,25.633,18.029,42.23
		c-5.241,16.597-21.813,26.884-39.012,24.217C163.72,359.857,151.042,345.034,151.073,327.629z M318.798,433.56
		c-0.015,4.869-3.958,8.813-8.828,8.828H186.384c-4.869-0.015-8.813-3.958-8.828-8.828v-17.655c0.015-4.869,3.958-8.813,8.828-8.828
		H309.97c4.869,0.015,8.813,3.958,8.828,8.828V433.56z M309.97,362.939c-16.776,0.028-31.255-11.752-34.641-28.182
		c-3.386-16.43,5.255-32.975,20.674-39.583s33.36-1.455,42.922,12.328c4.167,5.881,6.389,12.919,6.356,20.127
		c0.003,9.366-3.717,18.348-10.339,24.971C328.318,359.223,319.336,362.942,309.97,362.939z"/>
	<g>
		<path style="fill:#F29C1F;" d="M130.947,121.593c-30.558,17.72-57.317,41.299-78.742,69.385
			c-13.14,17.301-21.374,37.824-23.834,59.41c-0.618-6.532-0.883-13.153-0.883-19.862C27.371,171.842,49.882,115.373,90.34,72.865
			L130.947,121.593z"/>
		<path style="fill:#F29C1F;" d="M257.005,1.008v88.541c-21.055-0.933-42.135,1.178-62.588,6.268l-25.688-77.153
			C196.688,6.97,226.698,0.968,257.005,1.008z"/>
	</g>
	<path style="fill:#F0C419;" d="M390.566,213.841c-0.991,1.508-2.114,2.926-3.354,4.237c-6.612,6.447-15.252,10.408-24.452,11.211
		c-0.177,0-0.441,0.088-0.618,0.088c-11.476,1.324-23.834-0.088-34.516,0.177c-15.978,0.265-32.132,2.03-48.022,3.619
		c-37.279,2.913-74.082,10.232-109.639,21.804c-24.894,8.828-61.087,25.247-61.087,57.644v70.091
		c0.321,21.501-15.859,39.675-37.252,41.843c-1.148,0.088-2.295,0.177-3.443,0.177c-10.97-0.171-21.423-4.695-29.056-12.576
		s-11.82-18.473-11.64-29.443v-117.23c-0.016-5.016,0.279-10.028,0.883-15.007v-0.088c2.46-21.586,10.694-42.109,23.834-59.41
		c21.425-28.085,48.184-51.665,78.742-69.385c19.833-11.548,41.202-20.226,63.47-25.777c20.452-5.089,41.532-7.2,62.588-6.268
		c15.192,0.63,30.264,2.969,44.932,6.974c5.297,1.412,10.593,3.001,15.801,4.855c9.634,3.317,18.966,7.452,27.895,12.359
		c9.962,5.407,19.139,12.149,27.277,20.039c8.809,8,15.82,17.778,20.568,28.69c1.223,2.711,2.226,5.515,3.001,8.386
		C400.892,185.356,398.731,201.066,390.566,213.841z"/>
	<path style="fill:#E57E25;" d="M477.694,336.457c-0.466,28.374-9.958,55.862-27.101,78.477c-4.55,6.165-11.758,9.801-19.421,9.799
		c-2.114,0.002-4.221-0.265-6.268-0.794c-9.312-2.629-16.22-10.47-17.655-20.039c-0.088-1.059-0.177-2.119-0.177-3.266v-11.211
		c65.854-98.869-6.532-166.93-16.508-175.581c8.165-12.775,10.326-28.485,5.914-42.99c-0.775-2.871-1.779-5.675-3.001-8.386
		c64.441,40.254,79.536,90.218,83.156,134.885v0.088C477.694,311.121,477.694,324.275,477.694,336.457z"/>
	<path style="fill:#F29C1F;" d="M423.669,72.865l-50.759,60.91c-8.138-7.889-17.315-14.631-27.277-20.039
		c-8.929-4.907-18.262-9.042-27.895-12.359l27.542-82.714C374.966,30.952,401.69,49.43,423.669,72.865z"/>
	<g>
		<rect x="142.246" y="486.526" style="fill:#547580;" width="211.862" height="26.483"/>
		<path style="fill:#804169;" d="M186.384,283.491c-10.831,0.008-21.279,4.005-29.35,11.227c-3.513-3.272-9-3.122-12.33,0.335
			c-3.33,3.458-3.273,8.946,0.128,12.334l1.609,1.609c-1.455,3.129-2.53,6.421-3.2,9.805h-0.995c-4.875,0-8.828,3.952-8.828,8.828
			s3.952,8.828,8.828,8.828h0.892c4.646,22.758,26.135,38.022,49.154,34.913c23.019-3.109,39.689-23.526,38.131-46.701
			C228.865,301.493,209.612,283.491,186.384,283.491z M186.384,354.112c-14.619-0.016-26.467-11.863-26.483-26.483
			c-0.019-5.409,1.652-10.69,4.78-15.103c7.179-10.312,20.619-14.154,32.164-9.196c11.545,4.958,18.012,17.351,15.477,29.657
			C209.787,345.293,198.948,354.12,186.384,354.112z"/>
		<path style="fill:#2C2F38;" d="M186.384,336.457c-1.159,0.031-2.309-0.212-3.358-0.707c-1.068-0.449-2.051-1.076-2.91-1.854
			c-3.414-3.481-3.414-9.054,0-12.534c0.857-0.78,1.841-1.409,2.91-1.858c3.291-1.367,7.08-0.636,9.625,1.858
			c2.546,2.525,3.312,6.341,1.937,9.653C193.213,334.326,189.97,336.477,186.384,336.457z"/>
		<g>
			<path style="fill:#804169;" d="M309.97,371.767c-20.968,0.027-39.061-14.702-43.289-35.239
				c-4.227-20.538,6.578-41.215,25.852-49.471c19.274-8.256,41.697-1.812,53.647,15.417c5.19,7.359,7.961,16.15,7.927,25.155
				C354.079,351.994,334.335,371.738,309.97,371.767z M309.97,301.146c-14.626,0-26.483,11.857-26.483,26.483
				s11.857,26.483,26.483,26.483c14.626,0,26.483-11.857,26.483-26.483c0.024-5.38-1.631-10.634-4.733-15.03
				C326.792,305.44,318.661,301.159,309.97,301.146z"/>
			<path style="fill:#804169;" d="M338.923,316.332c-3.57-0.001-6.788-2.152-8.154-5.45c-1.366-3.298-0.611-7.094,1.913-9.619
				l6.358-6.358c3.456-3.394,9.001-3.369,12.426,0.056c3.425,3.425,3.45,8.97,0.056,12.426l-6.358,6.358
				C343.51,315.403,341.264,316.334,338.923,316.332z"/>
			<path style="fill:#804169;" d="M354.108,336.457h-8.828c-4.875,0-8.828-3.952-8.828-8.828s3.952-8.828,8.828-8.828h8.828
				c4.875,0,8.828,3.952,8.828,8.828S358.983,336.457,354.108,336.457z"/>
		</g>
		<path style="fill:#2C2F38;" d="M309.97,336.457c-2.348,0.023-4.607-0.9-6.267-2.56c-1.66-1.66-2.583-3.919-2.56-6.267
			c0.012-1.154,0.251-2.295,0.703-3.358c0.427-1.08,1.058-2.068,1.857-2.91c3.539-3.267,8.995-3.267,12.534,0
			c0.797,0.843,1.426,1.831,1.854,2.909c0.453,1.062,0.693,2.203,0.707,3.358c-0.035,2.337-0.949,4.574-2.56,6.268
			c-0.419,0.378-0.861,0.731-1.323,1.056c-0.492,0.335-1.027,0.603-1.591,0.797c-0.501,0.253-1.037,0.432-1.591,0.53
			C311.15,336.377,310.561,336.436,309.97,336.457z"/>
	</g>
	<path style="fill:#F29C1F;" d="M407.073,389.422v-35.31c0-8.828,0-26.483-26.483-44.138
		c-26.483-17.655-17.832-80.684-17.832-80.684c9.2-0.803,17.84-4.764,24.452-11.211c1.24-1.311,2.363-2.729,3.354-4.237
		C400.541,222.492,472.927,290.553,407.073,389.422z"/>
	<path style="fill:#C03A2B;" d="M212.867,407.077v35.31h-26.483c-4.869-0.015-8.813-3.958-8.828-8.828v-17.655
		c0.015-4.869,3.958-8.813,8.828-8.828H212.867z"/>
	<g>
		<rect x="212.867" y="407.077" style="fill:#E64C3C;" width="35.31" height="35.31"/>
		<path style="fill:#E64C3C;" d="M318.798,415.905v17.655c-0.015,4.869-3.958,8.813-8.828,8.828h-26.483v-35.31h26.483
			C314.839,407.092,318.783,411.036,318.798,415.905z"/>
	</g>
	<g>
		<rect x="248.177" y="407.077" style="fill:#C03A2B;" width="35.31" height="35.31"/>
		<path style="fill:#547580;" d="M362.936,415.905c-2.337-0.035-4.575-0.949-6.268-2.56c-0.78-0.859-1.409-1.844-1.858-2.914
			c-0.451-1.061-0.69-2.201-0.702-3.354c0.033-2.337,0.947-4.576,2.56-6.268c0.857-0.78,1.841-1.409,2.909-1.858
			c2.151-0.879,4.561-0.879,6.711,0c1.081,0.428,2.07,1.059,2.914,1.858c2.546,2.526,3.312,6.341,1.937,9.653
			S366.522,415.926,362.936,415.905z"/>
	</g>
</g>
<g>
</g>
<g>
</g>
<g>
</g>
<g>
</g>
<g>
</g>
<g>
</g>
<g>
</g>
<g>
</g>
<g>
</g>
<g>
</g>
<g>
</g>
<g>
</g>
<g>
</g>
<g>
</g>
<g>
</g>
</svg>
