<?xml version="1.0" encoding="iso-8859-1"?>
<!-- Generator: Adobe Illustrator 19.0.0, SVG Export Plug-In . SVG Version: 6.00 Build 0)  -->
<svg version="1.1" id="Capa_1" xmlns="http://www.w3.org/2000/svg" xmlns:xlink="http://www.w3.org/1999/xlink" x="0px" y="0px"
	 viewBox="0 0 512.019 512.019" style="enable-background:new 0 0 512.019 512.019;" xml:space="preserve">
<g transform="translate(0 -1)">
	<path style="fill:#84B5CB;" d="M499.121,338.41l-17.037,45.55c-3.334,8.852-11.144,15.248-20.48,16.772l-37.87,6.356l-0.706-0.353
		c-3.001,6.179-6.091,11.917-9.357,17.302l1.236,0.706c0,0,8.828,52.966,44.138,70.621c0,0-70.621,44.138-132.414-8.828
		l-0.353-0.794c-30.632,14.036-60.116,27.277-70.268,27.277c-10.152,0-39.636-13.241-70.268-27.277l-0.353,0.794
		c-61.793,52.966-132.414,8.828-132.414,8.828c35.31-17.655,44.138-70.621,44.138-70.621l1.236-0.706
		c-3.266-5.385-6.356-11.123-9.357-17.302l-0.706,0.353l-37.87-6.356c-9.336-1.524-17.146-7.92-20.48-16.772l-17.037-45.55
		c-2.59-6.883-2.174-14.537,1.148-21.098l20.215-40.519C14.84,201.847,63.833,131.668,63.833,131.668L40.175,82.939
		c-6.179-12.888,23.923-40.077,67.178-60.91c43.343-20.833,83.421-27.277,89.6-14.389l12.712,26.13
		c30.332-8.356,62.358-8.356,92.69,0l12.712-26.13c6.179-12.888,46.257-6.444,89.6,14.389c43.255,20.833,73.357,48.022,67.178,60.91
		l-23.658,48.728c0,0,48.993,70.179,29.572,145.126l8.121,16.331l12.094,24.188C501.295,323.873,501.712,331.527,499.121,338.41z"/>
	<g>
		<path style="fill:#547580;" d="M185.742,485.742c-5.914-2.737-11.829-5.473-17.655-8.121l-0.353-51.377
			c0.034-7.595-4.805-14.356-12.006-16.772l-77.771-26.395v-0.088c-3.09-6.974-6.268-14.212-9.446-21.804l92.778,31.514
			c14.417,4.775,24.138,18.269,24.099,33.457L185.742,485.742z"/>
		<path style="fill:#547580;" d="M443.331,361.45c-3.178,7.592-6.268,14.831-9.357,21.804l-77.065,26.218
			c-7.2,2.416-12.04,9.177-12.006,16.772l-0.353,51.112c-5.826,2.648-11.741,5.385-17.655,8.121l0.353-59.321
			c-0.038-15.187,9.682-28.682,24.099-33.457L443.331,361.45z"/>
	</g>
	<g>
		<path style="fill:#FF5364;" d="M91.28,316.841c-5.216-4.032-7.703-10.667-6.423-17.134c4.55-23.006,20.389-76.112,68.982-69.17
			c61.793,8.828,61.793,79.448,61.793,79.448s-17.655,44.138-61.793,35.31C131.101,340.665,109.712,330.936,91.28,316.841z"/>
		<path style="fill:#FF5364;" d="M420.74,316.841c5.216-4.032,7.703-10.667,6.423-17.134c-4.55-23.006-20.389-76.112-68.982-69.17
			c-61.793,8.828-61.793,79.448-61.793,79.448s17.655,44.138,61.793,35.31C380.918,340.665,402.308,330.936,420.74,316.841z"/>
	</g>
	<g>
		<path style="fill:#547580;" d="M269.501,406.812c-4.724-0.005-8.607-3.729-8.809-8.449s3.348-8.763,8.055-9.171
			c3.213-0.247,6.396-0.791,9.508-1.625c1.746-0.399,3.4-1.126,4.875-2.142c-0.086-0.151-0.207-0.461-0.414-0.871
			c-1.438-2.785-3.592-5.135-6.241-6.81c-2.856-1.834-5.977-3.217-9.255-4.099c-2.803-0.787-5.669-1.335-8.565-1.638
			c-1.147-0.121-2.056-0.177-2.651-0.207c-0.582,0.03-1.496,0.086-2.642,0.207c-2.896,0.303-5.761,0.851-8.565,1.638
			c-3.277,0.883-6.399,2.265-9.254,4.099c-2.649,1.675-4.803,4.026-6.241,6.81c-0.193,0.359-0.343,0.74-0.448,1.134
			c1.56,0.81,3.207,1.44,4.909,1.879c3.113,0.834,6.296,1.378,9.509,1.625c3.147,0.266,5.912,2.192,7.251,5.053
			s1.048,6.218-0.764,8.805s-4.867,4.009-8.013,3.728c-4.34-0.338-8.638-1.087-12.836-2.237c-5.336-1.222-10.174-4.039-13.871-8.077
			c-4.564-5.648-5.172-13.524-1.53-19.806c2.812-5.533,7.035-10.225,12.241-13.603c4.373-2.848,9.161-5.001,14.194-6.384
			c3.787-1.073,7.659-1.817,11.573-2.225c0.866-0.09,1.651-0.155,2.328-0.203c0.482-0.08,0.969-0.12,1.457-0.121h1.414
			c0.462,0.004,0.923,0.043,1.379,0.116c0.694,0.047,1.504,0.112,2.405,0.207c3.914,0.407,7.786,1.152,11.573,2.225
			c5.032,1.382,9.821,3.536,14.194,6.384c5.206,3.378,9.429,8.071,12.241,13.603c3.642,6.282,3.033,14.158-1.53,19.806
			c-3.696,4.038-8.534,6.855-13.871,8.077c-4.198,1.15-8.496,1.899-12.836,2.237C270.014,406.804,269.755,406.812,269.501,406.812z"
			/>
		<g>
			<path style="fill:#35495E;" d="M92.69,221.709c-3.145-0.004-6.05-1.68-7.627-4.401c-1.577-2.721-1.588-6.075-0.028-8.806
				c0.397-0.69,40.621-68.819,126.711-20.991c2.787,1.516,4.546,4.412,4.608,7.584c0.061,3.172-1.585,6.134-4.312,7.756
				c-2.727,1.623-6.115,1.657-8.874,0.09c-70.987-39.431-101.539,12.103-102.806,14.319
				C98.791,220.015,95.862,221.714,92.69,221.709z"/>
			<path style="fill:#35495E;" d="M419.329,221.709c-3.159,0.004-6.078-1.681-7.655-4.418
				c-1.323-2.263-32.328-53.483-102.823-14.349c-2.759,1.567-6.147,1.533-8.874-0.09c-2.727-1.623-4.373-4.584-4.312-7.756
				c0.061-3.172,1.82-6.068,4.608-7.584c86.099-47.832,126.319,20.302,126.711,20.991c1.56,2.731,1.549,6.085-0.028,8.806
				C425.379,220.029,422.474,221.705,419.329,221.709z"/>
		</g>
	</g>
	<path style="fill:#35495E;" d="M300.148,451.226h-88.276c8.828-26.483,44.138-26.483,44.138-26.483S291.32,424.743,300.148,451.226
		z"/>
	<path style="fill:#B0D3F0;" d="M129.687,68.55C86.432,89.295,46.355,95.739,40.175,82.939
		c-6.179-12.888,23.923-40.077,67.178-60.91c43.343-20.833,83.421-27.277,89.6-14.389C203.044,20.44,173.03,47.717,129.687,68.55z"
		/>
	<path style="fill:none;stroke:#000000;stroke-width:2;stroke-linecap:round;stroke-linejoin:round;" d="M70.454,145.174
		l-0.706-1.501"/>
	<path style="fill:#B0D3F0;" d="M471.844,82.939c-6.179,12.8-46.257,6.356-89.512-14.389c-43.343-20.833-73.357-48.11-67.266-60.91
		c6.179-12.888,46.257-6.444,89.6,14.389C447.921,42.862,478.023,70.051,471.844,82.939z"/>
	<path style="fill:#35495E;" d="M471.844,82.939l-23.658,48.728l-5.914,12.006h-0.088c-2.913,6.003-13.065,7.768-27.543,5.914
		c-21.564-3.596-42.458-10.442-61.97-20.303c-37.87-18.185-65.589-41.225-67.708-55.349c-0.463-1.86-0.276-3.822,0.53-5.561
		l16.861-34.604l12.712-26.13c-6.091,12.8,23.923,40.077,67.267,60.91C425.588,89.295,465.665,95.739,471.844,82.939z"/>
	<g>
		<path style="fill:#F0785A;" d="M44.589,301.157l-1.236,0.53l-1.589-3.443c-3.087-6.932-5.596-14.107-7.503-21.451
			C14.84,201.847,63.833,131.668,63.833,131.668l5.914,12.006h0.088c2.913,6.003,13.065,7.768,27.543,5.914l0.177,1.501
			C97.555,151.088,35.761,212.881,44.589,301.157z"/>
		<path style="fill:#F0785A;" d="M477.759,276.793c-1.907,7.345-4.417,14.519-7.503,21.451l-1.589,3.443l-1.236-0.53
			c8.828-88.276-52.966-150.069-52.966-150.069l0.177-1.501c14.477,1.854,24.629,0.088,27.543-5.914h0.088l5.914-12.006
			C448.186,131.668,497.179,201.847,477.759,276.793z"/>
		<path style="fill:#F0785A;" d="M285.494,68.374c-0.806,1.739-0.993,3.701-0.53,5.561c-19.182-3.06-38.728-3.06-57.91,0
			c0.463-1.86,0.276-3.822-0.53-5.561l-16.86-34.604c30.332-8.356,62.358-8.356,92.69,0L285.494,68.374z"/>
	</g>
	<g>
		<path style="fill:#35495E;" d="M88.992,406.735l-0.706,0.353l-37.87-6.356c-9.336-1.524-17.146-7.92-20.48-16.772l-17.037-45.55
			c-2.59-6.883-2.174-14.537,1.148-21.098l20.215-40.519c1.907,7.345,4.417,14.519,7.503,21.451l1.589,3.443
			C61.273,342.206,74.779,378.487,88.992,406.735z"/>
		<path style="fill:#35495E;" d="M227.055,73.935c-2.119,14.124-29.837,37.164-67.708,55.349
			c-19.511,9.862-40.405,16.707-61.97,20.303c-14.477,1.854-24.629,0.088-27.543-5.914h-0.088l-5.914-12.006L40.175,82.939
			c6.179,12.8,46.257,6.356,89.512-14.389c43.343-20.833,73.357-48.11,67.266-60.91l12.712,26.13l16.861,34.604
			C227.332,70.113,227.519,72.075,227.055,73.935z"/>
		<path style="fill:#35495E;" d="M499.121,338.41l-17.037,45.55c-3.334,8.852-11.144,15.248-20.48,16.772l-37.87,6.356l-0.706-0.353
			c14.212-28.248,27.719-64.53,45.639-105.048l1.589-3.443c3.087-6.932,5.596-14.107,7.503-21.451l20.215,40.519
			C501.295,323.873,501.712,331.527,499.121,338.41z"/>
	</g>
	<g>
		<path style="fill:#F0785A;" d="M185.742,485.742l-0.353,0.794c-61.793,52.966-132.414,8.828-132.414,8.828
			c35.31-17.655,44.138-70.621,44.138-70.621l1.236-0.706c8.499,17.079,22.231,30.996,39.194,39.724
			C151.932,470.029,168.97,478.062,185.742,485.742z"/>
		<path style="fill:#F0785A;" d="M459.044,495.364c0,0-70.621,44.138-132.414-8.828l-0.353-0.794
			c16.772-7.68,33.81-15.713,48.199-21.981c16.963-8.728,30.695-22.645,39.195-39.724l1.236,0.706
			C414.906,424.743,423.734,477.709,459.044,495.364z"/>
	</g>
	<g>
		<circle style="fill:#FB7B76;" cx="132.423" cy="274.675" r="17.655"/>
		<circle style="fill:#FB7B76;" cx="176.561" cy="283.502" r="8.828"/>
		<circle style="fill:#FB7B76;" cx="344.286" cy="274.675" r="17.655"/>
		<circle style="fill:#FB7B76;" cx="388.423" cy="283.502" r="8.828"/>
	</g>
</g>
<g>
</g>
<g>
</g>
<g>
</g>
<g>
</g>
<g>
</g>
<g>
</g>
<g>
</g>
<g>
</g>
<g>
</g>
<g>
</g>
<g>
</g>
<g>
</g>
<g>
</g>
<g>
</g>
<g>
</g>
</svg>
