<?xml version="1.0" encoding="iso-8859-1"?>
<!-- Generator: Adobe Illustrator 19.0.0, SVG Export Plug-In . SVG Version: 6.00 Build 0)  -->
<svg version="1.1" id="Capa_1" xmlns="http://www.w3.org/2000/svg" xmlns:xlink="http://www.w3.org/1999/xlink" x="0px" y="0px"
	 viewBox="0 0 512 512" style="enable-background:new 0 0 512 512;" xml:space="preserve">
<g>
	<path style="fill:#FF5364;" d="M429.286,136.563c6.215-9.207,10.342-19.662,12.094-30.632l8.828-44.138
		c0,0,17.655-61.793-52.966-61.793S291.31,35.31,291.31,35.31c-0.028-9.739-7.916-17.627-17.655-17.655h-35.31
		c-9.739,0.028-17.627,7.916-17.655,17.655c0,0-35.31-35.31-105.931-35.31S61.793,61.793,61.793,61.793l8.828,44.138
		c1.759,10.995,5.885,21.477,12.094,30.72c-41.852,44.134-65.144,102.664-65.059,163.487v123.586
		c-0.032,27.768,13.06,53.919,35.31,70.532v0.088c15.267,11.485,33.861,17.682,52.966,17.655h300.138
		c19.105,0.027,37.698-6.171,52.966-17.655v-0.088c22.251-16.613,35.342-42.764,35.31-70.532V300.138
		C494.43,239.289,471.14,180.731,429.286,136.563z"/>
	<path style="fill:#B0D3F0;" d="M52.966,379.586l0,114.67c-22.251-16.613-35.342-42.764-35.31-70.532l0-70.621l8.828,0
		c7.027-0.009,13.768,2.778,18.737,7.746C50.188,365.818,52.975,372.56,52.966,379.586z"/>
	<path style="fill:#90BAE1;" d="M494.345,300.138v8.828c-18.731-0.005-36.697,7.434-49.942,20.679
		c-13.245,13.245-20.684,31.211-20.679,49.942v130.648c-5.811,1.177-11.726,1.769-17.655,1.766H105.931
		c-5.929,0.003-11.844-0.588-17.655-1.766V379.586c0.005-18.731-7.434-36.697-20.679-49.942s-31.211-20.684-49.942-20.679v-8.828
		c-0.085-60.823,23.207-119.353,65.059-163.487c7.945,10.417,20.745,16.684,40.872,4.59c33.824-21.47,66.257-45.057,97.103-70.621
		c0.029,9.739,7.916,17.627,17.655,17.655h35.31c9.739-0.029,17.627-7.916,17.655-17.655c30.847,25.564,63.279,49.151,97.103,70.621
		c20.127,12.094,32.927,5.738,40.872-4.679C471.14,180.731,494.43,239.289,494.345,300.138z"/>
	<path style="fill:#B0D3F0;" d="M485.517,353.103l8.828,0l0,70.621c0.032,27.768-13.06,53.919-35.31,70.532l0-114.67
		c-0.009-7.027,2.778-13.768,7.746-18.737C471.749,355.881,478.491,353.094,485.517,353.103z"/>
	<g>
		<path style="fill:#2980BA;" d="M88.276,379.586v130.648c-12.804-2.61-24.866-8.038-35.31-15.89V379.586
			c0.009-7.027-2.778-13.768-7.746-18.737c-4.969-4.969-11.71-7.756-18.737-7.746h-8.828v-44.138
			c18.731-0.005,36.697,7.434,49.942,20.679S88.281,360.855,88.276,379.586z"/>
		<path style="fill:#2980BA;" d="M494.345,308.966v44.138h-8.828c-7.027-0.009-13.768,2.778-18.736,7.746
			c-4.969,4.969-7.756,11.71-7.746,18.737v114.759c-10.445,7.852-22.507,13.28-35.31,15.89V379.586
			c-0.005-18.731,7.434-36.697,20.679-49.942C457.648,316.399,475.613,308.96,494.345,308.966z"/>
	</g>
	<g>
		<g>
			<path style="fill:#C03A2B;" d="M220.69,61.793c-0.819,0.001-1.635-0.114-2.422-0.34C179.154,51.3,138.513,48.393,98.353,52.875
				c-4.825,0.69-9.297-2.662-9.987-7.487c-0.69-4.825,2.662-9.297,7.487-9.987c42.616-4.952,85.782-1.873,127.263,9.077
				c4.232,1.211,6.925,5.354,6.314,9.712C228.82,58.55,225.091,61.792,220.69,61.793z"/>
			<path style="fill:#C03A2B;" d="M114.759,105.931c-3.57-0.001-6.788-2.152-8.154-5.45c-1.366-3.298-0.611-7.094,1.913-9.619
				c28.345-28.349,107.828-37.47,111.198-37.841c4.836-0.524,9.184,2.964,9.722,7.798c0.538,4.834-2.937,9.193-7.77,9.745
				c-21.254,2.371-80.767,12.879-100.668,32.78C119.347,105.003,117.1,105.934,114.759,105.931z"/>
			<path style="fill:#C03A2B;" d="M291.306,61.797c-4.401-0.004-8.127-3.248-8.737-7.607c-0.61-4.359,2.084-8.501,6.315-9.712
				c41.482-10.948,84.647-14.027,127.263-9.078c4.825,0.69,8.177,5.162,7.487,9.987c-0.69,4.825-5.162,8.177-9.987,7.487
				c-40.158-4.495-80.8-1.588-119.91,8.578C292.947,61.68,292.129,61.797,291.306,61.797z"/>
			<path style="fill:#C03A2B;" d="M397.241,105.931c-2.342,0.003-4.588-0.928-6.241-2.586
				c-19.931-19.927-79.422-30.418-100.664-32.78c-4.838-0.545-8.321-4.905-7.783-9.744c0.537-4.839,4.892-8.329,9.731-7.799
				c3.371,0.371,82.853,9.491,111.198,37.841c2.524,2.525,3.279,6.321,1.913,9.62C404.03,103.78,400.812,105.931,397.241,105.931z"
				/>
		</g>
		<g>
			<path style="fill:#35495E;" d="M158.897,370.759h194.207c14.626,0,26.483,11.857,26.483,26.483v52.966
				c0,14.626-11.857,26.483-26.483,26.483H158.897c-14.626,0-26.483-11.857-26.483-26.483v-52.966
				C132.414,382.615,144.271,370.759,158.897,370.759z"/>
			<path style="fill:#35495E;" d="M114.759,176.552h282.483c14.626,0,26.483,11.857,26.483,26.483v97.103
				c0,14.626-11.857,26.483-26.483,26.483H114.759c-14.626,0-26.483-11.857-26.483-26.483v-97.103
				C88.276,188.408,100.133,176.552,114.759,176.552z"/>
		</g>
		<path style="fill:#CC4B4C;" d="M238.345,17.655h35.31c9.751,0,17.655,7.904,17.655,17.655v35.31
			c0,9.751-7.904,17.655-17.655,17.655h-35.31c-9.751,0-17.655-7.904-17.655-17.655V35.31
			C220.69,25.56,228.594,17.655,238.345,17.655z"/>
		<g>
			<path style="fill:#FF5364;" d="M229.517,441.379c-3.569-0.014-6.782-2.168-8.151-5.465s-0.626-7.092,1.883-9.631
				c0.842-0.8,1.83-1.43,2.909-1.858c2.151-0.879,4.561-0.879,6.711,0c1.081,0.428,2.07,1.059,2.915,1.858
				c0.778,0.858,1.405,1.842,1.854,2.909c0.943,2.138,0.943,4.573,0,6.711c-0.429,1.08-1.058,2.068-1.854,2.914
				C234.092,440.43,231.854,441.344,229.517,441.379z"/>
			<path style="fill:#FF5364;" d="M211.862,423.724c-0.592-0.02-1.183-0.079-1.767-0.177c-0.553-0.098-1.089-0.277-1.591-0.53
				c-0.562-0.195-1.095-0.463-1.586-0.797c-0.444-0.349-0.884-0.703-1.323-1.056c-3.414-3.481-3.414-9.054,0-12.534
				c0.44-0.353,0.879-0.707,1.323-1.06c0.491-0.334,1.025-0.603,1.586-0.797c0.501-0.254,1.037-0.432,1.591-0.526
				c1.162-0.267,2.369-0.267,3.53,0c0.554,0.095,1.09,0.272,1.591,0.526c0.563,0.194,1.098,0.462,1.591,0.797
				c0.44,0.353,0.879,0.707,1.323,1.06c0.778,0.858,1.405,1.842,1.854,2.909c0.943,2.138,0.943,4.573,0,6.711
				c-0.429,1.08-1.058,2.068-1.854,2.914c-0.444,0.353-0.884,0.707-1.323,1.056c-0.492,0.335-1.027,0.603-1.591,0.797
				c-0.501,0.253-1.037,0.432-1.591,0.53C213.042,423.645,212.453,423.704,211.862,423.724z"/>
			<path style="fill:#FF5364;" d="M300.138,423.724c-4.007,0-7.513-2.693-8.548-6.563c-1.035-3.871,0.661-7.954,4.133-9.953
				s7.854-1.416,10.683,1.421c0.778,0.858,1.405,1.842,1.854,2.909c0.943,2.138,0.943,4.573,0,6.711
				c-0.429,1.08-1.058,2.068-1.854,2.914C304.712,422.774,302.475,423.689,300.138,423.724z"/>
			<path style="fill:#FF5364;" d="M256,450.207c-1.155-0.014-2.296-0.254-3.358-0.707c-2.215-0.807-3.96-2.552-4.767-4.767
				c-0.937-2.139-0.937-4.572,0-6.711c0.427-1.08,1.058-2.068,1.857-2.91c0.857-0.78,1.841-1.409,2.909-1.858
				c3.29-1.375,7.084-0.643,9.626,1.858c0.797,0.843,1.426,1.831,1.854,2.909c0.943,2.138,0.943,4.573,0,6.711
				C262.851,448.096,259.595,450.291,256,450.207z"/>
			<path style="fill:#FF5364;" d="M282.483,441.379c-2.337-0.035-4.575-0.949-6.268-2.56c-0.353-0.444-0.707-0.884-1.06-1.323
				c-0.335-0.492-0.603-1.027-0.797-1.591c-0.254-0.501-0.431-1.037-0.526-1.591c-0.099-0.583-0.158-1.172-0.176-1.763
				c-0.014-3.591,2.14-6.836,5.455-8.217c3.315-1.381,7.136-0.625,9.676,1.914c2.54,2.539,3.296,6.36,1.914,9.676
				C289.319,439.24,286.074,441.394,282.483,441.379z"/>
		</g>
		<g>
			<path style="fill:#2FA8CC;" d="M167.724,238.345c-1.155-0.014-2.296-0.254-3.358-0.707c-1.068-0.449-2.051-1.076-2.91-1.854
				c-1.612-1.692-2.527-3.93-2.56-6.267c0.012-1.154,0.251-2.295,0.703-3.358c0.811-2.213,2.554-3.956,4.767-4.767
				c3.291-1.367,7.08-0.636,9.626,1.857c0.778,0.858,1.405,1.842,1.854,2.909c0.943,2.138,0.943,4.573,0,6.711
				c-0.449,1.069-1.076,2.054-1.854,2.914C172.299,237.395,170.061,238.309,167.724,238.345z"/>
			<path style="fill:#2FA8CC;" d="M185.379,220.69c-0.592-0.02-1.183-0.079-1.767-0.177c-0.553-0.098-1.089-0.277-1.591-0.53
				c-0.542-0.178-1.049-0.448-1.5-0.797c-0.507-0.3-0.979-0.654-1.41-1.056c-0.799-0.844-1.429-1.833-1.858-2.914
				c-0.937-2.139-0.937-4.572,0-6.711c0.449-1.069,1.077-2.053,1.858-2.91c0.44-0.353,0.879-0.707,1.41-1.06
				c0.451-0.35,0.958-0.619,1.5-0.797c0.501-0.254,1.037-0.431,1.591-0.526c1.162-0.267,2.369-0.267,3.53,0
				c0.554,0.095,1.09,0.272,1.591,0.526c0.563,0.194,1.098,0.462,1.591,0.797c0.44,0.353,0.879,0.707,1.323,1.06
				c0.778,0.858,1.405,1.842,1.854,2.909c0.943,2.138,0.943,4.573,0,6.711c-0.429,1.08-1.058,2.068-1.854,2.914
				c-0.419,0.378-0.861,0.731-1.323,1.056c-0.492,0.335-1.027,0.603-1.591,0.797c-0.501,0.253-1.037,0.432-1.591,0.53
				C186.559,220.61,185.97,220.669,185.379,220.69z"/>
			<path style="fill:#2FA8CC;" d="M185.379,291.31c-0.592-0.02-1.183-0.079-1.767-0.177c-0.553-0.098-1.089-0.277-1.591-0.53
				c-0.542-0.178-1.049-0.448-1.5-0.797c-0.53-0.35-0.97-0.703-1.41-1.056c-0.799-0.844-1.429-1.833-1.858-2.914
				c-0.451-1.061-0.69-2.201-0.702-3.354c0.016-2.341,0.933-4.585,2.56-6.268c3.539-3.267,8.995-3.267,12.534,0
				c1.626,1.684,2.542,3.927,2.561,6.268c-0.014,1.153-0.254,2.293-0.707,3.353c-0.429,1.08-1.058,2.068-1.854,2.914
				c-0.444,0.353-0.884,0.707-1.323,1.056c-0.492,0.335-1.027,0.603-1.591,0.797c-0.501,0.253-1.037,0.432-1.591,0.53
				C186.559,291.231,185.97,291.29,185.379,291.31z"/>
			<path style="fill:#2FA8CC;" d="M203.035,238.345c-1.155-0.014-2.296-0.254-3.358-0.707c-1.068-0.449-2.051-1.076-2.91-1.854
				c-0.353-0.444-0.707-0.884-1.06-1.414c-0.351-0.45-0.621-0.957-0.797-1.5c-0.267-0.526-0.445-1.093-0.526-1.677
				c-0.104-0.553-0.163-1.114-0.177-1.676c0.014-0.593,0.073-1.184,0.177-1.767c0.095-0.554,0.272-1.09,0.526-1.591
				c0.195-0.562,0.463-1.095,0.797-1.586c0.353-0.444,0.707-0.884,1.06-1.323c3.539-3.267,8.995-3.267,12.534,0
				c0.353,0.44,0.707,0.879,1.056,1.323c0.334,0.491,0.603,1.025,0.797,1.586c0.253,0.501,0.432,1.037,0.53,1.591
				c0.102,0.584,0.161,1.175,0.177,1.767c-0.016,0.563-0.075,1.123-0.177,1.677c-0.085,0.584-0.264,1.15-0.53,1.677
				c-0.176,0.543-0.446,1.05-0.797,1.5c-0.349,0.53-0.703,0.97-1.056,1.414c-0.846,0.796-1.834,1.425-2.914,1.854
				C205.327,238.091,204.188,238.331,203.035,238.345z"/>
			<path style="fill:#2FA8CC;" d="M220.69,256c-3.569-0.014-6.782-2.168-8.151-5.464c-1.369-3.297-0.626-7.093,1.883-9.631
				c0.857-0.78,1.841-1.409,2.909-1.858c2.151-0.879,4.561-0.879,6.711,0c2.215,0.807,3.96,2.552,4.767,4.767
				c0.943,2.138,0.943,4.573,0,6.711c-0.429,1.08-1.058,2.068-1.854,2.914C225.263,255.05,223.026,255.964,220.69,256z"/>
			<path style="fill:#2FA8CC;" d="M203.035,273.655c-1.155-0.014-2.296-0.254-3.358-0.707c-1.068-0.449-2.051-1.076-2.91-1.854
				c-0.353-0.444-0.707-0.884-1.06-1.323c-0.335-0.492-0.603-1.027-0.797-1.591c-0.254-0.501-0.431-1.037-0.526-1.591
				c-0.236-1.165-0.236-2.365,0-3.53c0.095-0.554,0.272-1.09,0.526-1.591c0.195-0.562,0.463-1.095,0.797-1.586
				c0.353-0.444,0.707-0.884,1.06-1.323c0.857-0.78,1.841-1.409,2.91-1.858c2.151-0.879,4.561-0.879,6.711,0
				c1.081,0.428,2.07,1.059,2.914,1.858c0.353,0.44,0.707,0.879,1.056,1.323c0.334,0.491,0.603,1.025,0.797,1.586
				c0.253,0.501,0.432,1.037,0.53,1.591c0.236,1.165,0.236,2.365,0,3.53c-0.098,0.553-0.277,1.089-0.53,1.591
				c-0.194,0.563-0.462,1.098-0.797,1.591c-0.349,0.44-0.703,0.879-1.056,1.323c-0.846,0.796-1.834,1.425-2.914,1.854
				C205.327,273.401,204.188,273.641,203.035,273.655z"/>
			<path style="fill:#2FA8CC;" d="M167.724,273.655c-1.155-0.014-2.296-0.254-3.358-0.707c-1.068-0.449-2.051-1.076-2.91-1.854
				c-1.612-1.692-2.527-3.93-2.56-6.267c0.012-1.154,0.251-2.295,0.703-3.358c0.811-2.213,2.554-3.956,4.767-4.767
				c3.291-1.367,7.08-0.636,9.626,1.857c0.778,0.858,1.405,1.842,1.854,2.909c0.943,2.138,0.943,4.573,0,6.711
				c-0.429,1.08-1.058,2.068-1.854,2.914C172.299,272.705,170.061,273.62,167.724,273.655z"/>
			<path style="fill:#2FA8CC;" d="M150.069,256c-1.155-0.014-2.296-0.254-3.358-0.707c-1.079-0.428-2.066-1.057-2.909-1.854
				c-1.612-1.692-2.527-3.93-2.56-6.267c0.018-0.592,0.077-1.183,0.177-1.767c0.095-0.554,0.272-1.09,0.526-1.591
				c0.178-0.542,0.448-1.049,0.797-1.5c0.302-0.507,0.657-0.979,1.06-1.41c0.842-0.8,1.83-1.43,2.909-1.858
				c1.611-0.702,3.401-0.886,5.121-0.526c0.554,0.095,1.09,0.272,1.591,0.526c0.563,0.194,1.098,0.462,1.591,0.797
				c0.44,0.353,0.879,0.707,1.323,1.06c0.353,0.44,0.707,0.879,1.056,1.41c0.35,0.451,0.619,0.958,0.797,1.5
				c0.253,0.501,0.432,1.037,0.53,1.591c0.097,0.585,0.157,1.175,0.177,1.768c-0.035,2.337-0.949,4.574-2.56,6.268
				c-0.444,0.353-0.884,0.707-1.323,1.056c-0.492,0.335-1.027,0.603-1.591,0.797c-0.501,0.253-1.037,0.432-1.591,0.53
				C151.25,255.925,150.66,255.984,150.069,256z"/>
			<path style="fill:#2FA8CC;" d="M308.966,238.345c-2.34-0.018-4.584-0.935-6.268-2.56c-1.612-1.692-2.527-3.93-2.56-6.268
				c0.018-0.592,0.077-1.183,0.177-1.767c0.095-0.554,0.272-1.09,0.526-1.591c0.195-0.562,0.463-1.095,0.797-1.586
				c0.353-0.444,0.707-0.884,1.06-1.323c0.44-0.353,0.879-0.707,1.323-1.06c0.491-0.334,1.025-0.603,1.586-0.797
				c0.501-0.254,1.037-0.431,1.591-0.526c2.907-0.581,5.914,0.311,8.035,2.383c1.625,1.684,2.542,3.927,2.56,6.268
				c-0.014,1.153-0.254,2.293-0.707,3.353C315.816,236.234,312.56,238.429,308.966,238.345z"/>
			<path style="fill:#2FA8CC;" d="M326.621,220.69c-2.337-0.035-4.575-0.949-6.268-2.56c-1.627-1.683-2.544-3.927-2.56-6.268
				c0.012-1.154,0.251-2.295,0.703-3.358c0.449-1.069,1.077-2.053,1.857-2.91c2.557-2.467,6.329-3.196,9.621-1.858
				c1.07,0.449,2.056,1.077,2.914,1.858c3.414,3.481,3.414,9.054,0,12.534c-0.86,0.778-1.845,1.405-2.914,1.854
				C328.914,220.435,327.774,220.675,326.621,220.69z"/>
			<path style="fill:#2FA8CC;" d="M326.621,291.31c-2.337-0.035-4.575-0.949-6.268-2.56c-1.627-1.683-2.544-3.927-2.56-6.268
				c0.012-1.154,0.251-2.295,0.703-3.358c0.427-1.08,1.058-2.068,1.857-2.91c2.828-2.86,7.227-3.457,10.715-1.455
				c3.488,2.003,5.191,6.103,4.147,9.987C334.171,288.632,330.643,291.326,326.621,291.31z"/>
			<path style="fill:#2FA8CC;" d="M344.276,238.345c-4.163-0.041-7.72-3.011-8.502-7.1c-0.782-4.089,1.427-8.162,5.281-9.736
				c3.854-1.574,8.283-0.213,10.588,3.255c2.304,3.467,1.844,8.078-1.1,11.022C348.851,237.396,346.613,238.31,344.276,238.345z"/>
			<path style="fill:#2FA8CC;" d="M361.931,256c-2.337-0.035-4.575-0.949-6.268-2.56c-1.627-1.683-2.544-3.927-2.56-6.268
				c0.012-1.154,0.251-2.295,0.703-3.358c0.406-1.09,1.039-2.082,1.857-2.91c3.539-3.267,8.995-3.267,12.534,0
				c0.815,0.829,1.447,1.82,1.854,2.909c0.453,1.062,0.693,2.203,0.707,3.358c-0.018,2.34-0.935,4.584-2.56,6.268
				C366.505,255.051,364.268,255.965,361.931,256z"/>
			<path style="fill:#2FA8CC;" d="M344.276,273.655c-4.163-0.041-7.72-3.011-8.502-7.1c-0.782-4.089,1.427-8.162,5.281-9.736
				c3.854-1.574,8.283-0.213,10.588,3.255c2.304,3.467,1.844,8.078-1.1,11.022C348.851,272.707,346.613,273.621,344.276,273.655z"/>
			<path style="fill:#2FA8CC;" d="M308.966,273.655c-3.569-0.014-6.782-2.168-8.151-5.465c-1.369-3.297-0.626-7.092,1.883-9.631
				c0.44-0.353,0.879-0.707,1.323-1.06c0.491-0.334,1.025-0.603,1.586-0.797c0.501-0.254,1.037-0.431,1.591-0.526
				c2.905-0.536,5.892,0.35,8.035,2.383c0.815,0.829,1.447,1.82,1.854,2.909c0.453,1.062,0.693,2.203,0.707,3.358
				c-0.018,2.34-0.935,4.584-2.56,6.268C313.54,272.706,311.302,273.62,308.966,273.655z"/>
			<path style="fill:#2FA8CC;" d="M291.31,256c-0.592-0.02-1.183-0.079-1.767-0.177c-0.553-0.098-1.089-0.277-1.591-0.53
				c-0.561-0.195-1.095-0.463-1.586-0.797c-0.444-0.349-0.884-0.703-1.323-1.056c-0.353-0.444-0.707-0.884-1.06-1.323
				c-0.335-0.492-0.603-1.027-0.797-1.591c-0.254-0.501-0.431-1.037-0.526-1.591c-0.099-0.583-0.158-1.172-0.177-1.763
				c0-4.875,3.952-8.828,8.828-8.828s8.828,3.952,8.828,8.828c-0.02,0.591-0.079,1.18-0.177,1.763
				c-0.098,0.553-0.277,1.089-0.53,1.591c-0.194,0.563-0.462,1.098-0.797,1.591c-0.349,0.44-0.703,0.879-1.056,1.323
				C295.885,255.05,293.647,255.965,291.31,256z"/>
		</g>
	</g>
</g>
<g>
</g>
<g>
</g>
<g>
</g>
<g>
</g>
<g>
</g>
<g>
</g>
<g>
</g>
<g>
</g>
<g>
</g>
<g>
</g>
<g>
</g>
<g>
</g>
<g>
</g>
<g>
</g>
<g>
</g>
</svg>
