<?xml version="1.0" encoding="iso-8859-1"?>
<!-- Generator: Adobe Illustrator 19.0.0, SVG Export Plug-In . SVG Version: 6.00 Build 0)  -->
<svg version="1.1" id="Capa_1" xmlns="http://www.w3.org/2000/svg" xmlns:xlink="http://www.w3.org/1999/xlink" x="0px" y="0px"
	 viewBox="0 0 512.008 512.008" style="enable-background:new 0 0 512.008 512.008;" xml:space="preserve">
<g transform="translate(-1 -1)">
	<path style="fill:#D25627;" d="M476.635,297.35c23.938-78.911,3.721-164.597-52.966-224.486
		C358.216,3.564,256.714-18.016,168.729,18.663c-29.686,12.289-56.41,30.767-78.389,54.201
		c-40.457,42.508-62.969,98.977-62.852,157.661c0,6.709,0.265,13.33,0.883,19.862v0.088c-0.604,4.979-0.899,9.991-0.883,15.007
		v117.23c-0.18,10.97,4.007,21.562,11.64,29.443s18.085,12.405,29.056,12.576h3.443c0,0,0,61.793,70.621,61.793v26.483h211.862
		v-26.483c70.621,0,70.621-61.793,70.621-61.793l0.177-0.794c2.047,0.53,4.153,0.797,6.268,0.794
		c7.662,0.003,14.87-3.634,19.421-9.799c17.142-22.615,26.635-50.103,27.101-78.477c0-12.182,0-25.335-1.059-39.018V297.35z
		 M164.681,312.526c7.485-10.688,21.65-14.313,33.349-8.536c11.699,5.778,17.43,19.229,13.493,31.669
		c-3.937,12.44-16.364,20.144-29.257,18.139c-12.893-2.005-22.393-13.121-22.365-26.169
		C159.882,322.22,161.554,316.939,164.681,312.526z M309.97,301.146c8.691,0.013,16.822,4.294,21.75,11.453
		c3.102,4.396,4.756,9.65,4.733,15.03c0,14.626-11.857,26.483-26.483,26.483c-14.626,0-26.483-11.857-26.483-26.483
		S295.344,301.146,309.97,301.146z"/>
	<path style="fill:#95A5A5;" d="M407.25,403.899c-0.088-1.059-0.177-2.119-0.177-3.266v-46.521c0-8.828,0-26.483-26.483-44.138
		c-26.483-17.655-17.832-80.684-17.832-80.684c-0.177,0-0.441,0.088-0.618,0.088c-11.476,1.324-23.834-0.088-34.516,0.177
		c-15.978,0.265-32.132,2.03-48.022,3.619c-37.279,2.913-74.082,10.232-109.639,21.804c-24.894,8.828-61.087,25.247-61.087,57.644
		v70.091c0.321,21.501-15.859,39.675-37.252,41.843c-1.148,0.088-2.295,0.177-3.443,0.177h3.443c0,0,0,61.793,70.621,61.793h211.862
		c70.621,0,70.621-61.793,70.621-61.793l0.177-0.794C415.593,421.309,408.685,413.468,407.25,403.899z"/>
	<g>
		<path style="fill:#F29C1F;" d="M130.947,121.593c-30.558,17.72-57.317,41.299-78.742,69.385
			c-13.14,17.301-21.374,37.824-23.834,59.41c-0.618-6.532-0.883-13.153-0.883-19.862C27.371,171.842,49.882,115.373,90.34,72.865
			L130.947,121.593z"/>
		<path style="fill:#F29C1F;" d="M257.005,1.008v88.541c-21.055-0.933-42.135,1.178-62.588,6.268l-25.688-77.153
			C196.688,6.97,226.698,0.968,257.005,1.008z"/>
	</g>
	<path style="fill:#F0C419;" d="M390.566,213.841c-0.991,1.508-2.114,2.926-3.354,4.237c-6.612,6.447-15.252,10.408-24.452,11.211
		c-0.177,0-0.441,0.088-0.618,0.088c-11.476,1.324-23.834-0.088-34.516,0.177c-15.978,0.265-32.132,2.03-48.022,3.619
		c-37.279,2.913-74.082,10.232-109.639,21.804c-24.894,8.828-61.087,25.247-61.087,57.644v70.091
		c0.321,21.501-15.859,39.675-37.252,41.843c-1.148,0.088-2.295,0.177-3.443,0.177c-10.97-0.171-21.423-4.695-29.056-12.576
		s-11.82-18.473-11.64-29.443v-117.23c-0.016-5.016,0.279-10.028,0.883-15.007v-0.088c2.46-21.586,10.694-42.109,23.834-59.41
		c21.425-28.085,48.184-51.665,78.742-69.385c19.833-11.548,41.202-20.226,63.47-25.777c20.452-5.089,41.532-7.2,62.588-6.268
		c15.192,0.63,30.264,2.969,44.932,6.974c5.297,1.412,10.593,3.001,15.801,4.855c9.634,3.317,18.966,7.452,27.895,12.359
		c9.962,5.407,19.139,12.149,27.277,20.039c8.809,8,15.82,17.778,20.568,28.69c1.223,2.711,2.226,5.515,3.001,8.386
		C400.892,185.356,398.731,201.066,390.566,213.841z"/>
	<path style="fill:#E57E25;" d="M477.694,336.457c-0.466,28.374-9.958,55.862-27.101,78.477c-4.55,6.165-11.758,9.801-19.421,9.799
		c-2.114,0.002-4.221-0.265-6.268-0.794c-9.312-2.629-16.22-10.47-17.655-20.039c-0.088-1.059-0.177-2.119-0.177-3.266v-11.211
		c65.854-98.869-6.532-166.93-16.508-175.581c8.165-12.775,10.326-28.485,5.914-42.99c-0.775-2.871-1.779-5.675-3.001-8.386
		c64.441,40.254,79.536,90.218,83.156,134.885v0.088C477.694,311.121,477.694,324.275,477.694,336.457z"/>
	<path style="fill:#F29C1F;" d="M423.669,72.865l-50.759,60.91c-8.138-7.889-17.315-14.631-27.277-20.039
		c-8.929-4.907-18.262-9.042-27.895-12.359l27.542-82.714C374.966,30.952,401.69,49.43,423.669,72.865z"/>
	<rect x="142.246" y="486.526" style="fill:#547580;" width="211.862" height="26.483"/>
	<path style="fill:#F29C1F;" d="M407.073,389.422v-35.31c0-8.828,0-26.483-26.483-44.138
		c-26.483-17.655-17.832-80.684-17.832-80.684c9.2-0.803,17.84-4.764,24.452-11.211c1.24-1.311,2.363-2.729,3.354-4.237
		C400.541,222.492,472.927,290.553,407.073,389.422z"/>
	<g>
		<path style="fill:#547580;" d="M362.936,415.905c-2.337-0.035-4.575-0.949-6.268-2.56c-0.78-0.859-1.409-1.844-1.858-2.914
			c-0.451-1.061-0.69-2.201-0.702-3.354c0.033-2.337,0.947-4.576,2.56-6.268c0.857-0.78,1.841-1.409,2.909-1.858
			c2.151-0.879,4.561-0.879,6.711,0c1.081,0.428,2.07,1.059,2.914,1.858c2.546,2.526,3.312,6.341,1.937,9.653
			S366.522,415.926,362.936,415.905z"/>
		<g>
			<path style="fill:#804169;" d="M195.211,354.112c-24.365-0.029-44.109-19.773-44.138-44.138c0-4.875,3.952-8.828,8.828-8.828
				s8.828,3.952,8.828,8.828c0,14.626,11.857,26.483,26.483,26.483s26.483-11.857,26.483-26.483c0-4.875,3.952-8.828,8.828-8.828
				s8.828,3.952,8.828,8.828C239.321,334.339,219.576,354.083,195.211,354.112z"/>
			<path style="fill:#804169;" d="M195.211,371.767c-4.875,0-8.828-3.952-8.828-8.828v-17.655c0-4.875,3.952-8.828,8.828-8.828
				s8.828,3.952,8.828,8.828v17.655C204.039,367.815,200.087,371.767,195.211,371.767z"/>
			<path style="fill:#804169;" d="M159.901,362.939c-3.57-0.001-6.788-2.152-8.154-5.45c-1.366-3.298-0.611-7.094,1.913-9.619
				l15.185-15.185c3.447-3.447,9.036-3.447,12.483,0c3.447,3.447,3.447,9.036,0,12.483l-15.186,15.185
				C164.489,362.011,162.243,362.942,159.901,362.939z"/>
			<path style="fill:#804169;" d="M230.522,362.939c-2.342,0.003-4.588-0.928-6.241-2.586l-15.185-15.185
				c-3.447-3.447-3.447-9.036,0-12.483c3.447-3.447,9.036-3.447,12.483,0l15.185,15.186c2.524,2.525,3.279,6.321,1.913,9.619
				C237.31,360.788,234.092,362.939,230.522,362.939z"/>
			<path style="fill:#804169;" d="M318.798,354.112c-24.365-0.029-44.109-19.773-44.138-44.138c0-4.875,3.952-8.828,8.828-8.828
				s8.828,3.952,8.828,8.828c0,14.626,11.857,26.483,26.483,26.483s26.483-11.857,26.483-26.483c0-4.875,3.952-8.828,8.828-8.828
				s8.828,3.952,8.828,8.828C362.907,334.339,343.162,354.083,318.798,354.112z"/>
			<path style="fill:#804169;" d="M318.798,371.767c-4.875,0-8.828-3.952-8.828-8.828v-17.655c0-4.875,3.952-8.828,8.828-8.828
				s8.828,3.952,8.828,8.828v17.655C327.625,367.815,323.673,371.767,318.798,371.767z"/>
			<path style="fill:#804169;" d="M283.487,362.939c-3.57-0.001-6.788-2.152-8.154-5.45c-1.366-3.298-0.611-7.094,1.913-9.619
				l15.185-15.185c3.447-3.447,9.036-3.447,12.483,0c3.447,3.447,3.447,9.036,0,12.483l-15.186,15.185
				C288.075,362.011,285.829,362.942,283.487,362.939z"/>
			<path style="fill:#804169;" d="M354.108,362.939c-2.342,0.003-4.588-0.928-6.241-2.586l-15.185-15.185
				c-3.447-3.447-3.447-9.036,0-12.483c3.447-3.447,9.036-3.447,12.483,0l15.185,15.186c2.524,2.525,3.279,6.321,1.913,9.619
				C360.896,360.788,357.678,362.939,354.108,362.939z"/>
		</g>
		<path style="fill:#C03A2B;" d="M259.207,468.875c-4.384-0.004-8.101-3.224-8.73-7.562c-0.629-4.339,2.02-8.482,6.222-9.731
			l21.513-6.388l-6.091-3.392c-4.816-2.378-7.866-7.283-7.866-12.654s3.047-10.277,7.862-12.657l6.086-3.388l-21.504-6.392
			c-4.669-1.391-7.328-6.302-5.941-10.972c1.387-4.67,6.296-7.333,10.967-5.95l27.871,8.276c6.064,1.504,10.603,6.545,11.466,12.733
			c0.539,5.856-2.545,11.45-7.785,14.121l-7.595,4.228l7.595,4.228c5.239,2.671,8.323,8.264,7.785,14.121
			c-0.863,6.189-5.404,11.231-11.47,12.733l-27.866,8.276C260.908,468.749,260.06,468.874,259.207,468.875z"/>
	</g>
</g>
<g>
</g>
<g>
</g>
<g>
</g>
<g>
</g>
<g>
</g>
<g>
</g>
<g>
</g>
<g>
</g>
<g>
</g>
<g>
</g>
<g>
</g>
<g>
</g>
<g>
</g>
<g>
</g>
<g>
</g>
</svg>
