<?xml version="1.0" encoding="iso-8859-1"?>
<!-- Generator: Adobe Illustrator 19.0.0, SVG Export Plug-In . SVG Version: 6.00 Build 0)  -->
<svg version="1.1" id="Capa_1" xmlns="http://www.w3.org/2000/svg" xmlns:xlink="http://www.w3.org/1999/xlink" x="0px" y="0px"
	 viewBox="0 0 512 512" style="enable-background:new 0 0 512 512;" xml:space="preserve">
<g>
	<path style="fill:#894B9D;" d="M494.345,166.815h-4.414c-2.648,0-6.179,0.883-8.828,1.766
		c-3.531-16.772-10.593-32.662-19.421-47.669c2.648,0,4.414,0,4.414,0c3.531-35.31-22.069-46.786-22.069-46.786
		c-5.297,1.766-10.593,3.531-15.89,6.179v-0.883c-14.124-13.241-30.897-24.717-47.669-33.545l2.648-17.655
		c1.766-7.945-6.179-18.538-18.538-23.834s-23.835-4.414-29.131,1.766l-18.538,15.89c-41.49-8.828-84.745-8.828-126.235,0.883
		L170.372,6.153c-5.297-6.179-17.655-7.062-29.131-1.766c-12.359,5.297-20.303,15.89-18.538,23.834l2.648,19.421
		c-15.89,8.828-30.014,19.421-43.255,31.779v0.883c-5.297-0.883-10.593-2.648-15.89-4.414c0,0-25.6,11.476-22.069,46.786
		c0,0,1.766,0,5.297,0c-8.828,15.007-15.007,30.897-19.421,47.669c-2.648-1.766-5.297-2.648-8.828-1.766h-3.531
		C7.945,168.58,0,176.525,0,186.235v35.31c0,9.71,7.945,17.655,17.655,17.655h4.414c2.648,0,6.179-0.883,8.828-1.766
		c0.883,6.179,2.648,11.476,5.297,17.655V440.47c0,18.538,7.062,37.076,20.303,50.317c13.241,13.241,30.897,20.303,49.434,20.303
		h300.138c18.538,0,37.076-7.062,50.317-20.303c13.241-13.241,20.303-31.779,20.303-50.317V253.325
		c1.766-6.179,3.531-11.476,5.297-17.655c2.648,1.766,5.297,2.648,8.828,1.766h3.531c9.71,0,17.655-7.945,17.655-17.655v-35.31
		C512,174.76,504.055,166.815,494.345,166.815z M154.483,115.615C154.483,115.615,154.483,116.498,154.483,115.615
		C154.483,116.498,154.483,115.615,154.483,115.615z"/>
	<g>
		<path style="fill:#95A5A5;" d="M155.366,36.166c-1.766,0.883-4.414,1.766-6.179,1.766c-11.476,2.648-22.069,0-24.717-7.062
			c0,0,0-0.883-0.883-1.766c-1.766-7.945,6.179-18.538,18.538-23.834c12.359-5.297,23.834-4.414,29.131,1.766
			c0.883,0.883,0.883,1.766,1.766,2.648C176.552,18.511,168.607,29.987,155.366,36.166z"/>
		<path style="fill:#95A5A5;" d="M384,29.104c0,0.883,0,0.883-0.883,1.766c-3.531,6.179-10.593,8.828-17.655,7.945
			c-2.648,0-5.297-0.883-7.062-0.883c-1.766-0.883-4.414-0.883-6.179-1.766c-3.531-1.766-6.179-3.531-9.71-5.297
			c-7.062-4.414-10.593-12.359-8.828-20.303c0.883-1.766,1.766-2.648,2.648-3.531c5.297-6.179,17.655-7.062,29.131-1.766
			C377.821,10.566,385.766,21.16,384,29.104z"/>
	</g>
	<path style="fill:#5E5F62;" d="M384,29.104l-2.648,17.655l-1.766,15.007v2.648c0,0.883,0,1.766-0.883,2.648
		c-5.297,11.476-25.6,13.241-45.903,4.414c-20.303-8.828-32.662-24.717-27.366-36.193c0.883-1.766,2.648-3.531,3.531-5.297
		l7.945-7.062l18.538-15.89c0,0.883-0.883,1.766-0.883,3.531c-1.766,7.945,1.766,15.89,8.828,20.303
		c2.648,2.648,6.179,4.414,9.71,5.297c1.766,0.883,4.414,1.766,6.179,1.766c2.648,0.883,4.414,0.883,7.062,0.883
		c7.062,0.883,14.124-1.766,17.655-7.945C383.117,30.87,384,29.987,384,29.104z"/>
	<g>
		<path style="fill:#894B9D;" d="M26.483,202.125c0,11.476,0.883,22.069,3.531,33.545c-2.648,1.766-5.297,2.648-8.828,1.766h-3.531
			C7.945,237.435,0,229.491,0,219.78v-35.31c0-9.71,7.945-17.655,17.655-17.655h4.414c2.648,0,6.179,0.883,8.828,1.766
			C27.366,180.056,26.483,190.649,26.483,202.125z"/>
		<path style="fill:#894B9D;" d="M512,184.47v35.31c0,9.71-7.945,17.655-17.655,17.655h-4.414c-2.648,0-6.179-0.883-8.828-1.766
			c5.297-22.069,5.297-44.138,0-66.207c2.648-1.766,5.297-2.648,8.828-1.766h4.414C504.055,166.815,512,174.76,512,184.47z"/>
		<path style="fill:#894B9D;" d="M216.276,167.698c-58.262-47.669-144.772-46.786-167.724-45.903c-3.531,0-5.297,0-5.297,0
			c-3.531-35.31,22.069-46.786,22.069-46.786c5.297,1.766,11.476,3.531,16.772,6.179
			C188.028,121.794,216.276,167.698,216.276,167.698z"/>
		<path style="fill:#894B9D;" d="M467.862,121.794c0,0-1.766,0-4.414,0c-21.186-0.883-109.462-2.648-167.724,45.903
			c1.766-2.648,31.779-46.786,135.062-86.51c5.297-1.766,10.593-3.531,15.89-6.179C445.793,75.891,470.51,87.366,467.862,121.794z"
			/>
	</g>
	<path style="fill:#FF5364;" d="M431.669,221.546c-1.766,13.241-8.828,25.6-19.421,33.545c-16.772,10.593-35.31,15.89-55.614,15.89
		c-25.6,0-58.262-8.828-70.621-33.545c-14.124-29.131,8.828-67.09,31.779-83.862c2.648-1.766,5.297-3.531,7.945-4.414
		c26.483-14.124,62.676-16.772,84.745,7.062c10.593,12.359,17.655,28.248,20.303,45.021
		C432.552,207.422,432.552,214.484,431.669,221.546z"/>
	<path style="fill:#35495E;" d="M481.986,169.463c-3.531-16.772-10.593-32.662-19.421-47.669
		c-21.186-0.883-109.462-2.648-167.724,45.903c1.765-2.648,31.779-46.786,135.062-86.51v-0.883
		c-14.124-13.241-30.897-24.717-47.669-33.545l-2.648,15.007v2.648c0,0.883,0,1.766-0.883,2.648
		c-5.297,11.476-25.6,13.241-45.903,4.414c-20.303-8.828-32.662-24.717-27.366-36.193c0.883-1.766,2.648-3.531,3.531-5.297
		l7.945-7.062c-41.49-8.828-84.745-8.828-126.235,0.883l7.062,6.179c1.766,1.766,3.531,3.531,4.414,5.297
		c5.297,11.476-7.945,27.366-27.366,36.193c-20.303,8.828-40.607,7.062-45.021-4.414c0-0.883-0.883-1.766-0.883-2.648v-2.648
		l-1.766-12.359c-15.89,8.828-30.014,19.421-43.255,31.779v0.883c7.062,2.648,13.241,5.297,18.538,7.945
		c2.648,0.883,5.297,2.648,7.945,3.531c2.648,0.883,5.297,2.648,7.945,3.531c2.648,0.883,5.297,2.648,7.945,3.531
		c2.648,0.883,5.297,2.648,7.062,3.531c2.648,0.883,4.414,2.648,7.062,3.531c3.531,1.766,7.062,3.531,9.71,5.297
		c1.766,0.883,2.648,1.766,4.414,2.648c1.766,0.883,2.648,1.766,4.414,2.648c1.766,0.883,3.531,2.648,5.297,3.531
		c4.414,2.648,8.828,5.297,12.359,7.945c1.766,0.883,3.531,1.766,4.414,3.531c2.648,1.766,5.297,4.414,7.945,6.179
		c0,0,0,0,0.883,0.883c1.766,0.883,2.648,1.766,3.531,3.531c1.766,1.766,4.414,3.531,6.179,5.297
		c0.883,0.883,1.766,1.766,2.648,2.648l0.883,0.883c0.883,0.883,1.766,1.766,2.648,2.648l0.883,0.883
		c0.883,0,0.883,0.883,0.883,0.883l0.883,0.883l0,0l0.883,0.883c1.766,1.766,2.648,2.648,3.531,4.414l0,0c0,0,0,0,0.883,0.883l0,0
		l0,0c0.883,0.883,0.883,0.883,0.883,1.766l0.883,0.883c-0.883-0.883-2.648-1.766-3.531-2.648l0,0
		c-2.648-1.766-5.297-4.414-8.828-6.179c0,0,0,0-0.883-0.883c-0.883-0.883-1.766-0.883-3.531-1.766
		c-0.883-0.883-1.766-0.883-2.648-1.766h-0.883c-1.766-0.883-3.531-1.766-4.414-2.648l0,0c-2.648-1.766-5.297-2.648-7.945-4.414
		c-0.883,0-1.766-0.883-2.648-1.766c-0.883-0.883-2.648-0.883-3.531-1.766h-0.883h-0.883l-5.297-1.766l0,0v-0.883h-0.883
		c-0.883,0-1.766-0.883-2.648-0.883c-1.766-0.883-3.531-0.883-5.297-1.766c-1.766-0.883-3.531-0.883-5.297-1.766
		c-0.883,0-2.648-0.883-3.531-0.883c-0.883,0-1.766-0.883-2.648-0.883c-3.531-0.883-6.179-1.766-9.71-2.648
		s-7.945-1.766-11.476-2.648c-2.648-0.883-6.179-0.883-8.828-1.766c-3.531-0.883-7.062-0.883-9.71-1.766
		c-3.531,0-6.179-0.883-9.71-0.883c-1.766,0-3.531,0-4.414,0c-2.648,0-6.179-0.883-8.828-0.883c-1.766,0-2.648,0-4.414,0
		c-2.648,0-5.297,0-7.062,0c-11.476,0-20.303,0-25.6,0c-8.828,15.007-15.007,30.897-18.538,47.669
		c-5.297,22.069-5.297,44.138,0,66.207c0.883,6.179,2.648,11.476,5.297,17.655c7.945,22.069,19.421,41.49,35.31,58.262
		c7.062,7.945,14.124,15.007,22.069,21.186c7.945,7.062,13.241,16.772,13.241,27.366v52.083
		c-0.883,10.593,7.062,18.538,17.655,19.421l26.483-44.138l26.483,44.138l26.483-44.138l26.483,44.138l26.483-44.138l26.483,44.138
		l26.483-44.138l26.483,44.138l26.483-44.138l26.483,44.138c10.593-0.883,18.538-8.828,17.655-19.421v-52.083
		c0-10.593,5.297-21.186,13.241-27.366c7.945-6.179,15.007-13.241,22.069-21.186c15.89-16.772,27.366-37.076,35.31-58.262
		c1.766-6.179,3.531-11.476,5.297-17.655C486.4,213.601,486.4,190.649,481.986,169.463z M154.483,270.098
		c-19.421,0.883-38.841-4.414-55.614-15.89c-10.593-7.945-17.655-19.421-19.421-33.545c0-6.179,0-13.241,0.883-20.303
		c2.648-16.772,9.71-31.779,20.303-45.021c22.069-23.834,58.262-22.069,84.745-7.062c2.648,1.766,5.297,2.648,7.945,4.414
		c23.835,16.772,46.786,54.731,31.779,83.862C213.628,261.27,180.966,270.098,154.483,270.098z M291.31,309.822
		c0,3.531-2.648,7.062-5.297,7.945c-9.71,3.531-19.421,6.179-30.014,6.179s-20.303-2.648-30.014-6.179
		c-2.648-0.883-5.297-4.414-5.297-7.945v-15.007c0-3.531,1.766-6.179,4.414-7.945l26.483-13.241c2.648-1.766,5.297-1.766,7.945,0
		l26.483,13.241c2.648,1.766,5.297,4.414,4.414,7.945v15.007H291.31z M431.669,221.546c-1.766,13.241-8.828,25.6-19.421,33.545
		c-16.772,10.593-35.31,15.89-55.614,15.89c-25.6,0-58.262-8.828-70.621-33.545c-14.124-29.131,8.828-67.09,31.779-83.862
		c2.648-1.766,5.297-3.531,7.945-4.414c26.483-14.124,62.676-16.772,84.745,7.062c10.593,12.359,17.655,28.248,20.303,45.021
		C432.552,207.422,432.552,214.484,431.669,221.546z"/>
	<path style="fill:#5E5F62;" d="M173.903,71.477c-20.303,8.828-40.607,7.062-45.021-4.414c0-0.883-0.883-1.766-0.883-2.648v-2.648
		l-1.766-12.359l-2.648-19.421c0,0.883,0,0.883,0.883,1.766c3.531,7.062,13.241,9.71,24.717,7.062
		c1.766-0.883,4.414-0.883,6.179-1.766c13.241-6.179,21.186-17.655,17.655-25.6c0-0.883-0.883-1.766-1.766-2.648l20.303,16.772
		l7.062,6.179c1.766,1.766,3.531,3.531,4.414,5.297C206.566,46.76,194.207,62.649,173.903,71.477z"/>
	<path style="fill:#FF5364;" d="M225.986,236.553c-12.359,24.717-45.021,33.545-71.503,33.545
		c-19.421,0.883-38.841-4.414-55.614-15.89c-10.593-7.945-17.655-19.421-19.421-33.545c0-6.179,0-13.241,0.883-20.303
		c2.648-16.772,9.71-31.779,20.303-45.021c22.069-23.834,58.262-22.069,84.745-7.062c2.648,1.766,5.297,2.648,7.945,4.414
		C217.159,169.463,240.11,207.422,225.986,236.553z"/>
	<g>
		<path style="fill:#2C2F38;" d="M291.31,294.815v15.007c0,3.531-2.648,7.062-5.297,7.945c-9.71,3.531-19.421,6.179-30.014,6.179
			s-20.303-2.648-30.014-6.179c-2.648-0.883-5.297-4.414-5.297-7.945v-15.007c0-3.531,1.766-6.179,4.414-7.945l26.483-13.241
			c2.648-1.766,5.297-1.766,7.945,0l26.483,13.241C289.545,288.635,291.31,291.284,291.31,294.815z"/>
		<path style="fill:#2C2F38;" d="M441.379,311.587v111.228c0,24.717-19.421,44.138-44.138,44.138h-17.655l-17.655-26.483
			l-17.655,26.483h-17.655l-17.655-26.483l-17.655,26.483h-17.655L256,440.47l-17.655,26.483H220.69l-17.655-26.483l-17.655,26.483
			h-17.655l-17.655-26.483l-17.655,26.483h-17.655c-24.717,0-44.138-19.421-44.138-44.138V311.587
			c7.062,7.945,14.124,15.007,22.069,21.186c7.945,7.062,13.241,16.772,13.241,27.366v52.083
			c-0.883,10.593,7.062,18.538,17.655,19.421l26.483-44.138l26.483,44.138l26.483-44.138l26.483,44.138L256,387.504l26.483,44.138
			l26.483-44.138l26.483,44.138l26.483-44.138l26.483,44.138c10.593-0.883,18.538-8.828,17.655-19.421v-52.083
			c0-10.593,5.297-21.186,13.241-27.366C427.255,325.711,434.317,318.649,441.379,311.587z"/>
		<circle style="fill:#2C2F38;" cx="379.586" cy="181.822" r="17.655"/>
		<circle style="fill:#2C2F38;" cx="335.448" cy="190.649" r="8.828"/>
		<circle style="fill:#2C2F38;" cx="132.414" cy="181.822" r="17.655"/>
		<circle style="fill:#2C2F38;" cx="176.552" cy="190.649" r="8.828"/>
	</g>
</g>
<g>
</g>
<g>
</g>
<g>
</g>
<g>
</g>
<g>
</g>
<g>
</g>
<g>
</g>
<g>
</g>
<g>
</g>
<g>
</g>
<g>
</g>
<g>
</g>
<g>
</g>
<g>
</g>
<g>
</g>
</svg>
