<?xml version="1.0" encoding="iso-8859-1"?>
<!-- Generator: Adobe Illustrator 19.0.0, SVG Export Plug-In . SVG Version: 6.00 Build 0)  -->
<svg version="1.1" id="Capa_1" xmlns="http://www.w3.org/2000/svg" xmlns:xlink="http://www.w3.org/1999/xlink" x="0px" y="0px"
	 viewBox="0 0 512 512" style="enable-background:new 0 0 512 512;" xml:space="preserve">
<g>
	<path style="fill:#35495E;" d="M418.133,307.2l22.914,28.642c7.263,9.078,11.22,20.358,11.22,31.984v135.64H59.733v-135.64
		c0-11.626,3.957-22.906,11.22-31.984L93.867,307.2H418.133z"/>
	<path style="fill:#547580;" d="M418.133,128v258.048h-51.2l-18.005,35.925c-1.448,2.865-4.385,4.672-7.595,4.672
		c-3.21,0-6.147-1.807-7.595-4.672l-18.005-35.925H196.267l-18.005,35.925c-1.448,2.865-4.385,4.672-7.595,4.672
		c-3.21,0-6.147-1.807-7.595-4.672l-18.005-35.925h-51.2V128c-0.002-9.053,3.593-17.737,9.995-24.139
		c6.402-6.402,15.085-9.997,24.139-9.995h256c9.053-0.002,17.737,3.593,24.139,9.995C414.54,110.263,418.136,118.947,418.133,128z"
		/>
	<g>
		<circle style="fill:#95A5A5;" cx="170.667" cy="51.2" r="42.667"/>
		<path style="fill:#2C2F38;" d="M170.667,59.733c-2.259-0.033-4.422-0.917-6.059-2.475c-0.771-0.816-1.379-1.772-1.792-2.817
			c-0.48-1.012-0.714-2.123-0.683-3.242c0-4.713,3.821-8.533,8.533-8.533c4.713,0,8.533,3.821,8.533,8.533
			c-0.014,1.115-0.246,2.216-0.683,3.242c-0.413,1.044-1.021,2-1.792,2.817C175.088,58.815,172.925,59.698,170.667,59.733z"/>
		<circle style="fill:#95A5A5;" cx="341.333" cy="51.2" r="42.667"/>
		<g>
			<path style="fill:#2C2F38;" d="M341.333,59.733c-1.115-0.014-2.216-0.246-3.242-0.683c-1.034-0.433-1.986-1.039-2.817-1.791
				c-3.3-3.365-3.3-8.752,0-12.117c0.815-0.773,1.772-1.383,2.817-1.796c1.526-0.675,3.226-0.853,4.859-0.509
				c0.566,0.079,1.115,0.25,1.625,0.508c0.543,0.188,1.059,0.447,1.533,0.771c0.425,0.341,0.858,0.683,1.283,1.025
				c0.772,0.814,1.38,1.769,1.792,2.813c0.911,2.067,0.911,4.421,0,6.487c-0.393,1.055-1.003,2.014-1.792,2.817
				c-0.406,0.367-0.835,0.708-1.283,1.021c-0.474,0.324-0.99,0.583-1.533,0.771c-0.51,0.257-1.059,0.431-1.625,0.513
				C342.416,59.66,341.876,59.718,341.333,59.733z"/>
			<circle style="fill:#2C2F38;" cx="162.133" cy="196.267" r="68.267"/>
			<circle style="fill:#2C2F38;" cx="349.867" cy="196.267" r="68.267"/>
		</g>
	</g>
	<g>
		<path style="fill:#2C2F38;" d="M281.6,280.533c0,8.837-11.462,26.667-25.6,26.667c-14.138,0-25.6-17.83-25.6-26.667
			s11.462-16,25.6-16C270.138,264.533,281.6,271.697,281.6,280.533z"/>
		<g>
			<path style="fill:#2C2F38;" d="M469.333,298.667H332.8c-4.713,0-8.533-3.821-8.533-8.533c0-4.713,3.82-8.533,8.533-8.533h136.533
				c4.713,0,8.533,3.821,8.533,8.533C477.867,294.846,474.046,298.667,469.333,298.667z"/>
			<path style="fill:#2C2F38;" d="M469.333,366.933H332.8c-4.713,0-8.533-3.82-8.533-8.533s3.82-8.533,8.533-8.533h136.533
				c4.713,0,8.533,3.82,8.533,8.533S474.046,366.933,469.333,366.933z"/>
			<path style="fill:#2C2F38;" d="M503.467,332.8H358.4c-4.713,0-8.533-3.82-8.533-8.533s3.82-8.533,8.533-8.533h145.067
				c4.713,0,8.533,3.821,8.533,8.533S508.18,332.8,503.467,332.8z"/>
			<path style="fill:#2C2F38;" d="M179.2,290.133H42.667c-4.713,0-8.533-3.821-8.533-8.533s3.821-8.533,8.533-8.533H179.2
				c4.713,0,8.533,3.82,8.533,8.533S183.913,290.133,179.2,290.133z"/>
			<path style="fill:#2C2F38;" d="M179.2,358.4H42.667c-4.713,0-8.533-3.821-8.533-8.533c0-4.713,3.821-8.533,8.533-8.533H179.2
				c4.713,0,8.533,3.821,8.533,8.533C187.733,354.579,183.913,358.4,179.2,358.4z"/>
			<path style="fill:#2C2F38;" d="M153.6,324.267H8.533c-4.713,0-8.533-3.821-8.533-8.533c0-4.713,3.821-8.533,8.533-8.533H153.6
				c4.713,0,8.533,3.821,8.533,8.533C162.133,320.446,158.313,324.267,153.6,324.267z"/>
		</g>
	</g>
	<g>
		<circle style="fill:#E64C3C;" cx="183.467" cy="200.533" r="21.333"/>
		<circle style="fill:#E64C3C;" cx="328.533" cy="200.533" r="21.333"/>
	</g>
	<path style="fill:#547580;" d="M418.133,460.8v8.533c0.002,9.053-3.593,17.737-9.995,24.138s-15.085,9.997-24.138,9.995H128
		c-9.053,0.002-17.737-3.593-24.138-9.995s-9.997-15.085-9.995-24.138V460.8c0.014-4.707,3.826-8.52,8.533-8.533h307.2
		C414.307,452.28,418.12,456.093,418.133,460.8z"/>
	<g>
		<path style="fill:#2C2F38;" d="M128,452.267v17.067c0,4.713-3.821,8.533-8.533,8.533c-4.713,0-8.533-3.821-8.533-8.533v-17.067
			H128z"/>
		<path style="fill:#2C2F38;" d="M162.133,452.267v17.067c0,4.713-3.821,8.533-8.533,8.533s-8.533-3.821-8.533-8.533v-17.067
			H162.133z"/>
		<path style="fill:#2C2F38;" d="M196.267,452.267v17.067c0,4.713-3.821,8.533-8.533,8.533c-4.713,0-8.533-3.821-8.533-8.533
			v-17.067H196.267z"/>
		<path style="fill:#2C2F38;" d="M230.4,452.267v17.067c0,4.713-3.821,8.533-8.533,8.533c-4.713,0-8.533-3.821-8.533-8.533v-17.067
			H230.4z"/>
		<path style="fill:#2C2F38;" d="M264.533,452.267v17.067c0,4.713-3.821,8.533-8.533,8.533c-4.713,0-8.533-3.821-8.533-8.533
			v-17.067H264.533z"/>
		<path style="fill:#2C2F38;" d="M298.667,452.267v17.067c0,4.713-3.821,8.533-8.533,8.533c-4.713,0-8.533-3.821-8.533-8.533
			v-17.067H298.667z"/>
		<path style="fill:#2C2F38;" d="M332.8,452.267v17.067c0,4.713-3.82,8.533-8.533,8.533s-8.533-3.821-8.533-8.533v-17.067H332.8z"/>
		<path style="fill:#2C2F38;" d="M366.933,452.267v17.067c0,4.713-3.82,8.533-8.533,8.533s-8.533-3.821-8.533-8.533v-17.067H366.933
			z"/>
		<path style="fill:#2C2F38;" d="M401.067,452.267v17.067c0,4.713-3.82,8.533-8.533,8.533S384,474.046,384,469.333v-17.067H401.067z
			"/>
	</g>
</g>
<g>
</g>
<g>
</g>
<g>
</g>
<g>
</g>
<g>
</g>
<g>
</g>
<g>
</g>
<g>
</g>
<g>
</g>
<g>
</g>
<g>
</g>
<g>
</g>
<g>
</g>
<g>
</g>
<g>
</g>
</svg>
