<?xml version="1.0" encoding="iso-8859-1"?>
<!-- Generator: Adobe Illustrator 19.0.0, SVG Export Plug-In . SVG Version: 6.00 Build 0)  -->
<svg version="1.1" id="Capa_1" xmlns="http://www.w3.org/2000/svg" xmlns:xlink="http://www.w3.org/1999/xlink" x="0px" y="0px"
	 viewBox="0 0 512 512" style="enable-background:new 0 0 512 512;" xml:space="preserve">
<g>
	<g>
		<path style="fill:#95A5A5;" d="M466.361,95.338C443.841,37.828,388.383-0.009,326.621,0H185.379
			C123.617-0.009,68.159,37.828,45.639,95.338H466.361z"/>
		<rect x="220.69" y="378.227" style="fill:#95A5A5;" width="70.621" height="126.314"/>
	</g>
	<path style="fill:#BDC3C7;" d="M176.552,476.69h150.069c9.751,0,17.655,7.904,17.655,17.655V512H158.897v-17.655
		C158.897,484.594,166.801,476.69,176.552,476.69z"/>
	<polygon style="fill:#2C3E50;" points="291.31,476.69 256,512 220.69,512 256,476.69 	"/>
	<path style="fill:#BDC3C7;" d="M150.069,52.966h211.862C444.812,52.966,512,120.154,512,203.034V256
		c0,82.881-67.188,150.069-150.069,150.069H150.069C67.188,406.069,0,338.881,0,256v-52.966C0,120.154,67.188,52.966,150.069,52.966
		z"/>
	<path style="fill:#2C3E50;" d="M476.69,203.034V256c0.035,36.951-17.787,71.641-47.846,93.131
		c-4.774,3.491-9.822,6.591-15.095,9.269c-16.063,8.129-33.815,12.363-51.818,12.359H150.069
		c-18.003,0.004-35.755-4.23-51.818-12.359c-5.273-2.678-10.321-5.778-15.095-9.269c-30.058-21.49-47.88-56.18-47.846-93.131
		v-52.966c0.06-63.354,51.404-114.698,114.759-114.759h211.862C425.285,88.336,476.629,139.68,476.69,203.034z"/>
	<g>
		<path style="fill:#DF4D60;" d="M233.931,203.034c0.018,12.255-2.823,24.346-8.298,35.31H83.332
			c-5.475-10.965-8.316-23.055-8.298-35.31c0.02-4.555,0.404-9.101,1.148-13.594l32.574-13.065l60.381-24.188l32.486-13.065
			C221.949,154.071,233.946,177.803,233.931,203.034z"/>
		<path style="fill:#DF4D60;" d="M436.966,203.034c0.018,12.255-2.823,24.346-8.298,35.31H286.367
			c-17.163-34.515-7.033-76.372,24.011-99.222l32.486,13.065l60.381,24.188l32.574,13.065
			C436.562,193.934,436.945,198.48,436.966,203.034z"/>
	</g>
	<path style="fill:#2FA8CC;" d="M428.844,349.131c-4.774,3.491-9.822,6.591-15.095,9.269
		c-38.567-47.644-96.453-75.502-157.749-75.917c-61.296,0.415-119.182,28.273-157.749,75.917
		c-5.273-2.678-10.321-5.778-15.095-9.269c41.837-52.874,105.422-83.887,172.844-84.303
		C323.422,265.244,387.007,296.257,428.844,349.131z"/>
	<path style="fill:#FF5364;" d="M207.448,203.034c0.029,13.053-4.82,25.646-13.594,35.31h-78.742
		c-15.414-17.057-17.986-42.139-6.356-61.97l60.381-24.188C191.823,158.689,207.455,179.435,207.448,203.034z"/>
	<circle style="fill:#E6E7E8;" cx="154.483" cy="198.621" r="13.241"/>
	<path style="fill:#FF5364;" d="M304.552,203.034c-0.029,13.053,4.82,25.646,13.594,35.31h78.742
		c15.414-17.057,17.986-42.139,6.356-61.97l-60.381-24.188C320.177,158.689,304.545,179.435,304.552,203.034z"/>
	<circle style="fill:#E6E7E8;" cx="357.517" cy="198.621" r="13.241"/>
</g>
<g>
</g>
<g>
</g>
<g>
</g>
<g>
</g>
<g>
</g>
<g>
</g>
<g>
</g>
<g>
</g>
<g>
</g>
<g>
</g>
<g>
</g>
<g>
</g>
<g>
</g>
<g>
</g>
<g>
</g>
</svg>
