<?xml version="1.0" encoding="iso-8859-1"?>
<!-- Generator: Adobe Illustrator 19.0.0, SVG Export Plug-In . SVG Version: 6.00 Build 0)  -->
<svg version="1.1" id="Capa_1" xmlns="http://www.w3.org/2000/svg" xmlns:xlink="http://www.w3.org/1999/xlink" x="0px" y="0px"
	 viewBox="0 0 512.107 512.107" style="enable-background:new 0 0 512.107 512.107;" xml:space="preserve">
<g transform="translate(-1)">
	<path style="fill:#3F5C6C;" d="M510.405,185.609c-5.032-45.55-19.332-90.748-51.818-123.763
		c-34.163-34.869-63.029-20.127-73.622-12.447c-7.716-6.938-16.016-13.199-24.806-18.714c-62.671-40.842-143.542-40.842-206.212,0
		c-8.79,5.515-17.089,11.776-24.806,18.714c-10.593-7.68-39.459-22.422-73.622,12.447C23.034,94.861,8.733,140.059,3.702,185.609
		c-2.325,23.198-3.151,46.522-2.472,69.826c-0.729,25.572,0.54,51.161,3.796,76.535c2.648,15.007,9.092,26.13,24.452,30.014
		l1.942,0.177c-3.531,39.901,14.566,59.939,31.426,69.826c5.474,3.156,12.217,3.148,17.683-0.022c5.466-3.17,8.822-9.019,8.8-15.338
		v-71.503c4.901,7.883,10.359,15.405,16.331,22.51c27.292,33.956,64.971,58.02,107.255,68.502v40.607
		c-9.722,0.07-17.585,7.934-17.655,17.655c0.029,9.739,7.916,17.626,17.655,17.655h88.276c9.721-0.07,17.585-7.934,17.655-17.655
		c-0.028-9.739-7.916-17.627-17.655-17.655v-40.607c42.22-10.473,79.856-34.468,107.167-68.326c0-0.088,0.088-0.088,0.088-0.177
		c5.972-7.105,11.43-14.628,16.331-22.51v71.503c-0.022,6.319,3.334,12.167,8.8,15.338s12.209,3.179,17.683,0.022
		c16.861-9.887,34.957-29.926,31.426-69.826l1.942-0.177c15.36-3.884,21.804-15.007,24.452-30.014
		c3.256-25.374,4.525-50.964,3.796-76.535C513.556,232.131,512.73,208.807,510.405,185.609z"/>
	<path style="fill:#95A5A5;" d="M360.16,30.685c-18.626,13.241-57.821,22.334-103.106,22.334s-84.48-9.092-103.106-22.334
		C216.618-10.157,297.489-10.157,360.16,30.685z"/>
	<g>
		<path style="fill:#2980BA;" d="M230.571,198.674c0.044,11.069-1.29,22.1-3.972,32.839
			c-73.181,9.446-128.441,52.436-128.441,103.989c0.05,11.139,2.615,22.123,7.503,32.132c-5.972-7.105-11.43-14.628-16.331-22.51
			c-49.528-80.106-46.753-181.975,7.062-259.266c10.373-4.213,21.466-6.372,32.662-6.356
			C185.108,79.501,230.571,132.82,230.571,198.674z"/>
		<path style="fill:#2980BA;" d="M460.088,220.743c0.18,43.958-12.06,87.074-35.31,124.381c-4.901,7.883-10.359,15.405-16.331,22.51
			c4.888-10.009,7.453-20.993,7.503-32.132c0-51.553-55.261-94.543-128.441-103.989c-2.682-10.739-4.017-21.77-3.972-32.839
			c0-65.854,45.462-119.172,101.517-119.172c11.196-0.016,22.289,2.143,32.662,6.356C445.54,125.31,460.354,172.466,460.088,220.743
			z"/>
	</g>
	<path style="fill:#95A5A5;" d="M287.508,231.513c-20.221-2.589-40.689-2.589-60.91,0c-73.181,9.446-128.441,52.436-128.441,103.989
		c0.05,11.139,2.615,22.123,7.503,32.132c27.292,33.956,64.971,58.02,107.255,68.502c11.01,2.669,22.236,4.353,33.545,5.032
		c3.531,0.177,7.062,0.265,10.593,0.265s7.062-0.088,10.593-0.265c11.309-0.678,22.535-2.362,33.545-5.032
		c42.22-10.473,79.856-34.468,107.167-68.326c0-0.088,0.088-0.088,0.088-0.177c4.888-10.009,7.453-20.993,7.503-32.132
		C415.95,283.948,360.689,240.958,287.508,231.513z M257.053,335.501c-29.219,0-52.966-29.484-52.966-44.138
		c0-14.654,23.746-26.483,52.966-26.483s52.966,11.829,52.966,26.483C310.019,306.017,286.273,335.501,257.053,335.501z"/>
	<g>
		<path style="fill:#547580;" d="M257.053,379.639c-2.341,0.001-4.587-0.929-6.243-2.585c-1.656-1.656-2.585-3.901-2.585-6.243
			v-35.31c0-4.875,3.952-8.828,8.828-8.828s8.828,3.952,8.828,8.828v35.31c0.001,2.341-0.929,4.587-2.585,6.243
			C261.64,378.71,259.395,379.64,257.053,379.639z"/>
		<path style="fill:#547580;" d="M215.674,401.708c-28.621,0-50.207-13.284-50.207-30.897c0-4.875,3.952-8.828,8.828-8.828
			s8.828,3.952,8.828,8.828c0,5.272,12.983,13.241,32.552,13.241s32.552-7.97,32.552-13.241c0-4.875,3.952-8.828,8.828-8.828
			s8.828,3.952,8.828,8.828C265.881,388.424,244.295,401.708,215.674,401.708z"/>
		<path style="fill:#547580;" d="M298.432,401.708c-28.621,0-50.207-13.284-50.207-30.897c0-4.875,3.952-8.828,8.828-8.828
			s8.828,3.952,8.828,8.828c0,5.272,12.983,13.241,32.552,13.241c19.569,0,32.552-7.97,32.552-13.241
			c0-4.875,3.952-8.828,8.828-8.828s8.828,3.952,8.828,8.828C348.64,388.424,327.053,401.708,298.432,401.708z"/>
	</g>
	<path style="fill:#E6E7E8;" d="M301.191,436.136v40.607h-88.276v-40.607c11.01,2.669,22.236,4.353,33.545,5.032
		c3.531,0.177,7.062,0.265,10.593,0.265s7.062-0.088,10.593-0.265C278.955,440.489,290.181,438.805,301.191,436.136z"/>
	<path style="fill:#547580;" d="M318.846,494.398c-0.07,9.721-7.934,17.585-17.655,17.655h-88.276
		c-9.739-0.029-17.627-7.916-17.655-17.655c0.07-9.722,7.934-17.585,17.655-17.655h88.276
		C310.93,476.771,318.818,484.659,318.846,494.398z"/>
	<g>
		<circle style="fill:#FF5364;" cx="142.295" cy="132.467" r="8.828"/>
		<circle style="fill:#FF5364;" cx="106.984" cy="132.467" r="8.828"/>
		<circle style="fill:#FF5364;" cx="106.984" cy="167.777" r="8.828"/>
		<circle style="fill:#FF5364;" cx="106.984" cy="203.088" r="8.828"/>
		<circle style="fill:#FF5364;" cx="177.605" cy="132.467" r="8.828"/>
		<circle style="fill:#FF5364;" cx="177.605" cy="167.777" r="8.828"/>
		<circle style="fill:#FF5364;" cx="177.605" cy="203.088" r="8.828"/>
		<circle style="fill:#FF5364;" cx="142.295" cy="220.743" r="8.828"/>
		<circle style="fill:#FF5364;" cx="371.812" cy="132.467" r="8.828"/>
		<circle style="fill:#FF5364;" cx="336.502" cy="132.467" r="8.828"/>
		<circle style="fill:#FF5364;" cx="336.502" cy="167.777" r="8.828"/>
		<circle style="fill:#FF5364;" cx="336.502" cy="203.088" r="8.828"/>
		<circle style="fill:#FF5364;" cx="407.122" cy="132.467" r="8.828"/>
		<circle style="fill:#FF5364;" cx="407.122" cy="167.777" r="8.828"/>
		<circle style="fill:#FF5364;" cx="407.122" cy="203.088" r="8.828"/>
		<circle style="fill:#FF5364;" cx="371.812" cy="220.743" r="8.828"/>
	</g>
	<path style="fill:#BDC3C7;" d="M417.715,85.857c-10.373-4.213-21.466-6.372-32.662-6.356c-56.055,0-101.517,53.319-101.517,119.172
		c-0.044,11.069,1.29,22.1,3.972,32.839c-20.221-2.589-40.689-2.589-60.91,0c2.682-10.739,4.017-21.77,3.972-32.839
		c0-65.854-45.462-119.172-101.517-119.172c-11.196-0.016-22.289,2.143-32.662,6.356c9.444-13.399,20.437-25.637,32.75-36.458
		c7.716-6.938,16.016-13.199,24.806-18.714c18.626,13.241,57.821,22.334,103.106,22.334s84.48-9.092,103.106-22.334
		c8.79,5.515,17.089,11.776,24.806,18.714C397.279,60.221,408.271,72.458,417.715,85.857z"/>
	<path style="fill:#2C2F38;" d="M310.019,291.364c0,14.654-23.746,44.138-52.966,44.138s-52.966-29.484-52.966-44.138
		c0-14.654,23.746-26.483,52.966-26.483S310.019,276.71,310.019,291.364z"/>
</g>
<g>
</g>
<g>
</g>
<g>
</g>
<g>
</g>
<g>
</g>
<g>
</g>
<g>
</g>
<g>
</g>
<g>
</g>
<g>
</g>
<g>
</g>
<g>
</g>
<g>
</g>
<g>
</g>
<g>
</g>
</svg>
