<?xml version="1.0" encoding="iso-8859-1"?>
<!-- Generator: Adobe Illustrator 19.0.0, SVG Export Plug-In . SVG Version: 6.00 Build 0)  -->
<svg version="1.1" id="Capa_1" xmlns="http://www.w3.org/2000/svg" xmlns:xlink="http://www.w3.org/1999/xlink" x="0px" y="0px"
	 viewBox="0 0 512 512" style="enable-background:new 0 0 512 512;" xml:space="preserve">
<g>
	<path style="fill:#FF5364;" d="M429.286,136.563c6.215-9.207,10.342-19.662,12.094-30.632l8.828-44.138
		c0,0,17.655-61.793-52.966-61.793S291.31,35.31,291.31,35.31c-0.028-9.739-7.916-17.627-17.655-17.655h-35.31
		c-9.739,0.028-17.627,7.916-17.655,17.655c0,0-35.31-35.31-105.931-35.31S61.793,61.793,61.793,61.793l8.828,44.138
		c1.759,10.995,5.885,21.477,12.094,30.72c-41.852,44.134-65.144,102.664-65.059,163.487v123.586
		c-0.032,27.768,13.06,53.919,35.31,70.532v0.088c15.267,11.485,33.861,17.682,52.966,17.655h300.138
		c19.105,0.027,37.698-6.171,52.966-17.655v-0.088c22.251-16.613,35.342-42.764,35.31-70.532V300.138
		C494.43,239.289,471.14,180.731,429.286,136.563z"/>
	<path style="fill:#B0D3F0;" d="M52.966,379.586l0,114.67c-22.251-16.613-35.342-42.764-35.31-70.532l0-70.621l8.828,0
		c7.027-0.009,13.768,2.778,18.737,7.746C50.188,365.818,52.975,372.56,52.966,379.586z"/>
	<path style="fill:#90BAE1;" d="M494.345,300.138v8.828c-18.731-0.005-36.697,7.434-49.942,20.679
		c-13.245,13.245-20.684,31.211-20.679,49.942v130.648c-5.811,1.177-11.726,1.769-17.655,1.766H105.931
		c-5.929,0.003-11.844-0.588-17.655-1.766V379.586c0.005-18.731-7.434-36.697-20.679-49.942s-31.211-20.684-49.942-20.679v-8.828
		c-0.085-60.823,23.207-119.353,65.059-163.487c7.945,10.417,20.745,16.684,40.872,4.59c33.824-21.47,66.257-45.057,97.103-70.621
		c0.029,9.739,7.916,17.627,17.655,17.655h35.31c9.739-0.029,17.627-7.916,17.655-17.655c30.847,25.564,63.279,49.151,97.103,70.621
		c20.127,12.094,32.927,5.738,40.872-4.679C471.14,180.731,494.43,239.289,494.345,300.138z"/>
	<path style="fill:#B0D3F0;" d="M485.517,353.103l8.828,0l0,70.621c0.032,27.768-13.06,53.919-35.31,70.532l0-114.67
		c-0.009-7.027,2.778-13.768,7.746-18.737C471.749,355.881,478.491,353.094,485.517,353.103z"/>
	<g>
		<path style="fill:#2980BA;" d="M88.276,379.586v130.648c-12.804-2.61-24.866-8.038-35.31-15.89V379.586
			c0.009-7.027-2.778-13.768-7.746-18.737c-4.969-4.969-11.71-7.756-18.737-7.746h-8.828v-44.138
			c18.731-0.005,36.697,7.434,49.942,20.679S88.281,360.855,88.276,379.586z"/>
		<path style="fill:#2980BA;" d="M494.345,308.966v44.138h-8.828c-7.027-0.009-13.768,2.778-18.736,7.746
			c-4.969,4.969-7.756,11.71-7.746,18.737v114.759c-10.445,7.852-22.507,13.28-35.31,15.89V379.586
			c-0.005-18.731,7.434-36.697,20.679-49.942C457.648,316.399,475.613,308.96,494.345,308.966z"/>
	</g>
	<g>
		<g>
			<path style="fill:#C03A2B;" d="M220.69,61.793c-0.819,0.001-1.635-0.114-2.422-0.34C179.154,51.3,138.513,48.393,98.353,52.875
				c-4.825,0.69-9.297-2.662-9.987-7.487c-0.69-4.825,2.662-9.297,7.487-9.987c42.616-4.952,85.782-1.873,127.263,9.077
				c4.232,1.211,6.925,5.354,6.314,9.712C228.82,58.55,225.091,61.792,220.69,61.793z"/>
			<path style="fill:#C03A2B;" d="M114.759,105.931c-3.57-0.001-6.788-2.152-8.154-5.45c-1.366-3.298-0.611-7.094,1.913-9.619
				c28.345-28.349,107.828-37.47,111.198-37.841c4.836-0.524,9.184,2.964,9.722,7.798c0.538,4.834-2.937,9.193-7.77,9.745
				c-21.254,2.371-80.767,12.879-100.668,32.78C119.347,105.003,117.1,105.934,114.759,105.931z"/>
			<path style="fill:#C03A2B;" d="M291.306,61.797c-4.401-0.004-8.127-3.248-8.737-7.607c-0.61-4.359,2.084-8.501,6.315-9.712
				c41.482-10.948,84.647-14.027,127.263-9.078c4.825,0.69,8.177,5.162,7.487,9.987c-0.69,4.825-5.162,8.177-9.987,7.487
				c-40.158-4.495-80.8-1.588-119.91,8.578C292.947,61.68,292.129,61.797,291.306,61.797z"/>
			<path style="fill:#C03A2B;" d="M397.241,105.931c-2.342,0.003-4.588-0.928-6.241-2.586
				c-19.931-19.927-79.422-30.418-100.664-32.78c-4.838-0.545-8.321-4.905-7.783-9.744c0.537-4.839,4.892-8.329,9.731-7.799
				c3.371,0.371,82.853,9.491,111.198,37.841c2.524,2.525,3.279,6.321,1.913,9.62C404.03,103.78,400.812,105.931,397.241,105.931z"
				/>
		</g>
		<g>
			<path style="fill:#35495E;" d="M158.897,370.759h194.207c14.626,0,26.483,11.857,26.483,26.483v52.966
				c0,14.626-11.857,26.483-26.483,26.483H158.897c-14.626,0-26.483-11.857-26.483-26.483v-52.966
				C132.414,382.615,144.271,370.759,158.897,370.759z"/>
			<path style="fill:#35495E;" d="M114.759,176.552h282.483c14.626,0,26.483,11.857,26.483,26.483v97.103
				c0,14.626-11.857,26.483-26.483,26.483H114.759c-14.626,0-26.483-11.857-26.483-26.483v-97.103
				C88.276,188.408,100.133,176.552,114.759,176.552z"/>
		</g>
		<path style="fill:#CC4B4C;" d="M238.345,17.655h35.31c9.751,0,17.655,7.904,17.655,17.655v35.31
			c0,9.751-7.904,17.655-17.655,17.655h-35.31c-9.751,0-17.655-7.904-17.655-17.655V35.31
			C220.69,25.56,228.594,17.655,238.345,17.655z"/>
		<g>
			<path style="fill:#2FA8CC;" d="M158.897,256c-2.337-0.035-4.575-0.949-6.268-2.56c-0.799-0.844-1.429-1.833-1.858-2.914
				c-0.451-1.061-0.69-2.201-0.702-3.354c0-4.875,3.952-8.828,8.828-8.828s8.828,3.952,8.828,8.828
				c-0.014,1.153-0.254,2.293-0.707,3.353c-0.429,1.08-1.058,2.068-1.854,2.914C163.47,255.05,161.233,255.964,158.897,256z"/>
			<path style="fill:#2FA8CC;" d="M185.379,247.172c-2.348,0.023-4.607-0.9-6.267-2.56c-1.66-1.66-2.583-3.919-2.56-6.267
				c0.012-1.154,0.251-2.295,0.703-3.358c0.427-1.08,1.058-2.068,1.857-2.91c3.539-3.267,8.995-3.267,12.534,0
				c0.797,0.843,1.426,1.831,1.854,2.909c0.453,1.062,0.693,2.203,0.707,3.358c-0.035,2.337-0.949,4.574-2.56,6.268
				c-0.444,0.353-0.884,0.707-1.323,1.056c-0.492,0.335-1.027,0.603-1.591,0.797c-0.501,0.253-1.037,0.432-1.591,0.53
				C186.559,247.093,185.97,247.152,185.379,247.172z"/>
			<path style="fill:#2FA8CC;" d="M211.862,256c-2.337-0.035-4.575-0.949-6.268-2.56c-0.799-0.844-1.429-1.833-1.858-2.914
				c-0.451-1.061-0.69-2.201-0.702-3.354c0-4.875,3.952-8.828,8.828-8.828s8.828,3.952,8.828,8.828
				c-0.014,1.153-0.254,2.293-0.707,3.353c-0.804,2.217-2.55,3.963-4.767,4.767C214.155,255.745,213.016,255.986,211.862,256z"/>
			<path style="fill:#2FA8CC;" d="M229.517,273.655c-2.348,0.023-4.607-0.9-6.267-2.56c-1.66-1.66-2.583-3.919-2.56-6.267
				c0.012-1.154,0.251-2.295,0.703-3.358c0.406-1.09,1.039-2.082,1.857-2.91c2.063-2.142,5.077-3.082,7.992-2.492
				c2.915,0.589,5.327,2.626,6.396,5.402c0.496,1.049,0.738,2.199,0.707,3.358c0.023,2.348-0.9,4.607-2.56,6.267
				C234.124,272.755,231.865,273.678,229.517,273.655z"/>
			<path style="fill:#2FA8CC;" d="M141.241,273.655c-1.159,0.031-2.309-0.212-3.358-0.707c-2.215-0.807-3.96-2.552-4.767-4.767
				c-0.451-1.061-0.69-2.201-0.703-3.354c0.014-0.593,0.073-1.184,0.177-1.767c0.095-0.554,0.272-1.09,0.526-1.591
				c0.195-0.562,0.463-1.095,0.797-1.586c0.353-0.444,0.707-0.884,1.06-1.323c0.857-0.78,1.841-1.409,2.909-1.858
				c3.29-1.375,7.084-0.643,9.626,1.857c0.353,0.44,0.707,0.879,1.056,1.323c0.334,0.491,0.603,1.025,0.797,1.586
				c0.253,0.501,0.432,1.037,0.53,1.591c0.102,0.584,0.161,1.175,0.176,1.768c-0.014,1.153-0.254,2.293-0.707,3.353
				c-0.449,1.069-1.076,2.054-1.854,2.914C145.815,272.705,143.578,273.62,141.241,273.655z"/>
			<path style="fill:#2FA8CC;" d="M123.586,247.172c-1.159,0.031-2.309-0.212-3.358-0.707c-1.068-0.449-2.051-1.076-2.909-1.854
				c-0.799-0.844-1.429-1.833-1.858-2.914c-0.937-2.139-0.937-4.572,0-6.711c0.811-2.213,2.554-3.956,4.767-4.767
				c2.151-0.879,4.561-0.879,6.711,0c1.081,0.428,2.07,1.059,2.915,1.857c0.778,0.858,1.405,1.842,1.854,2.909
				c0.495,1.049,0.737,2.199,0.706,3.358c0.023,2.348-0.9,4.607-2.56,6.267C128.193,246.273,125.934,247.195,123.586,247.172z"/>
			<path style="fill:#2FA8CC;" d="M141.241,229.517c-1.155-0.014-2.296-0.254-3.358-0.707c-1.068-0.449-2.051-1.076-2.909-1.854
				c-0.799-0.844-1.429-1.833-1.858-2.914c-0.451-1.061-0.69-2.2-0.703-3.353c0.014-0.593,0.073-1.184,0.177-1.767
				c0.095-0.554,0.272-1.09,0.526-1.591c0.195-0.562,0.463-1.095,0.797-1.586c0.353-0.444,0.707-0.884,1.06-1.323
				c0.842-0.8,1.83-1.43,2.909-1.858c3.29-1.375,7.084-0.643,9.626,1.857c0.353,0.44,0.707,0.879,1.056,1.323
				c0.334,0.491,0.603,1.025,0.797,1.586c0.253,0.501,0.432,1.037,0.53,1.591c0.102,0.584,0.161,1.175,0.176,1.768
				c-0.014,1.153-0.254,2.293-0.707,3.353c-0.429,1.08-1.058,2.068-1.854,2.914c-0.444,0.353-0.884,0.707-1.323,1.056
				c-0.492,0.335-1.027,0.603-1.591,0.797c-0.501,0.253-1.037,0.432-1.591,0.53C142.421,229.442,141.832,229.501,141.241,229.517z"
				/>
			<path style="fill:#2FA8CC;" d="M353.103,256c-4.163-0.041-7.72-3.011-8.502-7.1c-0.782-4.089,1.427-8.162,5.281-9.736
				c3.854-1.574,8.283-0.213,10.588,3.255c2.304,3.467,1.844,8.078-1.1,11.022C357.678,255.051,355.44,255.965,353.103,256z"/>
			<path style="fill:#2FA8CC;" d="M326.621,247.172c-1.155-0.014-2.296-0.254-3.358-0.707c-1.079-0.428-2.066-1.057-2.909-1.854
				c-3.414-3.481-3.414-9.054,0-12.534c3.514-3.332,9.021-3.332,12.534,0c1.611,1.693,2.526,3.931,2.56,6.268
				c-0.014,1.153-0.254,2.293-0.707,3.353c-0.429,1.08-1.058,2.068-1.854,2.914C331.195,246.223,328.957,247.137,326.621,247.172z"
				/>
			<path style="fill:#2FA8CC;" d="M300.138,256c-2.337-0.035-4.575-0.949-6.268-2.56c-0.78-0.859-1.409-1.844-1.858-2.914
				c-0.937-2.139-0.937-4.572,0-6.711c0.449-1.069,1.077-2.053,1.858-2.91c2.556-2.469,6.329-3.198,9.621-1.858
				c2.215,0.807,3.96,2.552,4.767,4.767c0.943,2.138,0.943,4.573,0,6.711c-0.804,2.217-2.55,3.963-4.767,4.767
				C302.43,255.745,301.291,255.985,300.138,256z"/>
			<path style="fill:#2FA8CC;" d="M282.483,273.655c-2.337-0.035-4.575-0.949-6.268-2.56c-0.38-0.419-0.734-0.861-1.06-1.323
				c-0.335-0.492-0.603-1.027-0.797-1.591c-0.254-0.501-0.431-1.037-0.526-1.591c-0.099-0.583-0.158-1.172-0.176-1.763
				c0.033-2.337,0.947-4.576,2.56-6.268c0.842-0.8,1.83-1.43,2.909-1.858c1.611-0.702,3.401-0.886,5.121-0.526
				c0.554,0.095,1.09,0.272,1.591,0.526c0.563,0.194,1.098,0.462,1.591,0.797c0.44,0.353,0.879,0.707,1.323,1.06
				c1.612,1.693,2.526,3.931,2.561,6.268c-0.02,0.591-0.079,1.18-0.177,1.763c-0.098,0.553-0.277,1.089-0.53,1.591
				c-0.194,0.563-0.462,1.098-0.797,1.591c-0.349,0.44-0.703,0.879-1.056,1.323c-0.444,0.353-0.884,0.707-1.323,1.056
				c-0.492,0.335-1.027,0.603-1.591,0.797c-0.501,0.253-1.037,0.432-1.591,0.53C283.663,273.576,283.074,273.635,282.483,273.655z"
				/>
			<path style="fill:#2FA8CC;" d="M370.759,273.655c-4.163-0.041-7.72-3.011-8.502-7.1c-0.782-4.089,1.427-8.162,5.281-9.736
				c3.854-1.574,8.283-0.213,10.588,3.255c2.304,3.467,1.844,8.078-1.1,11.022C375.333,272.707,373.096,273.621,370.759,273.655z"/>
			<path style="fill:#2FA8CC;" d="M388.414,247.172c-4.163-0.041-7.72-3.011-8.502-7.1s1.427-8.162,5.281-9.736
				c3.854-1.574,8.283-0.213,10.588,3.255c2.304,3.467,1.844,8.078-1.1,11.022C392.989,246.224,390.751,247.138,388.414,247.172z"/>
			<path style="fill:#2FA8CC;" d="M370.759,229.517c-4.163-0.041-7.72-3.011-8.502-7.1c-0.782-4.089,1.427-8.162,5.281-9.736
				c3.854-1.574,8.283-0.213,10.588,3.255c2.304,3.467,1.844,8.078-1.1,11.022C375.333,228.569,373.096,229.483,370.759,229.517z"/>
		</g>
		<g>
			<path style="fill:#FF5364;" d="M229.517,414.897c-2.337-0.035-4.575-0.949-6.268-2.56c-0.38-0.419-0.734-0.861-1.06-1.323
				c-0.335-0.492-0.603-1.027-0.797-1.591c-0.254-0.501-0.431-1.037-0.526-1.591c-0.099-0.583-0.158-1.172-0.176-1.763
				c0.033-2.337,0.947-4.576,2.56-6.268c0.842-0.8,1.83-1.43,2.909-1.858c3.289-1.384,7.088-0.651,9.626,1.858
				c1.611,1.693,2.525,3.931,2.56,6.268c-0.02,0.591-0.079,1.18-0.177,1.763c-0.098,0.553-0.277,1.089-0.53,1.591
				c-0.194,0.563-0.462,1.098-0.797,1.591c-0.325,0.462-0.678,0.904-1.056,1.324C234.092,413.947,231.854,414.861,229.517,414.897z"
				/>
			<path style="fill:#FF5364;" d="M203.035,423.724c-0.592-0.02-1.183-0.079-1.767-0.177c-0.553-0.098-1.089-0.277-1.591-0.53
				c-0.562-0.195-1.095-0.463-1.586-0.797c-0.444-0.349-0.884-0.703-1.323-1.056c-0.78-0.859-1.409-1.844-1.858-2.914
				c-0.451-1.061-0.69-2.201-0.702-3.354c0.033-2.337,0.947-4.576,2.56-6.268c0.44-0.353,0.879-0.707,1.323-1.06
				c0.491-0.334,1.025-0.603,1.586-0.797c0.501-0.254,1.037-0.431,1.591-0.526c1.72-0.36,3.51-0.177,5.121,0.526
				c1.081,0.428,2.07,1.059,2.914,1.858c1.611,1.693,2.525,3.931,2.56,6.268c-0.014,1.153-0.254,2.293-0.707,3.353
				c-0.449,1.069-1.076,2.054-1.854,2.914c-0.846,0.796-1.834,1.425-2.914,1.854C205.327,423.47,204.188,423.71,203.035,423.724z"/>
			<path style="fill:#FF5364;" d="M176.552,432.552c-4.163-0.041-7.72-3.011-8.502-7.1s1.427-8.162,5.281-9.736
				c3.854-1.574,8.283-0.213,10.588,3.255c2.304,3.467,1.844,8.078-1.1,11.022C181.127,431.603,178.889,432.517,176.552,432.552z"/>
			<path style="fill:#FF5364;" d="M203.035,450.207c-3.377,0.015-6.467-1.898-7.96-4.927c-1.493-3.029-1.129-6.644,0.939-9.314
				c2.068-2.67,5.478-3.927,8.784-3.238c0.554,0.095,1.09,0.272,1.591,0.526c0.563,0.194,1.098,0.462,1.591,0.797
				c0.462,0.327,0.904,0.681,1.324,1.06c0.797,0.843,1.426,1.831,1.854,2.909c0.453,1.062,0.693,2.203,0.706,3.358
				c-0.035,2.337-0.949,4.574-2.56,6.268c-0.444,0.353-0.884,0.707-1.323,1.056c-0.492,0.335-1.027,0.603-1.591,0.797
				c-0.501,0.253-1.037,0.432-1.591,0.53C204.214,450.128,203.625,450.187,203.035,450.207z"/>
			<path style="fill:#FF5364;" d="M229.517,459.034c-2.337-0.035-4.575-0.949-6.268-2.56c-1.627-1.683-2.544-3.927-2.56-6.268
				c0-4.875,3.952-8.828,8.828-8.828s8.828,3.952,8.828,8.828c-0.018,2.34-0.935,4.584-2.56,6.268
				C234.092,458.085,231.854,458.999,229.517,459.034z"/>
			<path style="fill:#FF5364;" d="M256,459.034c-2.337-0.035-4.575-0.949-6.268-2.56c-1.627-1.683-2.544-3.927-2.56-6.268
				c-0.014-3.591,2.14-6.836,5.455-8.218c3.315-1.381,7.136-0.625,9.676,1.915c2.54,2.539,3.296,6.36,1.914,9.676
				C262.837,456.895,259.591,459.049,256,459.034z"/>
			<path style="fill:#FF5364;" d="M282.483,459.034c-3.569-0.014-6.782-2.168-8.151-5.465s-0.626-7.092,1.883-9.631
				c3.514-3.332,9.021-3.332,12.534,0c1.612,1.693,2.526,3.931,2.561,6.268c-0.018,2.34-0.935,4.584-2.56,6.268
				C287.057,458.085,284.819,458.999,282.483,459.034z"/>
			<path style="fill:#FF5364;" d="M308.966,450.207c-2.348,0.023-4.607-0.9-6.267-2.56c-1.66-1.66-2.583-3.919-2.56-6.267
				c0.012-1.154,0.251-2.295,0.703-3.358c0.427-1.08,1.058-2.068,1.857-2.91c2.828-2.86,7.227-3.457,10.715-1.455
				c3.488,2.003,5.191,6.103,4.147,9.987C316.516,447.528,312.988,450.223,308.966,450.207z"/>
			<path style="fill:#FF5364;" d="M335.448,432.552c-4.163-0.041-7.72-3.011-8.502-7.1s1.427-8.162,5.281-9.736
				c3.854-1.574,8.283-0.213,10.588,3.255c2.304,3.467,1.844,8.078-1.1,11.022c-0.419,0.378-0.861,0.731-1.323,1.056
				c-0.492,0.335-1.027,0.603-1.591,0.797c-0.501,0.253-1.037,0.432-1.591,0.53C336.629,432.477,336.04,432.536,335.448,432.552z"/>
			<path style="fill:#FF5364;" d="M308.966,423.724c-4.163-0.041-7.72-3.011-8.502-7.1s1.427-8.162,5.281-9.736
				c3.854-1.574,8.283-0.213,10.588,3.255c2.304,3.467,1.844,8.078-1.1,11.022C313.54,422.775,311.302,423.69,308.966,423.724z"/>
			<path style="fill:#FF5364;" d="M282.483,414.897c-2.337-0.035-4.575-0.949-6.268-2.56c-0.38-0.419-0.734-0.861-1.06-1.323
				c-0.335-0.492-0.603-1.027-0.797-1.591c-0.254-0.501-0.431-1.037-0.526-1.591c-0.099-0.583-0.158-1.172-0.176-1.763
				c0-4.875,3.952-8.828,8.828-8.828s8.828,3.952,8.828,8.828c-0.02,0.591-0.079,1.18-0.177,1.763
				c-0.098,0.553-0.277,1.089-0.53,1.591c-0.194,0.563-0.462,1.098-0.797,1.591c-0.325,0.462-0.678,0.904-1.056,1.324
				C287.057,413.947,284.819,414.861,282.483,414.897z"/>
			<path style="fill:#FF5364;" d="M256,423.724c-4.163-0.041-7.72-3.011-8.502-7.1s1.427-8.162,5.281-9.736
				s8.283-0.213,10.588,3.255c2.304,3.467,1.844,8.078-1.1,11.022C260.575,422.775,258.337,423.69,256,423.724z"/>
		</g>
	</g>
</g>
<g>
</g>
<g>
</g>
<g>
</g>
<g>
</g>
<g>
</g>
<g>
</g>
<g>
</g>
<g>
</g>
<g>
</g>
<g>
</g>
<g>
</g>
<g>
</g>
<g>
</g>
<g>
</g>
<g>
</g>
</svg>
