<?xml version="1.0" encoding="iso-8859-1"?>
<!-- Generator: Adobe Illustrator 19.0.0, SVG Export Plug-In . SVG Version: 6.00 Build 0)  -->
<svg version="1.1" id="Capa_1" xmlns="http://www.w3.org/2000/svg" xmlns:xlink="http://www.w3.org/1999/xlink" x="0px" y="0px"
	 viewBox="0 0 512 512" style="enable-background:new 0 0 512 512;" xml:space="preserve">
<g>
	<g>
		<rect x="220.69" y="378.227" style="fill:#95A5A5;" width="70.621" height="126.314"/>
		<path style="fill:#95A5A5;" d="M466.361,95.338C443.841,37.828,388.383-0.009,326.621,0H185.379
			C123.617-0.009,68.159,37.828,45.639,95.338H466.361z"/>
	</g>
	<g>
		<path style="fill:#BDC3C7;" d="M150.069,52.966h211.862C444.812,52.966,512,120.154,512,203.034V256
			c0,82.881-67.188,150.069-150.069,150.069H150.069C67.188,406.069,0,338.881,0,256v-52.966
			C0,120.154,67.188,52.966,150.069,52.966z"/>
		<path style="fill:#2C3E50;" d="M476.69,203.034V256c0,63.379-51.379,114.759-114.759,114.759H150.069
			C86.69,370.759,35.31,319.379,35.31,256v-52.966c0-63.379,51.379-114.759,114.759-114.759h211.862
			C425.31,88.276,476.69,139.655,476.69,203.034z"/>
		<path style="fill:#BDC3C7;" d="M176.552,476.69h150.069c9.751,0,17.655,7.904,17.655,17.655V512H158.897v-17.655
			C158.897,484.594,166.801,476.69,176.552,476.69z"/>
	</g>
	<polygon style="fill:#2C3E50;" points="291.31,476.69 256,512 220.69,512 256,476.69 	"/>
	<g>
		<path style="fill:#65DDB9;" d="M222.72,265.975c-8.475-3.146-17.266-5.365-26.218-6.621c-13.351-1.878-26.921-1.55-40.166,0.971
			c-13.866,2.588-27.165,7.609-39.283,14.83c-7.823,4.51-15.083,9.933-21.628,16.154c-5.349-4.909-9.932-10.592-13.594-16.861
			c-19.312-32.343-13.271-73.8,14.469-99.286s69.559-28.001,100.153-6.024S238.016,231.551,222.72,265.975z"/>
		<path style="fill:#65DDB9;" d="M430.257,274.45c-3.72,6.229-8.296,11.905-13.594,16.861c-6.545-6.222-13.805-11.644-21.628-16.154
			c-12.117-7.221-25.416-12.242-39.283-14.83c-13.245-2.519-26.814-2.847-40.165-0.971c-8.981,1.255-17.801,3.475-26.306,6.621
			c-15.235-34.416-4.241-74.799,26.336-96.743c30.577-21.944,72.355-19.433,100.083,6.016
			C443.428,200.698,449.504,242.107,430.257,274.45z"/>
	</g>
	<g>
		<path style="fill:#14A085;" d="M196.502,259.354c-13.351-1.878-26.921-1.55-40.166,0.971c-13.866,2.588-27.165,7.609-39.283,14.83
			c-5.025-3.927-9.251-8.782-12.447-14.301c-13.121-22.053-8.546-50.338,10.857-67.131s48.053-17.26,67.994-1.11
			C203.4,208.764,208.896,236.885,196.502,259.354z"/>
		<path style="fill:#14A085;" d="M407.481,260.855c-3.25,5.48-7.468,10.325-12.447,14.301c-12.117-7.221-25.416-12.242-39.283-14.83
			c-13.245-2.519-26.814-2.847-40.165-0.971c-12.377-22.464-6.876-50.568,13.058-66.707c19.934-16.139,48.568-15.671,67.964,1.11
			C416.004,210.538,420.585,238.808,407.481,260.855z"/>
	</g>
	<g>
		<circle style="fill:#E64C3C;" cx="132.414" cy="220.69" r="8.828"/>
		<circle style="fill:#E64C3C;" cx="379.674" cy="220.69" r="8.828"/>
		<path style="fill:#E64C3C;" d="M317.793,344.276c-2.342,0.001-4.588-0.928-6.244-2.584c-1.656-1.656-2.585-3.902-2.584-6.244
			c0-12.526-21.75-26.483-52.966-26.483s-52.966,13.957-52.966,26.483c0,4.875-3.952,8.828-8.828,8.828s-8.828-3.952-8.828-8.828
			c0-24.75,31.017-44.138,70.621-44.138s70.621,19.388,70.621,44.138c0.001,2.342-0.928,4.588-2.584,6.244
			C322.381,343.348,320.135,344.277,317.793,344.276z"/>
	</g>
	<g>
		<path style="fill:#2FA8CC;" d="M91.378,326.621c0,0-43.9,68.139-43.9,97.342c-0.055,15.72,8.301,30.269,21.906,38.145
			c13.605,7.876,30.383,7.876,43.988,0c13.605-7.876,21.96-22.425,21.906-38.145C135.277,394.76,91.378,326.621,91.378,326.621z"/>
		<path style="fill:#2FA8CC;" d="M420.623,326.621c0,0-43.9,68.139-43.9,97.342c-0.055,15.72,8.301,30.269,21.905,38.145
			c13.605,7.876,30.383,7.876,43.988,0c13.605-7.876,21.96-22.425,21.906-38.145C464.522,394.76,420.623,326.621,420.623,326.621z"
			/>
	</g>
</g>
<g>
</g>
<g>
</g>
<g>
</g>
<g>
</g>
<g>
</g>
<g>
</g>
<g>
</g>
<g>
</g>
<g>
</g>
<g>
</g>
<g>
</g>
<g>
</g>
<g>
</g>
<g>
</g>
<g>
</g>
</svg>
