<?xml version="1.0" encoding="iso-8859-1"?>
<!-- Generator: Adobe Illustrator 19.0.0, SVG Export Plug-In . SVG Version: 6.00 Build 0)  -->
<svg version="1.1" id="Capa_1" xmlns="http://www.w3.org/2000/svg" xmlns:xlink="http://www.w3.org/1999/xlink" x="0px" y="0px"
	 viewBox="0 0 512 512" style="enable-background:new 0 0 512 512;" xml:space="preserve">
<g>
	<g>
		<rect x="220.69" y="378.227" style="fill:#95A5A5;" width="70.621" height="126.314"/>
		<path style="fill:#95A5A5;" d="M466.361,95.338C443.841,37.828,388.383-0.009,326.621,0H185.379
			C123.617-0.009,68.159,37.828,45.639,95.338H466.361z"/>
	</g>
	<g>
		<path style="fill:#BDC3C7;" d="M150.069,52.966h211.862C444.812,52.966,512,120.154,512,203.034V256
			c0,82.881-67.188,150.069-150.069,150.069H150.069C67.188,406.069,0,338.881,0,256v-52.966
			C0,120.154,67.188,52.966,150.069,52.966z"/>
		<path style="fill:#2C3E50;" d="M476.69,203.034V256c0,63.379-51.379,114.759-114.759,114.759H150.069
			C86.69,370.759,35.31,319.379,35.31,256v-52.966c0-63.379,51.379-114.759,114.759-114.759h211.862
			C425.31,88.276,476.69,139.655,476.69,203.034z"/>
		<path style="fill:#BDC3C7;" d="M176.552,476.69h150.069c9.751,0,17.655,7.904,17.655,17.655V512H158.897v-17.655
			C158.897,484.594,166.801,476.69,176.552,476.69z"/>
	</g>
	<polygon style="fill:#2C3E50;" points="291.31,476.69 256,512 220.69,512 256,476.69 	"/>
	<g>
		<g>
			<path style="fill:#2FA8CC;" d="M150.069,344.276c-30.446,0.068-59.654-12.048-81.112-33.647c-3.447-3.447-3.447-9.036,0-12.483
				c3.447-3.447,9.036-3.447,12.483,0c18.187,18.229,42.879,28.474,68.629,28.474c25.75,0,50.442-10.245,68.629-28.474
				c3.447-3.447,9.036-3.447,12.483,0c3.447,3.447,3.447,9.036,0,12.483C209.722,332.228,180.515,344.343,150.069,344.276z"/>
			<path style="fill:#2FA8CC;" d="M224.94,163.474c-2.342,0.003-4.588-0.928-6.241-2.586
				c-18.187-18.229-42.879-28.474-68.629-28.474s-50.442,10.245-68.629,28.474c-3.447,3.447-9.036,3.447-12.483,0
				c-3.447-3.447-3.447-9.036,0-12.483c21.497-21.541,50.68-33.647,81.112-33.647s59.615,12.105,81.112,33.647
				c2.524,2.525,3.279,6.321,1.913,9.619C231.729,161.322,228.511,163.473,224.94,163.474L224.94,163.474z"/>
		</g>
		<circle style="fill:#E57E25;" cx="150.069" cy="229.517" r="52.966"/>
		<circle style="fill:#F0C419;" cx="136.828" cy="216.276" r="13.241"/>
		<g>
			<path style="fill:#2FA8CC;" d="M361.931,344.276c-30.446,0.068-59.654-12.048-81.112-33.647c-2.23-2.23-3.101-5.48-2.285-8.526
				c0.816-3.046,3.195-5.425,6.241-6.241c3.046-0.816,6.296,0.055,8.526,2.285c18.187,18.229,42.879,28.474,68.629,28.474
				c25.75,0,50.442-10.245,68.629-28.474c2.23-2.23,5.48-3.101,8.526-2.285c3.046,0.816,5.425,3.195,6.241,6.241
				s-0.055,6.296-2.285,8.526C421.585,332.228,392.377,344.343,361.931,344.276z"/>
			<path style="fill:#2FA8CC;" d="M436.802,163.474c-2.342,0.003-4.588-0.928-6.241-2.586
				c-18.187-18.229-42.879-28.474-68.629-28.474s-50.442,10.245-68.629,28.474c-3.447,3.447-9.036,3.447-12.483,0
				c-3.447-3.447-3.447-9.036,0-12.483c21.497-21.541,50.68-33.647,81.112-33.647s59.615,12.105,81.112,33.647
				c2.524,2.525,3.279,6.321,1.913,9.619C443.591,161.322,440.373,163.473,436.802,163.474L436.802,163.474z"/>
		</g>
		<circle style="fill:#E57E25;" cx="361.931" cy="229.517" r="52.966"/>
		<circle style="fill:#F0C419;" cx="348.69" cy="216.276" r="13.241"/>
	</g>
</g>
<g>
</g>
<g>
</g>
<g>
</g>
<g>
</g>
<g>
</g>
<g>
</g>
<g>
</g>
<g>
</g>
<g>
</g>
<g>
</g>
<g>
</g>
<g>
</g>
<g>
</g>
<g>
</g>
<g>
</g>
</svg>
