<?xml version="1.0" encoding="iso-8859-1"?>
<!-- Generator: Adobe Illustrator 19.0.0, SVG Export Plug-In . SVG Version: 6.00 Build 0)  -->
<svg version="1.1" id="Capa_1" xmlns="http://www.w3.org/2000/svg" xmlns:xlink="http://www.w3.org/1999/xlink" x="0px" y="0px"
	 viewBox="0 0 512 512" style="enable-background:new 0 0 512 512;" xml:space="preserve">
<g>
	<path style="fill:#35495E;" d="M478.19,219.807l-27.983-16.772h-0.088c0.088-5.738,0.088-11.652,0.088-17.655
		c0-97.103-70.621-123.586-70.621-123.586C335.448,0,256,0,256,0s-79.448,0-123.586,61.793c0,0-70.621,26.483-70.621,123.586
		c0,6.003,0,11.917,0.088,17.655h-0.088L33.81,219.807c-9.639,5.842-14.554,17.122-12.27,28.16l27.807,132.149
		c2.185,10.385,10.342,18.472,20.745,20.568l23.658,4.679l1.589,18.008c1.133,12.073,6.44,23.374,15.007,31.956
		c18.008,18.097,51.377,47.934,80.508,55.084h0.088c3.949,1.031,8.012,1.565,12.094,1.589h105.931
		c4.082-0.024,8.144-0.558,12.094-1.589h0.088c29.131-7.15,62.499-36.988,80.508-55.085c8.567-8.582,13.874-19.883,15.007-31.956
		l1.589-18.008l23.658-4.679c10.403-2.096,18.56-10.183,20.745-20.568l27.807-132.149
		C492.744,236.929,487.829,225.649,478.19,219.807z"/>
	<g>
		<path style="fill:#BDC3C7;" d="M97.103,185.379l8.386,167.636l-16.772-4.237l-0.353-0.088
			c-10.813-2.641-18.799-11.793-19.95-22.863c-2.295-22.863-5.914-65.766-6.532-122.792c-0.088-5.738-0.088-11.652-0.088-17.655
			c0-97.103,70.621-123.586,70.621-123.586C106.276,97.456,93.752,141.29,97.103,185.379z"/>
		<path style="fill:#7F8C8D;" d="M93.749,405.363l-23.658-4.679c-10.403-2.096-18.56-10.183-20.745-20.568L21.539,247.967
			c-2.284-11.038,2.631-22.318,12.27-28.16l27.983-16.772h0.088c0.618,57.026,4.237,99.928,6.532,122.792
			c1.152,11.071,9.138,20.223,19.95,22.863l0.353,0.088L93.749,405.363z"/>
		<path style="fill:#95A5A5;" d="M423.283,348.777l-5.032,56.585l-1.589,18.008c-1.133,12.073-6.44,23.374-15.007,31.956
			c-18.008,18.097-51.377,47.934-80.508,55.084h-0.088c-3.949,1.031-8.012,1.565-12.094,1.589H203.034
			c-4.082-0.024-8.144-0.558-12.094-1.589h-0.088c-29.131-7.15-62.499-36.988-80.508-55.085
			c-8.567-8.582-13.874-19.883-15.007-31.956l-1.589-18.008l-5.032-56.585l16.772,4.237l0.441,8.916c0,0,0,26.483,44.138,44.138
			C194.207,423.724,256,423.724,256,423.724s61.793,0,105.931-17.655c44.138-17.655,44.138-44.138,44.138-44.138l0.441-8.916
			L423.283,348.777z"/>
		<path style="fill:#BDC3C7;" d="M450.207,185.379c0,6.003,0,11.917-0.088,17.655c-0.618,57.026-4.237,99.928-6.532,122.792
			c-1.152,11.071-9.138,20.223-19.95,22.863l-0.353,0.088l-16.772,4.237l8.386-167.636c3.352-44.089-9.172-87.923-35.31-123.586
			C379.586,61.793,450.207,88.276,450.207,185.379z"/>
		<g>
			<path style="fill:#7F8C8D;" d="M490.461,247.967l-27.807,132.149c-2.185,10.385-10.342,18.472-20.745,20.568l-23.658,4.679
				l5.032-56.585l0.353-0.088c10.813-2.641,18.798-11.793,19.95-22.863c2.295-22.863,5.914-65.766,6.532-122.792h0.088
				l27.983,16.772C487.829,225.649,492.745,236.929,490.461,247.967z"/>
			<path style="fill:#7F8C8D;" d="M209.655,512h-6.621c-4.082-0.024-8.144-0.558-12.094-1.589h-0.088l-13.948-48.993
				c-1.287-4.67,1.441-9.502,6.104-10.813c4.663-1.311,9.509,1.391,10.845,6.047L209.655,512z"/>
			<path style="fill:#7F8C8D;" d="M335.095,461.418l-13.948,48.993h-0.088c-3.949,1.031-8.012,1.565-12.094,1.589h-6.621
				l15.801-55.349c1.336-4.656,6.182-7.358,10.845-6.047C333.655,451.916,336.382,456.748,335.095,461.418z"/>
		</g>
		<g>
			<path style="fill:#FF5364;" d="M256,344.276c-1.155-0.014-2.296-0.254-3.358-0.707c-1.068-0.448-2.052-1.075-2.91-1.854
				c-1.661-1.66-2.584-3.919-2.56-6.267c0.015-2.341,0.932-4.586,2.56-6.268c2.54-2.501,6.333-3.232,9.621-1.854
				c1.07,0.448,2.055,1.074,2.914,1.854c1.612,1.693,2.526,3.931,2.561,6.268c0.03,1.158-0.212,2.306-0.707,3.353
				c-0.45,1.068-1.077,2.053-1.854,2.914C260.606,343.375,258.348,344.297,256,344.276z"/>
			<path style="fill:#FF5364;" d="M229.517,344.276c-1.155-0.014-2.296-0.254-3.358-0.707c-1.068-0.448-2.052-1.075-2.91-1.854
				c-1.661-1.66-2.584-3.919-2.56-6.267c0.018-0.592,0.077-1.183,0.177-1.767c0.095-0.552,0.272-1.087,0.526-1.586
				c0.194-0.565,0.462-1.101,0.797-1.595l1.06-1.319c2.525-2.546,6.341-3.312,9.653-1.937s5.463,4.618,5.442,8.204
				c0.022,2.348-0.9,4.606-2.56,6.268c-0.859,0.779-1.844,1.406-2.914,1.854C231.81,344.022,230.671,344.262,229.517,344.276z"/>
			<path style="fill:#FF5364;" d="M203.034,344.276c-2.348,0.022-4.606-0.901-6.268-2.56c-0.78-0.859-1.408-1.844-1.858-2.914
				c-0.451-1.061-0.69-2.201-0.702-3.354c0.033-2.337,0.947-4.576,2.56-6.268c0.857-0.779,1.841-1.406,2.909-1.854
				c2.149-0.888,4.562-0.888,6.711,0c1.08,0.427,2.069,1.056,2.914,1.854c1.612,1.693,2.526,3.931,2.561,6.268
				c-0.014,1.153-0.254,2.293-0.707,3.353c-0.45,1.068-1.077,2.053-1.854,2.914C207.64,343.375,205.382,344.297,203.034,344.276z"/>
			<path style="fill:#FF5364;" d="M185.379,361.931c-1.155-0.014-2.296-0.254-3.358-0.707c-2.215-0.807-3.96-2.552-4.767-4.767
				c-0.937-2.138-0.937-4.569,0-6.707c0.427-1.081,1.057-2.071,1.857-2.914c2.112-2.083,5.123-2.978,8.03-2.388
				c0.553,0.1,1.089,0.28,1.591,0.535c0.564,0.191,1.099,0.457,1.591,0.793c0.461,0.328,0.903,0.682,1.324,1.06
				c0.797,0.845,1.426,1.834,1.854,2.914c1.163,2.715,0.876,5.833-0.762,8.29C191.1,360.497,188.332,361.96,185.379,361.931z"/>
			<path style="fill:#FF5364;" d="M282.483,344.276c-2.348,0.022-4.606-0.901-6.268-2.56c-0.78-0.859-1.408-1.844-1.858-2.914
				c-0.451-1.061-0.69-2.201-0.702-3.354c0.033-2.337,0.947-4.576,2.56-6.268c0.857-0.779,1.841-1.406,2.909-1.854
				c1.61-0.707,3.4-0.894,5.121-0.535c0.553,0.1,1.089,0.28,1.591,0.535c0.543,0.173,1.051,0.441,1.5,0.793
				c0.53,0.353,0.97,0.707,1.414,1.06c1.612,1.693,2.526,3.931,2.561,6.268c0.023,2.348-0.9,4.607-2.56,6.267
				C287.09,343.376,284.831,344.299,282.483,344.276z"/>
			<path style="fill:#FF5364;" d="M308.966,344.276c-1.155-0.014-2.296-0.254-3.358-0.707c-1.068-0.448-2.052-1.075-2.909-1.854
				c-1.661-1.66-2.584-3.919-2.56-6.267c0.015-2.341,0.932-4.586,2.56-6.268c0.44-0.353,0.879-0.707,1.409-1.06
				c0.45-0.35,0.957-0.618,1.5-0.793c0.501-0.255,1.037-0.435,1.591-0.535c2.909-0.59,5.921,0.305,8.035,2.388
				c0.353,0.44,0.707,0.879,1.056,1.319c0.335,0.494,0.604,1.03,0.797,1.595c0.253,0.5,0.432,1.034,0.53,1.586
				c0.101,0.584,0.16,1.175,0.176,1.768c0.022,2.348-0.9,4.606-2.56,6.268c-0.859,0.779-1.844,1.406-2.914,1.854
				C311.258,344.022,310.119,344.262,308.966,344.276z"/>
			<path style="fill:#FF5364;" d="M256,379.586c-2.348,0.022-4.606-0.901-6.268-2.56c-0.78-0.859-1.408-1.844-1.858-2.914
				c-0.937-2.138-0.937-4.569,0-6.707c0.807-2.215,2.552-3.96,4.767-4.767c3.289-1.379,7.084-0.648,9.625,1.854
				c0.797,0.845,1.426,1.834,1.854,2.914c0.943,2.136,0.943,4.571,0,6.707c-0.45,1.068-1.077,2.053-1.854,2.914
				c-0.859,0.779-1.844,1.406-2.914,1.854C258.292,379.333,257.153,379.572,256,379.586z"/>
			<path style="fill:#FF5364;" d="M229.517,379.586c-1.155-0.014-2.296-0.254-3.358-0.707c-2.215-0.807-3.96-2.552-4.767-4.767
				c-0.937-2.138-0.937-4.569,0-6.707c0.427-1.081,1.057-2.071,1.857-2.914c0.857-0.779,1.841-1.406,2.909-1.854
				c3.292-1.343,7.067-0.616,9.625,1.854c0.797,0.845,1.426,1.834,1.854,2.914c0.943,2.136,0.943,4.571,0,6.707
				c-0.45,1.068-1.077,2.053-1.854,2.914c-0.859,0.779-1.844,1.406-2.914,1.854C231.81,379.332,230.67,379.572,229.517,379.586z"/>
			<path style="fill:#FF5364;" d="M203.034,379.586c-1.155-0.014-2.296-0.254-3.358-0.707c-2.215-0.807-3.96-2.552-4.767-4.767
				c-0.937-2.138-0.937-4.569,0-6.707c0.427-1.081,1.057-2.071,1.857-2.914c2.535-2.509,6.334-3.241,9.621-1.854
				c1.07,0.448,2.055,1.074,2.914,1.854c0.797,0.845,1.426,1.834,1.854,2.914c0.943,2.136,0.943,4.571,0,6.707
				c-0.45,1.068-1.077,2.053-1.854,2.914C207.64,378.685,205.382,379.607,203.034,379.586z"/>
			<path style="fill:#FF5364;" d="M282.483,379.586c-2.348,0.022-4.606-0.901-6.268-2.56c-0.78-0.859-1.408-1.844-1.858-2.914
				c-0.937-2.138-0.937-4.569,0-6.707c0.427-1.081,1.058-2.071,1.858-2.914c0.857-0.779,1.841-1.406,2.909-1.854
				c1.61-0.707,3.4-0.894,5.121-0.535c0.553,0.1,1.089,0.28,1.591,0.535c0.543,0.173,1.051,0.441,1.5,0.793
				c0.506,0.304,0.98,0.66,1.414,1.061c0.797,0.845,1.426,1.834,1.854,2.914c0.943,2.136,0.943,4.571,0,6.707
				c-0.45,1.068-1.077,2.053-1.854,2.914c-0.859,0.779-1.844,1.406-2.914,1.854C284.776,379.332,283.636,379.572,282.483,379.586z"
				/>
			<path style="fill:#FF5364;" d="M308.966,379.586c-2.348,0.022-4.606-0.901-6.268-2.56c-0.78-0.859-1.408-1.844-1.858-2.914
				c-0.937-2.138-0.937-4.569,0-6.707c0.807-2.215,2.552-3.96,4.767-4.767c1.61-0.707,3.4-0.894,5.121-0.535
				c0.553,0.1,1.089,0.28,1.591,0.535c0.564,0.191,1.099,0.457,1.591,0.793c0.461,0.328,0.903,0.681,1.324,1.059
				c0.797,0.845,1.426,1.834,1.854,2.914c0.452,1.061,0.692,2.2,0.706,3.354c0.03,1.158-0.212,2.306-0.707,3.353
				c-0.45,1.068-1.077,2.053-1.854,2.914C313.571,378.685,311.313,379.608,308.966,379.586z"/>
			<path style="fill:#FF5364;" d="M326.621,361.931c-1.155-0.014-2.296-0.254-3.358-0.707c-1.068-0.448-2.052-1.075-2.909-1.854
				c-2.525-2.527-3.261-6.335-1.858-9.621c0.427-1.081,1.058-2.07,1.857-2.914c0.431-0.402,0.904-0.757,1.409-1.06
				c0.45-0.35,0.957-0.618,1.5-0.793c0.501-0.255,1.037-0.435,1.591-0.535c1.721-0.36,3.511-0.173,5.121,0.535
				c2.217,0.804,3.963,2.55,4.767,4.767c0.495,1.047,0.738,2.196,0.708,3.354c0.023,2.348-0.9,4.607-2.56,6.267
				C331.227,361.031,328.969,361.954,326.621,361.931z"/>
		</g>
		<path style="fill:#46B29D;" d="M229.513,211.862c-1.234,0.001-2.454-0.258-3.582-0.759l-79.448-35.31
			c-4.456-1.981-6.463-7.199-4.483-11.655c1.981-4.456,7.199-6.463,11.655-4.483l79.448,35.31c3.81,1.695,5.914,5.824,5.048,9.902
			C237.284,208.946,233.683,211.863,229.513,211.862z"/>
		<path style="fill:#F29C1F;" d="M158.897,220.69h35.31c4.875,0,8.828,3.952,8.828,8.828v35.31c0,4.875-3.952,8.828-8.828,8.828
			h-35.31c-4.875,0-8.828-3.952-8.828-8.828v-35.31C150.069,224.642,154.021,220.69,158.897,220.69z"/>
		<path style="fill:#46B29D;" d="M282.487,211.862c-4.17,0.001-7.771-2.916-8.638-6.994c-0.867-4.079,1.238-8.207,5.048-9.902
			l79.448-35.31c2.883-1.281,6.23-0.927,8.781,0.929c2.551,1.856,3.918,4.932,3.586,8.069c-0.332,3.137-2.312,5.859-5.195,7.14
			l-79.448,35.31C284.941,211.604,283.721,211.863,282.487,211.862z"/>
		<path style="fill:#F29C1F;" d="M353.103,273.655h-35.31c-4.875,0-8.828-3.952-8.828-8.828v-35.31c0-4.875,3.952-8.828,8.828-8.828
			h35.31c4.875,0,8.828,3.952,8.828,8.828v35.31C361.931,269.703,357.979,273.655,353.103,273.655z"/>
	</g>
</g>
<g>
</g>
<g>
</g>
<g>
</g>
<g>
</g>
<g>
</g>
<g>
</g>
<g>
</g>
<g>
</g>
<g>
</g>
<g>
</g>
<g>
</g>
<g>
</g>
<g>
</g>
<g>
</g>
<g>
</g>
</svg>
