<?xml version="1.0" encoding="iso-8859-1"?>
<!-- Generator: Adobe Illustrator 18.0.0, SVG Export Plug-In . SVG Version: 6.00 Build 0)  -->
<!DOCTYPE svg PUBLIC "-//W3C//DTD SVG 1.1//EN" "http://www.w3.org/Graphics/SVG/1.1/DTD/svg11.dtd">
<svg version="1.1" id="Capa_1" xmlns="http://www.w3.org/2000/svg" xmlns:xlink="http://www.w3.org/1999/xlink" x="0px" y="0px"
	 viewBox="0 0 194.917 194.917" style="enable-background:new 0 0 194.917 194.917;" xml:space="preserve">
<g>
	<g>
		<rect x="82.761" y="144.651" style="fill:#FDCC9B;" width="29.395" height="32.923"/>
		<path style="fill:#FCBC85;" d="M82.762,148.529c0,0,12.364,7.874,29.394,6.051v-9.929H82.762V148.529z"/>
		<ellipse style="fill:#FCBC85;" cx="40.375" cy="93.602" rx="14.343" ry="16.364"/>
		<ellipse style="fill:#FCBC85;" cx="154.542" cy="93.602" rx="14.343" ry="16.364"/>
		<path style="fill:#FDCC9B;" d="M154.484,62.346c0-24.104-17.637-41.741-57.025-41.741c-39.39,0-57.026,17.637-57.026,41.741
			c0,24.104-4.115,87.597,57.026,87.597C158.6,149.943,154.484,86.45,154.484,62.346z"/>
		<g>
			<g>
				<ellipse style="fill:#3B2519;" cx="69.683" cy="89.684" rx="6.173" ry="6.761"/>
				<circle style="fill:#FFFFFF;" cx="66.992" cy="86.698" r="1.846"/>
			</g>
			<path style="fill:#BF904B;" d="M59.808,72.928c2.919,1.459,7.606-4.96,18.335,0.625c1.956,1.018,3.123-8.708-8.377-8.708
				C59.808,64.845,58.044,72.047,59.808,72.928z"/>
			<g>
				<ellipse style="fill:#3B2519;" cx="125.997" cy="89.684" rx="6.173" ry="6.761"/>
				<circle style="fill:#FFFFFF;" cx="123.305" cy="86.698" r="1.846"/>
			</g>
			<path style="fill:#BF904B;" d="M135.109,72.928c-2.919,1.459-7.607-4.96-18.335,0.625c-1.956,1.018-3.123-8.708,8.377-8.708
				C135.109,64.845,136.873,72.047,135.109,72.928z"/>
		</g>
		<path style="fill:#FCBC85;" d="M97.459,113.464c-6.1,0-9.774-4.557-9.774-2.352c0,2.204,1.764,6.394,9.774,6.394
			c8.01,0,9.773-4.189,9.773-6.394C107.232,108.907,103.558,113.464,97.459,113.464z"/>
		<path style="fill:#FCBC85;" d="M97.459,133.734c-2.11,0-3.381-1.575-3.381-0.813c0,0.763,0.609,2.212,3.381,2.212
			c2.77,0,3.38-1.449,3.38-2.212C100.839,132.159,99.568,133.734,97.459,133.734z"/>
		<path style="fill:#F7945E;" d="M97.459,128.117c-9.669,0-15.493-3.936-15.493-2.939c0,0.997,2.796,4.924,15.493,4.924
			c12.696,0,15.492-3.927,15.492-4.924C112.951,124.181,107.127,128.117,97.459,128.117z"/>
	</g>
	<path style="fill:#7A707B;" d="M97.459,157.88v37.037h71.427C168.886,179.926,131.263,157.88,97.459,157.88z"/>
	<path style="fill:#7A707B;" d="M97.459,157.88v37.037H26.031C26.031,179.926,63.654,157.88,97.459,157.88z"/>
	<path style="fill:#665D67;" d="M64.393,163.991l17.794,30.926h15.272v-4.461l-21.671-29.861
		C71.899,161.528,68.082,162.677,64.393,163.991z"/>
	<path style="fill:#665D67;" d="M130.524,163.991l-17.794,30.926H97.459v-4.461l21.67-29.861
		C123.018,161.528,126.835,162.677,130.524,163.991z"/>
	<path style="fill:#FFFFFF;" d="M72.645,161.399c6.691,11.021,18.784,29.982,24.814,33.518V157.88
		C89.213,157.88,80.743,159.198,72.645,161.399z"/>
	<path style="fill:#FFFFFF;" d="M122.272,161.399c-6.691,11.021-18.784,29.982-24.814,33.518V157.88
		C105.704,157.88,114.174,159.198,122.272,161.399z"/>
	<path style="fill:#C7C5C4;" d="M97.722,157.88c-7.191,0-14.552,1.005-21.689,2.72c0.048,0.063,7.916,10.214,21.689,10.214
		c12.754,0,21.232-8.693,22.462-10.031C112.806,158.952,105.172,157.88,97.722,157.88z"/>
	<path style="fill:#FDCC9B;" d="M82.761,159.162c0,0,4.299,5.89,14.697,5.89c10.398,0,14.697-5.891,14.697-5.891
		S96.907,153.609,82.761,159.162z"/>
	<path style="fill:#BF904B;" d="M97.459,0C12.948,0,27.177,96.444,41.721,96.444c3.709,0,1.168-48.532,7.972-47.649
		c6.803,0.883,18.812,3.841,47.767,3.841c28.953,0,40.963-2.958,47.766-3.841c6.803-0.882,4.263,47.649,7.972,47.649
		C167.74,96.444,181.969,0,97.459,0z"/>
</g>
<g>
</g>
<g>
</g>
<g>
</g>
<g>
</g>
<g>
</g>
<g>
</g>
<g>
</g>
<g>
</g>
<g>
</g>
<g>
</g>
<g>
</g>
<g>
</g>
<g>
</g>
<g>
</g>
<g>
</g>
</svg>
