<?xml version="1.0" encoding="iso-8859-1"?>
<!-- Generator: Adobe Illustrator 18.0.0, SVG Export Plug-In . SVG Version: 6.00 Build 0)  -->
<!DOCTYPE svg PUBLIC "-//W3C//DTD SVG 1.1//EN" "http://www.w3.org/Graphics/SVG/1.1/DTD/svg11.dtd">
<svg version="1.1" id="Capa_1" xmlns="http://www.w3.org/2000/svg" xmlns:xlink="http://www.w3.org/1999/xlink" x="0px" y="0px"
	 viewBox="0 0 222.034 222.034" style="enable-background:new 0 0 222.034 222.034;" xml:space="preserve">
<g>
	<path style="fill:#524039;" d="M112.681,195.081V171.77c0,0,37.002-1.121,37.002,21.275L112.681,195.081z"/>
	<path style="fill:#524039;" d="M109.511,195.081V171.77c0,0-37.002-1.121-37.002,21.275L109.511,195.081z"/>
	<g>
		<rect x="96.319" y="171.769" style="fill:#FDCC9B;" width="29.395" height="32.922"/>
		<path style="fill:#FCBC85;" d="M96.319,175.646c0,0,12.365,7.874,29.395,6.05v-9.928H96.319V175.646z"/>
		<ellipse style="fill:#FCBC85;" cx="53.933" cy="120.719" rx="14.343" ry="16.364"/>
		<ellipse style="fill:#FCBC85;" cx="168.101" cy="120.719" rx="14.343" ry="16.364"/>
		<path style="fill:#FDCC9B;" d="M168.043,89.463c0-24.104-17.637-41.741-57.025-41.741c-39.39,0-57.026,17.637-57.026,41.741
			c0,24.104-4.115,87.597,57.026,87.597C172.158,177.06,168.043,113.567,168.043,89.463z"/>
		<g>
			<g>
				<ellipse style="fill:#3B2519;" cx="83.241" cy="116.8" rx="6.173" ry="6.761"/>
				<circle style="fill:#FFFFFF;" cx="80.55" cy="113.815" r="1.846"/>
			</g>
			<path style="fill:#401900;" d="M73.366,100.045c2.918,1.46,7.606-4.96,18.335,0.625c1.955,1.018,3.123-8.708-8.378-8.708
				C73.366,91.962,71.603,99.164,73.366,100.045z"/>
			<g>
				<ellipse style="fill:#3B2519;" cx="139.555" cy="116.8" rx="6.173" ry="6.761"/>
				<circle style="fill:#FFFFFF;" cx="136.864" cy="113.815" r="1.847"/>
			</g>
			<path style="fill:#401900;" d="M148.668,100.045c-2.919,1.46-7.605-4.96-18.335,0.625c-1.956,1.018-3.123-8.708,8.378-8.708
				C148.668,91.962,150.431,99.164,148.668,100.045z"/>
		</g>
		<path style="fill:#FCBC85;" d="M111.017,140.581c-6.1,0-9.774-4.556-9.774-2.352c0,2.205,1.764,6.394,9.774,6.394
			c8.01,0,9.773-4.189,9.773-6.394C120.791,136.024,117.116,140.581,111.017,140.581z"/>
		<path style="fill:#FCBC85;" d="M111.017,160.851c-2.11,0-3.381-1.576-3.381-0.813s0.61,2.211,3.381,2.211
			c2.77,0,3.38-1.448,3.38-2.211S113.127,160.851,111.017,160.851z"/>
		<path style="fill:#F7945E;" d="M111.017,155.234c-9.669,0-15.493-3.937-15.493-2.939c0,0.998,2.795,4.924,15.493,4.924
			c12.697,0,15.492-3.926,15.492-4.924C126.509,151.297,120.685,155.234,111.017,155.234z"/>
	</g>
	<path style="fill:#81665D;" d="M111.017,184.996v37.038H39.589C39.589,207.042,77.213,184.996,111.017,184.996z"/>
	<path style="fill:#81665D;" d="M111.017,184.996v37.038h71.427C182.444,207.042,144.821,184.996,111.017,184.996z"/>
	<polygon style="fill:#935125;" points="111.175,222.034 88.126,195.77 96.319,197.974 111.175,203.515 	"/>
	<polygon style="fill:#935125;" points="111.017,222.034 134.067,195.77 125.873,197.974 111.017,203.515 	"/>
	<path style="fill:#5D2F06;" d="M110.686,184.996c-7.756,0-15.71,1.171-23.368,3.141c1.69,6.66,6.948,17.029,23.368,17.029
		c16.419,0,21.677-10.368,23.368-17.029C126.396,186.167,118.442,184.996,110.686,184.996z"/>
	<path style="fill:#FDCC9B;" d="M96.319,186.278c0,0,0,13.68,14.698,13.68c14.697,0,14.697-13.68,14.697-13.68
		S110.466,180.727,96.319,186.278z"/>
	<path style="fill:#401900;" d="M193.763,80.562c7.055-6.054,0-15.368,0-15.368c4.409-10.71-5.291-16.298-5.291-16.298
		c0.882-11.642-9.259-13.505-9.259-13.505c-1.765-10.71-11.112-10.245-11.112-10.245c-4.058-11.642-14.344-9.779-14.344-9.779
		c-3.851-9.779-14.966-6.519-14.966-6.519c-6.469-8.382-15.495-1.397-15.495-1.397C122.497,3.725,118.806,0,111.017,0
		c-7.79,0-11.48,3.725-12.28,7.451c0,0-9.026-6.985-15.496,1.397c0,0-11.115-3.26-14.965,6.519c0,0-10.286-1.863-14.343,9.779
		c0,0-9.348-0.466-11.112,10.245c0,0-10.142,1.863-9.26,13.505c0,0-9.7,5.588-5.291,16.298c0,0-7.055,9.313,0,15.368
		c0,0-10.141,9.301-0.882,17.224c-6.614,13.804,4.409,21.095,4.409,21.095c-4.409,15.501,10.142,18.68,10.142,18.68
		c0.478,10.163,11.994,11.456,11.994,11.456s2.557,7.451,10.017,3.042c7.459-4.409-3.051-20.272-3.051-20.272
		c6.173-6.985,0-18.247,0-18.247c6.966-5.341,0-15.753,0-15.753c9.259-0.938,7.377-13.033,7.377-13.033
		c9.142,1.863,14.12-8.02,14.12-8.02c10.475,4.553,16.341-2.69,16.341-2.69c8.737,6.054,12.28,0,12.28,0s3.543,6.054,12.279,0
		c0,0,5.866,7.244,16.341,2.69c0,0,4.979,9.883,14.12,8.02c0,0-1.882,12.095,7.378,13.033c0,0-6.966,10.412,0,15.753
		c0,0-6.173,11.262,0,18.247c0,0-10.511,15.864-3.052,20.272c7.461,4.408,10.018-3.042,10.018-3.042s11.517-1.293,11.993-11.456
		c0,0,14.551-3.179,10.142-18.68c0,0,11.023-7.291,4.409-21.095C203.905,89.863,193.763,80.562,193.763,80.562z"/>
	<path style="fill:#614C45;" d="M88.603,187.759c0.44-2.861-17.12-0.752-16.976,7.322c0.145,8.074,19.401,14.283,24.692,17.223
		c5.291,2.939,14.698,9.73,14.698,9.73s1.763-6.82-6.467-12.082C96.319,204.691,88.015,191.581,88.603,187.759z"/>
	<path style="fill:#614C45;" d="M133.589,187.759c-0.44-2.861,17.119-0.752,16.976,7.322c-0.145,8.074-19.401,14.283-24.692,17.223
		c-5.291,2.939-14.855,9.73-14.855,9.73s-1.605-6.82,6.625-12.082C125.873,204.691,134.177,191.581,133.589,187.759z"/>
</g>
<g>
</g>
<g>
</g>
<g>
</g>
<g>
</g>
<g>
</g>
<g>
</g>
<g>
</g>
<g>
</g>
<g>
</g>
<g>
</g>
<g>
</g>
<g>
</g>
<g>
</g>
<g>
</g>
<g>
</g>
</svg>
