<?xml version="1.0" encoding="iso-8859-1"?>
<!-- Generator: Adobe Illustrator 18.0.0, SVG Export Plug-In . SVG Version: 6.00 Build 0)  -->
<!DOCTYPE svg PUBLIC "-//W3C//DTD SVG 1.1//EN" "http://www.w3.org/Graphics/SVG/1.1/DTD/svg11.dtd">
<svg version="1.1" id="Capa_1" xmlns="http://www.w3.org/2000/svg" xmlns:xlink="http://www.w3.org/1999/xlink" x="0px" y="0px"
	 viewBox="0 0 200.796 200.796" style="enable-background:new 0 0 200.796 200.796;" xml:space="preserve">
<g>
	<g>
		<rect x="85.701" y="150.53" style="fill:#FDCC9B;" width="29.395" height="32.923"/>
		<path style="fill:#FCBC85;" d="M85.701,154.408c0,0,12.364,7.874,29.395,6.051v-9.929H85.701V154.408z"/>
		<ellipse style="fill:#FCBC85;" cx="43.314" cy="99.48" rx="14.343" ry="16.364"/>
		<ellipse style="fill:#FCBC85;" cx="157.482" cy="99.48" rx="14.343" ry="16.364"/>
		<path style="fill:#FDCC9B;" d="M157.424,68.225c0-24.104-17.637-41.74-57.025-41.74c-39.39,0-57.026,17.637-57.026,41.74
			c0,24.104-4.115,87.597,57.026,87.597C161.539,155.821,157.424,92.329,157.424,68.225z"/>
		<g>
			<g>
				<ellipse style="fill:#3B2519;" cx="72.623" cy="95.562" rx="6.173" ry="6.761"/>
				<circle style="fill:#FFFFFF;" cx="69.931" cy="92.577" r="1.846"/>
			</g>
			<path style="fill:#36221E;" d="M62.748,78.807c2.918,1.46,7.606-4.96,18.335,0.625c1.955,1.018,3.123-8.708-8.378-8.708
				C62.748,70.724,60.984,77.926,62.748,78.807z"/>
			<g>
				<ellipse style="fill:#3B2519;" cx="128.937" cy="95.562" rx="6.173" ry="6.761"/>
				<circle style="fill:#FFFFFF;" cx="126.245" cy="92.577" r="1.847"/>
			</g>
			<path style="fill:#36221E;" d="M138.049,78.807c-2.919,1.46-7.605-4.96-18.335,0.625c-1.955,1.018-3.123-8.708,8.378-8.708
				C138.049,70.724,139.813,77.926,138.049,78.807z"/>
		</g>
		<path style="fill:#FCBC85;" d="M100.399,119.343c-6.1,0-9.774-4.557-9.774-2.352c0,2.204,1.764,6.393,9.774,6.393
			c8.01,0,9.773-4.189,9.773-6.393C110.172,114.786,106.497,119.343,100.399,119.343z"/>
		<path style="fill:#FCBC85;" d="M100.399,139.613c-2.11,0-3.381-1.576-3.381-0.813c0,0.763,0.61,2.212,3.381,2.212
			c2.77,0,3.38-1.449,3.38-2.212C103.778,138.037,102.508,139.613,100.399,139.613z"/>
		<path style="fill:#F7945E;" d="M100.399,133.996c-9.669,0-15.493-3.938-15.493-2.939c0,0.997,2.796,4.924,15.493,4.924
			c12.697,0,15.492-3.927,15.492-4.924C115.891,130.059,110.066,133.996,100.399,133.996z"/>
	</g>
	<path style="fill:#98375E;" d="M100.399,163.758v37.038h71.427C171.825,185.805,134.202,163.758,100.399,163.758z"/>
	<path style="fill:#98375E;" d="M100.399,163.758v37.038H28.971C28.971,185.805,66.594,163.758,100.399,163.758z"/>
	<path style="fill:#C05371;" d="M100.661,163.758c-7.19,0-14.552,1.005-21.689,2.721c0.048,0.063,7.916,10.213,21.689,10.213
		c12.755,0,21.232-8.692,22.462-10.03C115.746,164.831,108.111,163.758,100.661,163.758z"/>
	<path style="fill:#FDCC9B;" d="M85.701,165.04c0,0,4.299,5.891,14.698,5.891c10.398,0,14.697-5.891,14.697-5.891
		S99.847,159.488,85.701,165.04z"/>
	<g>
		<path style="fill:#C05371;" d="M71.117,168.595c-1.245,0.395-2.475,0.81-3.693,1.243v30.958h3.693V168.595z"/>
		<path style="fill:#C05371;" d="M56.996,200.796h8.792v-30.374c-3.042,1.133-5.983,2.38-8.792,3.711V200.796z"/>
	</g>
	<g>
		<path style="fill:#C05371;" d="M129.659,168.595c1.244,0.395,2.475,0.81,3.692,1.243v30.958h-3.692V168.595z"/>
		<path style="fill:#C05371;" d="M143.779,200.796h-8.792v-30.374c3.041,1.133,5.982,2.38,8.792,3.711V200.796z"/>
	</g>
	<path style="fill:#342620;" d="M36.171,53.886C39.404,16.306,69.975,0,100.399,0c30.424,0,60.994,16.306,64.227,53.886
		c3.233,37.581-6.467,67.398-11.695,63.786c-5.227-3.611,2.766-52.695-13.526-49.623c-25.72,4.85-68.989-16.535-68.989-16.535
		s0.123,12.832-10.031,19.21c-19.731,12.394-7.291,43.337-12.518,46.948C42.637,121.283,32.937,91.467,36.171,53.886z"/>
	<path style="fill:#342620;" d="M100.729,146.68v12.529c-16.314,0-25.502-6.004-26.493-8.679c-0.991-2.675,7.534,1.499,11.796,0
		C90.294,149.031,93.527,146.68,100.729,146.68z"/>
	<path style="fill:#342620;" d="M100.399,146.68v12.529c16.313,0,25.502-6.004,26.493-8.679c0.99-2.675-7.534,1.499-11.796,0
		C110.833,149.031,107.6,146.68,100.399,146.68z"/>
</g>
<g>
</g>
<g>
</g>
<g>
</g>
<g>
</g>
<g>
</g>
<g>
</g>
<g>
</g>
<g>
</g>
<g>
</g>
<g>
</g>
<g>
</g>
<g>
</g>
<g>
</g>
<g>
</g>
<g>
</g>
</svg>
