<?xml version="1.0" encoding="iso-8859-1"?>
<!-- Generator: Adobe Illustrator 18.0.0, SVG Export Plug-In . SVG Version: 6.00 Build 0)  -->
<!DOCTYPE svg PUBLIC "-//W3C//DTD SVG 1.1//EN" "http://www.w3.org/Graphics/SVG/1.1/DTD/svg11.dtd">
<svg version="1.1" id="Capa_1" xmlns="http://www.w3.org/2000/svg" xmlns:xlink="http://www.w3.org/1999/xlink" x="0px" y="0px"
	 viewBox="0 0 216.212 216.212" style="enable-background:new 0 0 216.212 216.212;" xml:space="preserve">
<g>
	<path style="fill:#684B37;" d="M48.903,138.801c0,0,5.683,11.436,0,25.352c-3.421,8.378,7.161,3.087,10.247,0
		c0,0,3.087,9.896-3.086,17.735c-6.173,7.838,11.613,5.314,17.05-10.841c0,0,2.996,13.829-7.027,23.971
		c-10.023,10.141,42.019,6.173,42.019,6.173v-66.433L48.903,138.801z"/>
	<path style="fill:#543C2A;" d="M168.031,138.801c0,0-5.683,11.436,0,25.352c3.421,8.378-7.161,3.087-10.247,0
		c0,0-3.086,9.896,3.086,17.735c6.173,7.838-11.613,5.314-17.05-10.841c0,0-2.996,13.829,7.027,23.971
		c10.023,10.141-42.019,6.173-42.019,6.173v-66.433L168.031,138.801z"/>
	<g>
		<rect x="94.13" y="165.947" style="fill:#FDCC9B;" width="29.395" height="32.923"/>
		<path style="fill:#FCBC85;" d="M94.131,169.825c0,0,12.365,7.874,29.394,6.051v-9.929H94.131V169.825z"/>
		<ellipse style="fill:#FCBC85;" cx="51.744" cy="114.897" rx="14.343" ry="16.364"/>
		<ellipse style="fill:#FCBC85;" cx="165.912" cy="114.897" rx="14.343" ry="16.364"/>
		<path style="fill:#FDCC9B;" d="M165.854,83.641c0-24.104-17.637-41.741-57.026-41.741c-39.389,0-57.026,17.637-57.026,41.741
			c0,24.104-4.115,87.597,57.026,87.597C169.969,171.239,165.854,107.745,165.854,83.641z"/>
		<g>
			<g>
				<ellipse style="fill:#3B2519;" cx="81.052" cy="110.979" rx="6.173" ry="6.761"/>
				<circle style="fill:#FFFFFF;" cx="78.361" cy="107.994" r="1.846"/>
			</g>
			<path style="fill:#684B37;" d="M71.177,94.224c2.919,1.459,7.606-4.96,18.335,0.625c1.956,1.018,3.123-8.709-8.377-8.709
				C71.177,86.14,69.413,93.342,71.177,94.224z"/>
			<g>
				<ellipse style="fill:#3B2519;" cx="137.366" cy="110.979" rx="6.173" ry="6.761"/>
				<circle style="fill:#FFFFFF;" cx="134.675" cy="107.994" r="1.846"/>
			</g>
			<path style="fill:#684B37;" d="M146.479,94.224c-2.919,1.459-7.606-4.96-18.335,0.625c-1.956,1.018-3.123-8.709,8.378-8.709
				C146.479,86.14,148.243,93.342,146.479,94.224z"/>
		</g>
		<path style="fill:#FCBC85;" d="M108.828,134.759c-6.1,0-9.774-4.557-9.774-2.352c0,2.204,1.764,6.394,9.774,6.394
			c8.01,0,9.774-4.189,9.774-6.394C118.602,130.203,114.927,134.759,108.828,134.759z"/>
		<path style="fill:#FCBC85;" d="M108.828,155.03c-2.11,0-3.381-1.575-3.381-0.814c0,0.763,0.61,2.212,3.381,2.212
			c2.771,0,3.38-1.449,3.38-2.212C112.208,153.454,110.937,155.03,108.828,155.03z"/>
		<path style="fill:#F7945E;" d="M108.828,149.412c-9.668,0-15.493-3.937-15.493-2.939s2.796,4.924,15.493,4.924
			c12.697,0,15.493-3.927,15.493-4.924S118.496,149.412,108.828,149.412z"/>
	</g>
	<path style="fill:#C1B397;" d="M108.828,179.175v37.037H37.401C37.401,201.221,75.024,179.175,108.828,179.175z"/>
	<path style="fill:#C1B397;" d="M108.828,179.175v37.037h71.427C180.255,201.221,142.632,179.175,108.828,179.175z"/>
	<path style="fill:#684B37;" d="M35.341,114.897c-7.387-36.365,1.764-64.06-1.764-68.028c-3.527-3.968-9.259,1.323-9.7-1.764
		c-0.441-3.086,9.259-7.937,13.524-12.787c4.264-4.85,3.231-19.842,7.199-15.433c3.968,4.41,0,14.551,0,14.551
		c45.856-63.052,121.695-15.432,130.072,6.614c8.377,22.046,22.046,37.479,16.314,37.479c-6.716,0-10.731-9.259-10.731-9.259
		s6.322,17.637,3.235,43.57c-3.086,25.934-30.863,41.649-26.715,34.793c8.487-14.025,2.023-40.415,2.023-40.415
		c-0.441,2.675-4.85,6.584-4.994,1.929c-0.726-23.626-14.407-30.618-14.407-30.618s4.85,7.496-2.032,7.055
		c-20.626-1.321-34.123-9.7-34.123-9.7s4.85,9.7,0,9.7c-16.338,0-32.667-9.7-32.667-9.7s-8.205,16.748-7.979,31.335
		c0.081,5.262-5.21-0.471-5.21-4.439c0,0-5.779,31.07,4.341,46.462C66.176,153.006,40,137.837,35.341,114.897z"/>
	<path style="fill:#9D937C;" d="M84.267,182.628l24.561,33.584v-18.518l-11.032-17.771
		C93.241,180.513,88.701,181.435,84.267,182.628z"/>
	<path style="fill:#9D937C;" d="M133.388,182.628l-24.56,33.584v-18.518l11.032-17.771
		C124.414,180.513,128.955,181.435,133.388,182.628z"/>
	<path style="fill:#FDCC9B;" d="M94.131,180.457l14.697,22.718l14.697-22.719C123.525,180.456,108.277,174.905,94.131,180.457z"/>
</g>
<g>
</g>
<g>
</g>
<g>
</g>
<g>
</g>
<g>
</g>
<g>
</g>
<g>
</g>
<g>
</g>
<g>
</g>
<g>
</g>
<g>
</g>
<g>
</g>
<g>
</g>
<g>
</g>
<g>
</g>
</svg>
