<?xml version="1.0" encoding="iso-8859-1"?>
<!-- Generator: Adobe Illustrator 18.0.0, SVG Export Plug-In . SVG Version: 6.00 Build 0)  -->
<!DOCTYPE svg PUBLIC "-//W3C//DTD SVG 1.1//EN" "http://www.w3.org/Graphics/SVG/1.1/DTD/svg11.dtd">
<svg version="1.1" id="Capa_1" xmlns="http://www.w3.org/2000/svg" xmlns:xlink="http://www.w3.org/1999/xlink" x="0px" y="0px"
	 viewBox="0 0 204.348 204.348" style="enable-background:new 0 0 204.348 204.348;" xml:space="preserve">
<g>
	<path style="fill:#86461B;" d="M183.045,111.688c0,0,12.558,9.032,4.749,22.759c0,0,14.423,9.875,3.399,26.029
		c0,0,10.564,15.359,0,25.354c0,0,2.535,11.932-11.611,12.492c0,0-0.592,6.026-12.936,6.026l-64.373-14.991v-80.202L183.045,111.688
		z"/>
	<path style="fill:#86461B;" d="M21.303,111.688c0,0-12.558,9.032-4.748,22.759c0,0-14.423,9.875-3.4,26.029
		c0,0-10.564,15.359,0,25.354c0,0-2.535,11.932,11.611,12.492c0,0,0.592,6.026,12.936,6.026l64.373-14.991v-80.202L21.303,111.688z"
		/>
	<path style="fill:#703910;" d="M58.129,139.533c0,0-8.173,12.392,1.204,17.219c0,0-7.951,7.275-2.252,13.792
		c0,0-15.267,4.467-5.566,18.033s50.759,7.393,50.759,7.393v-64.815L58.129,139.533z"/>
	<path style="fill:#703910;" d="M146.219,139.533c0,0,8.174,12.392-1.204,17.219c0,0,7.952,7.275,2.252,13.792
		c0,0,15.267,4.467,5.566,18.033c-9.7,13.566-50.759,7.393-50.759,7.393v-64.815L146.219,139.533z"/>
	<g>
		<g>
			<rect x="87.377" y="154.083" style="fill:#FDCC9B;" width="29.395" height="32.923"/>
			<path style="fill:#FCBC85;" d="M87.377,157.961c0,0,12.365,7.874,29.395,6.051v-9.929H87.377V157.961z"/>
			<ellipse style="fill:#FCBC85;" cx="44.99" cy="103.033" rx="14.343" ry="16.364"/>
			<ellipse style="fill:#FCBC85;" cx="159.158" cy="103.033" rx="14.343" ry="16.364"/>
			<path style="fill:#FDCC9B;" d="M159.1,71.777c0-24.104-17.637-41.74-57.025-41.74c-39.39,0-57.026,17.637-57.026,41.74
				c0,24.104-4.115,87.597,57.026,87.597C163.215,159.374,159.1,95.882,159.1,71.777z"/>
			<g>
				<g>
					<ellipse style="fill:#3B2519;" cx="74.299" cy="99.115" rx="6.173" ry="6.761"/>
					<circle style="fill:#FFFFFF;" cx="71.607" cy="96.13" r="1.846"/>
				</g>
				<path style="fill:#86461B;" d="M64.424,84.538c2.918,1.117,7.605-3.799,18.334,0.478c1.956,0.78,3.124-6.668-8.377-6.668
					C64.424,78.347,62.661,83.862,64.424,84.538z"/>
				<g>
					<ellipse style="fill:#3B2519;" cx="130.613" cy="99.115" rx="6.173" ry="6.761"/>
					<circle style="fill:#FFFFFF;" cx="127.921" cy="96.13" r="1.847"/>
				</g>
				<path style="fill:#86461B;" d="M139.725,84.538c-2.919,1.117-7.605-3.799-18.335,0.478c-1.955,0.78-3.123-6.668,8.378-6.668
					C139.725,78.347,141.489,83.862,139.725,84.538z"/>
			</g>
			<path style="fill:#FCBC85;" d="M102.075,122.895c-6.1,0-9.774-4.557-9.774-2.352c0,2.204,1.764,6.393,9.774,6.393
				c8.01,0,9.773-4.189,9.773-6.393C111.848,118.339,108.174,122.895,102.075,122.895z"/>
			<path style="fill:#FCBC85;" d="M102.075,143.166c-2.109,0-3.381-1.576-3.381-0.813c0,0.763,0.61,2.212,3.381,2.212
				s3.381-1.449,3.381-2.212C105.455,141.59,104.184,143.166,102.075,143.166z"/>
			<path style="fill:#F7945E;" d="M102.075,137.549c-9.668,0-15.493-3.938-15.493-2.939c0,0.997,2.796,4.924,15.493,4.924
				c12.697,0,15.492-3.927,15.492-4.924C117.567,133.611,111.743,137.549,102.075,137.549z"/>
		</g>
		<circle style="fill:#F9AA8D;" cx="66.361" cy="120.72" r="8.378"/>
		<circle style="fill:#F9AA8D;" cx="138.818" cy="120.72" r="8.377"/>
	</g>
	<path style="fill:#F7ACBA;" d="M102.075,167.31v37.038H37.702C37.702,189.357,68.271,167.31,102.075,167.31z"/>
	<path style="fill:#F7ACBA;" d="M102.075,167.31v37.038h64.372C166.447,189.357,135.878,167.31,102.075,167.31z"/>
	<path style="fill:#F5919D;" d="M101.883,167.31c-7.271,0-14.715,1.005-21.933,2.721c0.049,0.063,8.006,10.213,21.933,10.213
		c12.898,0,21.472-8.692,22.715-10.03C117.138,168.383,109.417,167.31,101.883,167.31z"/>
	<path style="fill:#FDCC9B;" d="M87.377,168.592c0,0,4.299,5.332,14.697,5.332c10.398,0,14.697-5.332,14.697-5.332
		S101.524,163.041,87.377,168.592z"/>
	<path style="fill:#86461B;" d="M180.861,75.051c16.453,14.07,3.347,27.982,3.347,27.982c5.464,16.364-13.055,20.406-13.055,20.406
		s-6.762,15.652-16.021,11.008c-9.26-4.645-4.409-20.047-4.409-20.047c-5.908-6.394,0.44-13.228,0.44-13.228
		c-7.055-6.614-0.882-19.842-0.882-19.842c-7.055-2.204-9.259-11.464-9.259-11.464c-11.023-0.441-14.11-15.433-14.11-15.433
		s-3.527,12.787-17.637,8.378c0,0-12.786,11.464-22.046,2.646c0,0-13.228,9.259-20.282-0.882c0,0,0,10.582-14.551,12.786
		c0,0,5.732,14.992-1.764,21.605c0,0,8.818,15.873,1.323,22.487c0,0,13.228,11.023,6.173,18.078
		c-7.055,7.055-18.519,1.764-18.96-8.378c0,0-16.755,2.205-15.873-16.314c0,0-12.346-16.313-2.204-29.542
		c0,0-8.378-15.873,3.526-27.777c0,0-1.322-22.928,14.992-27.778c0,0,6.613-19.842,24.25-16.755c0,0,11.464-16.755,29.542-8.378
		c0,0,19.842-11.464,31.306,1.764c0,0,11.554-7.495,20.106,6.614c0,0,14.727,2.792,16.049,17.049c0,0,20.574,4.409,14.992,22.046
		C175.856,52.083,191.243,57.414,180.861,75.051z"/>
	<path style="fill:#D85B72;" d="M70.58,173.536c-19.172,7.632-32.879,20.785-32.879,30.813h41.32L70.58,173.536z"/>
	<path style="fill:#BA396A;" d="M82.38,204.348c0,0-8.231-24.251-9.112-33.805c0,0-4.482,0.273-9.554,4.557
		c0,0,6.467,20.576,10.582,29.101L82.38,204.348z"/>
	<path style="fill:#D85B72;" d="M133.569,173.536c19.172,7.632,32.878,20.785,32.878,30.813h-41.319L133.569,173.536z"/>
	<path style="fill:#BA396A;" d="M121.769,204.348c0,0,8.23-24.251,9.112-33.805c0,0,4.482,0.273,9.554,4.557
		c0,0-6.467,20.576-10.582,29.101L121.769,204.348z"/>
</g>
<g>
</g>
<g>
</g>
<g>
</g>
<g>
</g>
<g>
</g>
<g>
</g>
<g>
</g>
<g>
</g>
<g>
</g>
<g>
</g>
<g>
</g>
<g>
</g>
<g>
</g>
<g>
</g>
<g>
</g>
</svg>
