<?xml version="1.0" encoding="iso-8859-1"?>
<!-- Generator: Adobe Illustrator 18.0.0, SVG Export Plug-In . SVG Version: 6.00 Build 0)  -->
<!DOCTYPE svg PUBLIC "-//W3C//DTD SVG 1.1//EN" "http://www.w3.org/Graphics/SVG/1.1/DTD/svg11.dtd">
<svg version="1.1" id="Capa_1" xmlns="http://www.w3.org/2000/svg" xmlns:xlink="http://www.w3.org/1999/xlink" x="0px" y="0px"
	 viewBox="0 0 206.363 206.363" style="enable-background:new 0 0 206.363 206.363;" xml:space="preserve">
<g>
	<path style="fill:#9E773D;" d="M104.516,201.925V96.721H53.213c0,0-9.802,43.534,12.891,64.669
		C66.103,161.39,55.247,201.925,104.516,201.925z"/>
	<path style="fill:#9E773D;" d="M105.505,201.925V96.721h51.302c0,0,9.803,43.534-12.891,64.669
		C143.916,161.39,154.773,201.925,105.505,201.925z"/>
	<g>
		<g>
			<rect x="89.818" y="156.098" style="fill:#FDCC9B;" width="29.395" height="32.923"/>
			<path style="fill:#FCBC85;" d="M89.818,159.976c0,0,12.364,7.874,29.395,6.051v-9.929H89.818V159.976z"/>
			<ellipse style="fill:#FCBC85;" cx="47.431" cy="105.048" rx="14.343" ry="16.364"/>
			<ellipse style="fill:#FCBC85;" cx="161.599" cy="105.048" rx="14.343" ry="16.364"/>
			<path style="fill:#FDCC9B;" d="M161.541,73.793c0-24.103-17.637-41.741-57.025-41.741c-39.39,0-57.026,17.637-57.026,41.741
				c0,24.104-4.115,87.597,57.026,87.597C165.656,161.39,161.541,97.897,161.541,73.793z"/>
			<g>
				<g>
					<ellipse style="fill:#3B2519;" cx="76.74" cy="101.13" rx="6.173" ry="6.761"/>
					<circle style="fill:#FFFFFF;" cx="74.048" cy="98.145" r="1.846"/>
				</g>
				<path style="fill:#BF904B;" d="M66.864,86.553c2.919,1.117,7.606-3.798,18.335,0.478c1.956,0.78,3.124-6.668-8.377-6.668
					C66.864,80.363,65.1,85.878,66.864,86.553z"/>
				<g>
					<ellipse style="fill:#3B2519;" cx="133.054" cy="101.13" rx="6.173" ry="6.761"/>
					<circle style="fill:#FFFFFF;" cx="130.362" cy="98.145" r="1.847"/>
				</g>
				<path style="fill:#BF904B;" d="M142.166,86.553c-2.919,1.117-7.605-3.798-18.335,0.478c-1.956,0.78-3.123-6.668,8.378-6.668
					C142.166,80.363,143.93,85.878,142.166,86.553z"/>
			</g>
			<path style="fill:#FCBC85;" d="M104.516,124.91c-6.1,0-9.774-4.557-9.774-2.351c0,2.204,1.764,6.394,9.774,6.394
				c8.01,0,9.773-4.189,9.773-6.394C114.289,120.354,110.615,124.91,104.516,124.91z"/>
			<path style="fill:#FCBC85;" d="M104.516,145.181c-2.109,0-3.381-1.575-3.381-0.814c0,0.763,0.61,2.212,3.381,2.212
				c2.771,0,3.38-1.449,3.38-2.212C107.895,143.606,106.625,145.181,104.516,145.181z"/>
			<path style="fill:#F7945E;" d="M104.516,139.564c-9.668,0-15.493-3.937-15.493-2.939s2.796,4.924,15.493,4.924
				c12.697,0,15.492-3.927,15.492-4.924S114.183,139.564,104.516,139.564z"/>
		</g>
		<circle style="fill:#F9AA8D;" cx="68.802" cy="122.735" r="8.378"/>
		<circle style="fill:#F9AA8D;" cx="141.259" cy="122.735" r="8.377"/>
	</g>
	<path style="fill:#9D777B;" d="M104.516,169.326v37.037H40.142C40.142,191.372,70.711,169.326,104.516,169.326z"/>
	<path style="fill:#9D777B;" d="M104.516,169.326v37.037h64.372C168.888,191.372,138.319,169.326,104.516,169.326z"/>
	<path style="fill:#7B5C60;" d="M71.804,176.055l17.439,30.309h15.272v-4.461L83.003,172.26
		C79.102,173.301,75.358,174.578,71.804,176.055z"/>
	<path style="fill:#7B5C60;" d="M137.226,176.055l-17.44,30.309h-15.271v-4.461l21.512-29.643
		C129.928,173.301,133.672,174.578,137.226,176.055z"/>
	<path style="fill:#FFFFFF;" d="M80.621,172.892c5.63,10.071,18.247,33.472,23.895,33.472v-37.037
		C96.219,169.326,88.125,170.666,80.621,172.892z"/>
	<path style="fill:#FFFFFF;" d="M128.409,172.892c-5.629,10.071-18.246,33.472-23.894,33.472v-37.037
		C112.811,169.326,120.906,170.666,128.409,172.892z"/>
	<path style="fill:#BF904B;" d="M149.637,20.706c0,0-20.344-27.19-60.614-19.254C48.752,9.389,24.454,42.759,25.296,76.291
		c1.323,52.661,33.371,63.007,40.967,71.719c-5.94-12.816-14.658-37.356-12.894-53.641c1.326-12.245,7.056-16.344,7.056-16.344
		c12.867,6.708,19.841-7.721,19.841-7.721c1.764,13.421,27.631-6.389,27.631-6.389s-2.939,8.394,6.394,11.068
		c9.333,2.675,26.97-17.903,26.97-17.903s0.294,23.414,12.199,23.281c0,0,3.656,7.225,2.774,20.767
		c-0.882,13.542-6.596,32.011-10.913,44.239c11.225-6.364,35.769-21.05,35.769-61.644C181.089,43.131,171.682,24.38,149.637,20.706z
		"/>
	<path style="fill:#FDCC9B;" d="M89.818,170.747c0,0,4.299,11.777,14.697,11.777c10.398,0,14.697-11.777,14.697-11.777
		S103.965,165.195,89.818,170.747z"/>
	<path style="fill:#C7C5C4;" d="M85.735,171.558c2.455,6.537,7.74,15.217,18.78,15.217c11.039,0,16.325-8.68,18.779-15.217
		c-6.019-1.405-12.334-2.232-18.779-2.232C98.069,169.326,91.755,170.152,85.735,171.558z"/>
	<path style="fill:#FDCC9B;" d="M119.213,170.747c0,0-1.911,11.777-14.697,11.777c-12.787,0-14.697-11.777-14.697-11.777
		s5.731-3.288,14.697-3.288C113.48,167.459,119.213,170.747,119.213,170.747z"/>
</g>
<g>
</g>
<g>
</g>
<g>
</g>
<g>
</g>
<g>
</g>
<g>
</g>
<g>
</g>
<g>
</g>
<g>
</g>
<g>
</g>
<g>
</g>
<g>
</g>
<g>
</g>
<g>
</g>
<g>
</g>
</svg>
