<svg height="512pt" viewBox="0 -20 512 512" width="512pt" xmlns="http://www.w3.org/2000/svg"><path d="m502 292h-374.410156v-264.554688c0-9.632812 7.8125-17.445312 17.445312-17.445312h339.519532c9.632812 0 17.445312 7.8125 17.445312 17.445312zm0 0" fill="#d8d8e4"/><path d="m349.699219 288.976562c8.601562-4.339843 39.296875-67.003906 48.867187-86.875-9.636718 1.46875-17.03125 9.769532-17.03125 19.820313v-65.660156c0-11.089844-8.988281-20.078125-20.078125-20.078125-11.085937 0-20.074219 8.988281-20.074219 20.078125v140.265625c1.992188-3.136719 4.8125-5.785156 8.316407-7.550782zm0 0" fill="#fff"/><path d="m371.496094 414.09375c-8.292969-11.347656-14.261719-24.226562-17.558594-37.890625l-15.285156-63.359375c-1.144532-4.75-.589844-9.578125 1.335937-13.777344l-22.1875-41.082031c-5.445312-10.085937-17.929687-14.003906-28.164062-8.84375-8.773438 4.429687-13.351563 14.3125-11.042969 23.871094l15.285156 63.359375c3.296875 13.664062 9.261719 26.542968 17.558594 37.890625l29.945312 40.980469v46.757812h60.058594v-6.925781zm0 0" fill="#fff"/><path d="m481.371094 415.242188 11.78125-37.5625c5.863281-18.703126 8.847656-38.1875 8.847656-57.789063v-70.457031c0-11.085938-8.988281-20.074219-20.078125-20.074219-11.085937 0-20.078125 8.988281-20.078125 20.074219v-14.792969c0-11.085937-8.988281-20.078125-20.074219-20.078125-11.089843 0-20.078125 8.992188-20.078125 20.078125v-12.714844c0-11.089843-8.992187-20.078125-20.078125-20.078125-1.039062 0-2.050781.101563-3.046875.253906-9.570312 19.871094-40.265625 82.535157-48.867187 86.875-3.503907 1.765626-6.324219 4.414063-8.316407 7.550782v5.121094l-1.394531-2.582032c-1.925781 4.199219-2.480469 9.03125-1.335937 13.777344l15.285156 63.359375c3.296875 13.664063 9.265625 26.542969 17.558594 37.894531l29.945312 40.976563v6.925781h79.933594v-46.757812zm0 0" fill="#ffc89f"/><path d="m170.617188 462v-46.757812l29.949218-40.980469c8.292969-11.347657 14.257813-24.226563 17.554688-37.890625l15.285156-63.359375c2.308594-9.558594-2.265625-19.441407-11.042969-23.871094-10.234375-5.160156-22.71875-1.242187-28.164062 8.84375l-23.578125 43.660156v-145.382812c0-11.085938-8.988282-20.078125-20.078125-20.078125-11.089844 0-20.078125 8.992187-20.078125 20.078125v65.660156c0-11.085937-8.988282-20.074219-20.078125-20.074219-11.085938 0-20.074219 8.988282-20.074219 20.074219v12.71875c0-11.089844-8.992188-20.078125-20.078125-20.078125-4.3125 0-8.296875 1.371094-11.570313 3.6875v44.019531c0 27.546875 4.191407 54.933594 12.4375 81.222657l16.554688 52.789062v65.71875zm0 0" fill="#ffc89f"/><path d="m512 30c0-16.542969-13.457031-30-30-30h-452c-16.542969 0-30 13.457031-30 30v219c0 .050781.0078125.097656.0078125.144531 0 .097657-.0078125.195313-.0078125.289063v70.457031c0 20.640625 3.132812 41.089844 9.308594 60.785156l11.320312 36.097657v45.226562c0 5.523438 4.476563 10 10 10 5.519532 0 10-4.476562 10-10v-46.761719c0-1.011719-.15625-2.019531-.460937-2.992187l-11.777344-37.558594c-5.566406-17.75-8.390625-36.1875-8.390625-54.796875v-70.457031c0-5.554688 4.519531-10.074219 10.078125-10.074219 5.554687 0 10.074219 4.519531 10.074219 10.074219v24.507812c0 5.523438 4.480468 10 10 10 5.523437 0 10-4.476562 10-10v-39.300781c0-5.558594 4.523437-10.078125 10.078125-10.078125 5.558593 0 10.078125 4.523438 10.078125 10.078125v39.300781c0 5.523438 4.476562 10 10 10 5.523437 0 10-4.476562 10-10v-52.019531c0-5.554687 4.519531-10.074219 10.078125-10.074219 5.554687 0 10.078125 4.519532 10.078125 10.074219v52.019531c0 5.523438 4.476562 10 10 10 5.519531 0 10-4.476562 10-10v-117.679687c0-5.558594 4.519531-10.078125 10.074218-10.078125 5.558594 0 10.078126 4.523437 10.078126 10.078125v145.386719c0 4.578124 3.109374 8.570312 7.550781 9.695312 4.4375 1.117188 9.074219-.914062 11.25-4.945312l23.578125-43.660157c2.894531-5.359375 9.421875-7.414062 14.859375-4.667969 4.65625 2.347657 7.050781 7.527344 5.828125 12.59375l-15.285156 63.363282c-3 12.445312-8.351563 23.996094-15.910157 34.332031l-29.941406 40.980469c-1.253906 1.714844-1.929687 3.777344-1.929687 5.898437v46.761719c0 5.523438 4.480468 10 10 10 5.523437 0 10-4.476562 10-10v-43.496094l28.019531-38.34375c9.121093-12.476562 15.582031-26.421875 19.207031-41.441406l8.855469-36.71875h38.601562l8.855469 36.714844c3.625 15.023437 10.085938 28.96875 19.203125 41.445312l28.023437 38.34375v43.496094c0 5.523438 4.476563 10 10 10 5.519532 0 10-4.476562 10-10v-46.761719c0-2.121093-.675781-4.1875-1.929687-5.898437l-29.945313-40.980469c-7.554687-10.335937-12.90625-21.886719-15.90625-34.335937l-15.289062-63.359376c-1.222656-5.066406 1.175781-10.246093 5.828125-12.59375 5.4375-2.742187 11.96875-.691406 14.863281 4.664063l23.578125 43.664063c2.175781 4.03125 6.820313 6.0625 11.25 4.941406 4.4375-1.121094 7.550781-5.113282 7.550781-9.695313v-145.382812c0-5.558594 4.519532-10.078125 10.078126-10.078125 5.554687 0 10.074218 4.523437 10.074218 10.078125v117.679687c0 5.519532 4.480469 10 10 10 5.523438 0 10-4.480468 10-10v-52.019531c0-5.558594 4.523438-10.078125 10.078125-10.078125 5.554688 0 10.078125 4.523438 10.078125 10.078125v52.019531c0 5.519532 4.476563 10 10 10 5.519532 0 10-4.480468 10-10v-39.300781c0-5.558594 4.519532-10.078125 10.074219-10.078125 5.558594 0 10.078125 4.523438 10.078125 10.078125v39.300781c0 5.523438 4.480469 10 10 10 5.523438 0 10-4.476562 10-10v-24.507812c0-5.554688 4.523438-10.074219 10.078125-10.074219s10.078125 4.519531 10.078125 10.074219v70.457031c0 18.609375-2.824219 37.046875-8.390625 54.800781l-11.777344 37.558594c-.304687.96875-.460937 1.976562-.460937 2.992188v46.757812c0 5.523438 4.480468 10 10 10 5.523437 0 10-4.476562 10-10v-45.230469l11.320312-36.097656c6.175782-19.691406 9.308594-40.140625 9.308594-60.78125v-70.457031c0-.097656-.007812-.191406-.007812-.289063 0-.046875.007812-.09375.007812-.144531zm-243.128906 245.355469 1.605468 6.644531h-28.953124l1.605468-6.644531c2.855469-11.84375-1.375-23.902344-10.453125-31.359375h46.648438c-9.078125 7.457031-13.308594 19.515625-10.453125 31.359375zm213.050781-56c-4.5625 0-8.890625 1.023437-12.769531 2.847656-4.738282-10.394531-15.230469-17.640625-27.386719-17.640625-4.890625 0-9.507813 1.171875-13.59375 3.25-5.0625-9.492188-15.070313-15.96875-26.558594-15.96875-3.535156 0-6.925781.613281-10.078125 1.738281v-37.320312c0-16.585938-13.492187-30.078125-30.078125-30.078125-16.585937 0-30.078125 13.492187-30.078125 30.078125v105.820312l-4.777344-8.851562c-4.542968-8.414063-12.296874-13.902344-20.910156-15.734375.40625-1.089844.640625-2.265625.640625-3.5 0-5.523438-4.476562-10-10-10h-69.332031c-5.523438 0-10 4.476562-10 10 0 1.125.195312 2.199218.535156 3.207031-12.703125-1.988281-25.667968 4.054687-32.136718 16.027344l-4.78125 8.851562v-105.820312c0-16.585938-13.492188-30.078125-30.078126-30.078125-16.582031 0-30.074218 13.492187-30.074218 30.078125v37.320312c-3.152344-1.125-6.542969-1.734375-10.078125-1.734375-11.488281 0-21.496094 6.476563-26.558594 15.96875-4.085937-2.082031-8.707031-3.253906-13.597656-3.253906-12.152344 0-22.644531 7.246094-27.382813 17.640625-3.878906-1.824219-8.207031-2.84375-12.773437-2.84375-3.53125 0-6.921875.617187-10.074219 1.742187v-191.101562c0-5.515625 4.484375-10 10-10h452c5.511719 0 10 4.484375 10 10v191.097656c-3.152344-1.121094-6.542969-1.742187-10.078125-1.742187zm0 0"/><path d="m64 132.003906h43c5.523438 0 10-4.480468 10-10 0-5.523437-4.476562-10-10-10h-43c-5.523438 0-10 4.476563-10 10 0 5.519532 4.476562 10 10 10zm0 0"/><path d="m217.261719 122.003906c0-5.523437-4.480469-10-10-10h-15.839844c-5.523437 0-10 4.476563-10 10 0 5.519532 4.476563 10 10 10h15.839844c5.519531 0 10-4.480468 10-10zm0 0"/><path d="m64 188h17.273438c5.523437 0 10-4.476562 10-10s-4.476563-10-10-10h-17.273438c-5.523438 0-10 4.476562-10 10s4.476562 10 10 10zm0 0"/><path d="m205.359375 178c0 5.523438 4.476563 10 10 10h18.613281c5.523438 0 10-4.476562 10-10s-4.476562-10-10-10h-18.613281c-5.523437 0-10 4.476562-10 10zm0 0"/><path d="m64 76.003906h34.550781c5.523438 0 10-4.476562 10-10 0-5.519531-4.476562-10-10-10h-34.550781c-5.523438 0-10 4.480469-10 10 0 5.523438 4.476562 10 10 10zm0 0"/><path d="m207.261719 56.003906h-31.679688c-5.523437 0-10 4.480469-10 10 0 5.523438 4.476563 10 10 10h31.679688c5.519531 0 10-4.476562 10-10 0-5.519531-4.480469-10-10-10zm0 0"/><path d="m137.589844 76c2.628906 0 5.210937-1.0625 7.070312-2.921875 1.859375-1.867187 2.929688-4.4375 2.929688-7.078125 0-2.628906-1.070313-5.210938-2.929688-7.070312-1.859375-1.859376-4.429687-2.917969-7.070312-2.917969-2.628906 0-5.210938 1.058593-7.070313 2.917969-1.859375 1.859374-2.929687 4.441406-2.929687 7.070312 0 2.640625 1.070312 5.210938 2.929687 7.078125 1.859375 1.859375 4.441407 2.921875 7.070313 2.921875zm0 0"/><path d="m233.5 122.003906c0 5.519532 4.476562 10 10 10h26.5c5.519531 0 10-4.480468 10-10 0-5.523437-4.480469-10-10-10h-26.5c-5.523438 0-10 4.476563-10 10zm0 0"/><path d="m324.570312 129.070312c1.859376-1.859374 2.929688-4.441406 2.929688-7.070312s-1.070312-5.210938-2.929688-7.070312c-1.859374-1.859376-4.441406-2.929688-7.070312-2.929688s-5.210938 1.070312-7.070312 2.929688c-1.859376 1.859374-2.929688 4.441406-2.929688 7.070312 0 2.640625 1.070312 5.210938 2.929688 7.070312 1.859374 1.867188 4.441406 2.929688 7.070312 2.929688s5.210938-1.0625 7.070312-2.929688zm0 0"/><path d="m400.710938 122.003906c0 5.519532 4.476562 10 10 10h37.632812c5.523438 0 10-4.480468 10-10 0-5.523437-4.476562-10-10-10h-37.632812c-5.523438 0-10 4.476563-10 10zm0 0"/><path d="m284.832031 168c-5.519531 0-10 4.476562-10 10s4.480469 10 10 10h20.167969c5.523438 0 10-4.476562 10-10s-4.476562-10-10-10zm0 0"/><path d="m446.394531 168h-18.617187c-5.519532 0-10 4.476562-10 10s4.480468 10 10 10h18.617187c5.519531 0 10-4.476562 10-10s-4.480469-10-10-10zm0 0"/><path d="m282.5 56.003906h-26.5c-5.523438 0-10 4.480469-10 10 0 5.523438 4.476562 10 10 10h26.5c5.519531 0 10-4.476562 10-10 0-5.519531-4.480469-10-10-10zm0 0"/><path d="m448.128906 76.003906c5.519532 0 10-4.476562 10-10 0-5.519531-4.480468-10-10-10h-33.105468c-5.519532 0-10 4.480469-10 10 0 5.523438 4.480468 10 10 10zm0 0"/><path d="m363.5 76.003906c5.523438 0 10-4.476562 10-10 0-5.519531-4.476562-10-10-10h-21.90625c-5.523438 0-10 4.480469-10 10 0 5.523438 4.476562 10 10 10zm0 0"/></svg>